/* XPM */
static char * Color_App_ICON[]={
"32 32 5 1",
/* colors */
"   c  #996600",
".  c  #ffffff",
"X  c  #cc9900",
"o  c  #663300",
"O  c  None",
/* pixels */
"OOOOOOOOOOOOOOOOOOOOOOOOOOOOOOOO",
"OOOOOOOOOOOOOOOXOOOOOOOOOOOOOOOO",
"OOOOOOOOOOOOOOXXXOOOOOOOOOOOOOOO",
"OOOOOOOOOOOOOOXXXOOOOOOOOOOOOOOO",
"OOOOOOOOOOOOOXXXXXOOOOOOOOOOOOOO",
"OOOOOOOOOOOOOXXXX OOOOOOOOOOOOOO",
"OOOOOOOOOOOOXXXXXXXOOOOOOOOOOOOO",
"OOOOOOOOOOOO  X XXXOOOOOOOOOOOOO",
"OOOOOOOOOOO X XXX XXOOOOOOOOOOOO",
"OOOOOOOOOOOXX ..... OOOOOOOOOOOO",
"OOOOOOOOOO X........XOOOOOOOOOOO",
"OOOOOOOOOO ..........OOOOOOOOOOO",
"OOOOOOOOO ............OOOOOOOOOO",
"OOOOOOOOO ..  X X ....OOOOOOOOOO",
"OOOOOOOOX..X  XX   ....OOOOOOOOO",
"OOOOOOOO .XX.       ...OOOOOOOOO",
"OOOOOOO .  .XX XoX   ...OOOOOOOO",
"OOOOOOO   ..  X o    ...OOOOOOOO",
"OOOOOO X ..     o oX ... OOOOOOO",
"OOOOOO  ...o o     o ... OOOOOOO",
"OOOOOoo ... o    o   ... oOOOOOO",
"OOOOOoo ...   oo o o ...  OOOOOO",
"OOOO  oo...   oo     ..o   OOOOO",
"OOOOo  o....       o ..o   OOOOO",
"OOOoooo .... oo   oo..o .o oOOOO",
"OOOoo o .....o o ooo. o.ooooOOOO",
"OOoo  o  ..... o oo.oo.. o  oOOO",
"OOoo   oo......oo o  .. oooo OOO",
"O o o  ooo............oooo oooOO",
"O o oo o oo.......... oo o oo OO",
"o o ooooo   o......ooooo o oo oO",
"ooo ooo ooooo oo oo o oooooooooO"}
