/* XPM */
static char * Partial_Download[]={
"32 32 9 1",
/* colors */
"   c  #777777",
".  c  #555555",
"X  c  #ffffff",
"o  c  #eeeeee",
"O  c  #dddddd",
"+  c  #bbbbbb",
"@  c  #aaaaaa",
"#  c  #888888",
"$  c  None",
/* pixels */
"$$$$$.X.X.X.X.X.X.X.X.$$$$$$$$$$",
"$$$$$XXXXXXXXXXXXXXXXXX$$$$$$$$$",
"$$$$$.XXXXXXXXXXXXXXXXX.$$$$$$$$",
"$$$$$XXXXXXXXXXXXXXXXXXXX$$$$$$$",
"$$$$$.XXXXXXXXXXXXXXXXXXX.$$$$$$",
"$$$$$XXXXXXXXXXXXXXXXXXXXXX$$$$$",
"$$$$$......XXXXXXXXXXXXXXXX.$$$$",
"$$$$$.oOOO.........XXXXXXXXX$$$$",
"$$$$$.oOOOOOOO@@@@.....XXXX.$$$$",
"$$$$$.oOOOOOOO@@@@@@OO......$$$$",
"$$$$$.oOOOOOO@@@@@@@@OOOOO .$$$$",
"$$$$$.oOOOOOO@@OOOO@@OOOOO .$$$$",
"$$$$$.oOOOOO@@OOOOOOO@OOOO .$$$$",
"$$$$$.oOOOOO@O@@@@OOOOOOOO .$$$$",
"$$$$$.oOOOO@@@@@@@@OOO@OOO .$$$$",
"$$$$$.oOOOO@@@O@@@@@OO@OOO .$$$$",
"$$$$$.oOOO   O   @@@OO@@OO .$$$$",
"$$$$$.oOOO  OO      OO@@OO .$$$$",
"$$$$$.oOO   OO      OO   O .$$$$",
"$$$$$.oOO   OO      O    O .$$$$",
"$$$$$.oO    OO      O      .$$$$",
"$$$$$.oO    OOO    O       .$$$$",
"$$$$$.o      OOOO    o    #.$$$$",
"$$$$$.+       OOOOOOO     #.$$$$",
"$$$$$.+        OOOOO      #.$$$$",
"$$$$$.+                   #.$$$$",
"$$$$$.oOOOOOOOOOOOOOOOOOOO@.$$$$",
"$$$$$.oOOOOOOOOOOOOOOOOOOO@.$$$$",
"$$$$$.oOOOOOOOOOOOOOOOOOOO@.$$$$",
"$$$$$.oOOOOOOOOOOOOOOOOOOO@.$$$$",
"$$$$$.@@@@@@@@@@@@@@@@@@@@ .$$$$",
"$$$$$.......................$$$$"}
