/* XPM */
static char * AOL_mailbox[]={
"32 32 16 1",
/* colors */
"   c  #777777",
".  c  #555555",
"X  c  #ccccff",
"o  c  #222222",
"O  c  #000000",
"+  c  #dd0000",
"@  c  #ffffff",
"#  c  #333366",
"$  c  #eeeeee",
"%  c  #dddddd",
"&  c  #bbbbbb",
"*  c  #9999ff",
"=  c  #aaaaaa",
"-  c  #888888",
";  c  #6666cc",
":  c  None",
/* pixels */
":::.................::::::::::::",
":::.$$$$$$$$$$$$$$$..:::::::::::",
":::.$%%%%%%%%%%%%%%.@.::::::::::",
":::.$%%%%%%%%%%%%%%.$@.:::::::::",
":::.$%%%%%%%%%%%%%%.$$@.::::::::",
":::.$%%%%%%%%%==%%%.$$$@.:::::::",
":::.$%%%%%%%%====%%.......::::::",
":::.$%%%%%%%%====%%%==== .::::::",
":::.$%%%%%%%======%%%%%%=.::::::",
":::.$%%%%%%%======%%%%%%=.::::::",
":::.$%%%%%%========OOOOO=.::::::",
":::.$%%%%%%==%%%%==O+++O=.::::::",
":::.$%%%%%==%%%%%%%O+++O=.::::::",
":::.$%%%%%=%====%%%O+OOO=.::::::",
":::.$%%%%========%%O+O%%=.::::::",
":::.$%%%%===%=====%O+O%%=.::::::",
":::.$%%%===OOOOOOOOO+OOOOOOO::::",
":::.$%%%==OXXXX*O**O+O******O:::",
":::.$%%==OXXXXXX*O*O+O;;;;;;#O::",
":::.$%%==OXXXXXX*O*O+O#;;;;;#O::",
":::.$%==OXXXXXXX**OOOO#;;;;;;#O:",
":::.$%==OXXXXXXXX*O*##o;;;;;;#O:",
":::.$===OXXXXXXXX*O*;;;;;;;;;#O:",
":::.&===OXXXXXXXX*O*;;;;;;;;;#O:",
":::.&===OXXXXXXXX*O*;;;;;;;;;#O:",
":::.&===OXXXXXXXX*O*;;;;;;;;;#O:",
":::.$%%%OXXXXXXXX*O*;;;;;;;;;oO:",
":::.$%%%O*********O*#########oO:",
":::.$%%%OOOOOOOOOOOOOOOOOOOOOOO:",
":::.$%%%%%%%%%%%%%%%OOO%=.::::::",
":::.================O-O= .::::::",
":::.................O-O...::::::"}
