/* XPM */
static char * AOL_Pict[]={
"32 32 12 1",
/* colors */
"   c  #777777",
".  c  #555555",
"X  c  #99ffff",
"o  c  #000000",
"O  c  #ff66cc",
"+  c  #ffffff",
"@  c  #eeeeee",
"#  c  #dddddd",
"$  c  #bbbbbb",
"%  c  #aaaaaa",
"&  c  #6666cc",
"*  c  None",
/* pixels */
"****.................***********",
"****.@@@@@@@@@@@@@@@..**********",
"****.@##############.+.*********",
"****.@##############.@+.********",
"****.@##....................****",
"****.@##.++++++++++++++++++.****",
"****.@##.+@@@@@@@@@@@@@@@@#.****",
"****.@##.+@@@@@@@@@@@@@@@@#.****",
"****.@##.+oooooooo@@@@@@@@#.****",
"****.@##.+oXXXXXXo@@@@@@@@#.****",
"****.@##.+oXXXXXXo@@@ooo@@#.****",
"****.@##.+oXXXXXXo@@oOOOo@#.****",
"****.@##.+oooooooo@oOOOOOo#.****",
"****.@##.+@@@@@@@@@oOOOOOo#.****",
"****.@##.+@@@@@@@@@oOOOOOo#.****",
"****.@##.+@@@@@@o@@@oOOOo@#.****",
"****.@##.+@@@@@o&o@@@ooo@@#.****",
"****.@##.+@@@@o&&&o@@@@@@@#.****",
"****.@##.+@@@o&&&&&o@@@@@@#.****",
"****.@##.+@@o&&&&&&&o@@@@@#.****",
"****.@#%.+@@@o&&&&&o@@@@@@#.****",
"****.@#%.+@@@@o&&&o@@@@@@@#.****",
"****.@%%.+@@@@@o&o@@@@@@@@#.****",
"****.$%%.+@@@@@@o@@@@@@@@@#.****",
"****.$%%.+@@@@@@@@@@@@@@@@#.****",
"****.$%%.+@@@@@@@@@@@@@@@@#.****",
"****.@##.+@@@@@@@@@@@@@@@@#.****",
"****.@##.+#################.****",
"****.@##....................****",
"****.@###%%%%%%%%%%%%%%%%%.*****",
"****.%%%%%%%%%%%%%%%%%%%% .*****",
"****.......................*****"}
