/* XPM */
static char * Locality[]={
"32 32 13 1",
/* colors */
"   c  #777777",
".  c  #555555",
"X  c  #0099ff",
"o  c  #000000",
"O  c  #ffcc99",
"+  c  #ffffff",
"@  c  #cc9966",
"#  c  #eeeeee",
"$  c  #dddddd",
"%  c  #bbbbbb",
"&  c  #aaaaaa",
"*  c  #6666cc",
"=  c  None",
/* pixels */
"===.................============",
"===.###############..===========",
"===.#$$$$$$$$$$$$$$.+.==========",
"===.#$$$$$$$$$$$$$$.#+.=========",
"===.#$$$$$$$$$$$$$$.##+.========",
"===.#$$$$$$$$$&&$oooooo+.=======",
"===.#$$$$$$$$&oooOOOOOOooo======",
"===.#$$$$$$$$ooOOOOO@@@Oooo=====",
"===.#$$$$$$$o*oOOOOOO@OOOo*o====",
"===.#$$$$$$o*XoO@OOOOOOOOo**o===",
"===.#$$$$$o*XXoOOOOOOOOO@oX**o==",
"===.#$$$$o*XXXoo@@@@@OO@ooX***o=",
"===.#$$$$o*XXXXo@oo@@oo@oXXX**o=",
"===.#$$$$o*XXXXooXo@ooo@oXXX**o=",
"===.#$$$o*XXXXXXooo@oXo@oXXX***o",
"===.#$$$o*XXXXXXXo@@oXooXXXX***o",
"===.#$$$o*XXXXXXXoo@ooXXXXXX***o",
"===.#$$$o*XXXXXXXXooO@oXXXXX***o",
"===.#$$&o*XXXXXXoooOOooooXXX***o",
"===.#$$&o**XXXXXoOOO@@OOooXX***o",
"===.#$&&&o*XXXXXoOOOOOO@@oX***o=",
"===.#$&&&o**XXXXo@OOOO@@oo****o=",
"===.#&&&&o****XXoo@@@@ooo*****o=",
"===.%&&&&&o******oo@@oo******o==",
"===.%&&&&&&o******o@@o******o===",
"===.%&&&&&&&o*****oo@o*****o====",
"===.#$$$$$$$$o*****o@o****o=====",
"===.#$$$$$$$$$ooo**o@o*ooo======",
"===.#$$$$$$$$$$$$oooooo$&.======",
"===.#$$$$$$$$$$$$$$$$$$$&.======",
"===.&&&&&&&&&&&&&&&&&&&& .======",
"===.......................======"}
