/* XPM */
static char * AOL_art_files[]={
"32 32 13 1",
/* colors */
"   c  #777777",
".  c  #555555",
"X  c  #0099ff",
"o  c  #222222",
"O  c  #000000",
"+  c  #ffcc99",
"@  c  #ffffff",
"#  c  #cc9966",
"$  c  #eeeeee",
"%  c  #dddddd",
"&  c  #bbbbbb",
"*  c  #aaaaaa",
"=  c  None",
/* pixels */
"====.................===========",
"====.$$$$$$$$$$$$$$$..==========",
"====.$%%%%%%%%%%%%%%.@.=========",
"====.$%%%%%%%%%%%%%%.$@.========",
"====.$%%%%%%%%%%%%%%.$$@.=======",
"====.$%%%%%%%%%**%%%.$$$@.======",
"====.$%%%%%%%%****%%.......=====",
"====.$%%%%%%%%****%%%**** .=====",
"====.$%%%%%%%*..............====",
"====.$%%%%%%%*..oOOO.+++++#.====",
"====.$%%%%%%**.####.OOO.++#.====",
"====.$%%%%%%**.######.OOOO..====",
"====.$%%%%%**%.##########oO.====",
"====.$%%%%%*%*.###########..====",
"====.$%%%%****.############.====",
"====.$%%%%***%.##o.ooooO.##.====",
"====.$%%%***%*.o.%OOOO@.O.#.====",
"====.$%%%**%%*.*%@XOOX@%O++.====",
"====.$%%***%%*..@@XXXX@@.++.====",
"====.$%%***%%*.+.*@@@@@**+#.====",
"====.$%****%%*.+*.......+##.====",
"====.$%****%%%.##+++++++*##.====",
"====.$******%%.#####****###.====",
"====.&*******%.########+++#.====",
"====.&********.##++++++++++.====",
"====.&********.#+++++++++++.====",
"====.$%%%%%%%%..............====",
"====.$%%%%%%%%%***********.=====",
"====.$%%%%%%%%%%%%%%%%%%%*.=====",
"====.$%%%%%%%%%%%%%%%%%%%*.=====",
"====.******************** .=====",
"====.......................====="}
