/* XPM */
static char * CCL_file[]={
"32 32 12 1",
/* colors */
"   c  #777777",
".  c  #555555",
"X  c  #000000",
"o  c  #ffffff",
"O  c  #333366",
"+  c  #eeeeee",
"@  c  #dddddd",
"#  c  #bbbbbb",
"$  c  #9999ff",
"%  c  #aaaaaa",
"&  c  #6666cc",
"*  c  None",
/* pixels */
"**.................****XXXX*****",
"**.+++++++++++++++..**X$$$$XX***",
"**.+@@@@@@@@@@@@@@.o.*X&&&&$$X**",
"**.+@@@@@@@@@@@@@@.+oX&&&&&&&X**",
"**.+@@@@@@@@@@@@@@.++X&&&&&&&$X*",
"**.+@@@@@@@@@%%@@@.++X&&&&&&&&X*",
"**.+@@@@@@@@%%%%@@...XO&&&&&&&X*",
"**.+@@@@@@@@%%%%@@@%% X&&&&&&&$X",
"**.+@@@@@@@%%%%%%@@@@@XOOOOO&&&X",
"**.+@@@@@@@%%%%%%@@@@@@XXXXO&&&X",
"**.+@@@@@@%%%%%%%%@@@@@ .*XO&&&X",
"**.+@@@@@@%%@@@@%%@@@@@ .**XO&&X",
"**.+@@@@@%%@@@@@@@%@@@@ .**XO&&X",
"**.+@@@@@%@%%%%@@@@@@@@ .**XO&&X",
"**.+@@@@%%%%%%%%@@@ @@@ .**XO&&X",
"**.+@@@@%%%@%%%%%@@%@@@ .**XO&&X",
"**.+@@@%%%@%%%%%%@@%%@@ .**XO&&X",
"**.+@@@%%@@%%%%%%@@%%@@ .**XO&&X",
"**.+@@%%%@@%%%%%XX@%%XX .**XO&&X",
"**.+@@%%%@@%XXXXX&X%%X&X.**XO&&X",
"**.+@%%%%@@XX&&XXX&XXXX&X**XO&&X",
"**XXXX%%%@@XXXX%@%XXX%XXX*X$&&&X",
"**X&&XX%%XXXX@%%%%+%%%%XXXX$&&&X",
"**XXXX&X%X&&X@@@@@%%%%X$$$$$&&&X",
"**.#%XX&XXXXX@@@@%%%%%X&&&&$&&OX",
"**.#%%XXXX%%%%%%%%%%%X$&&&&&&&X*",
"**.+@@@@@@@@@@@@@@@@@X&&&&&&&&X*",
"**.+@@@@@@@@@@@@@@@@@X&&&&&&OOXX",
"**.+@@@@@@@@@@@@@@@@@XO&&&&&OX&X",
"**.+@@@@@@@@@@@@@@@@@@X&&&&OOXXX",
"**.%%%%%%%%%%%%%%%%%%%XOOOOXX***",
"**.....................XXXXo****"}
