/* XPM */
static char * Mail_Document[]={
"32 32 10 1",
/* colors */
"   c  #777777",
".  c  #555555",
"X  c  #000000",
"o  c  #ffffff",
"O  c  #eeeeee",
"+  c  #dddddd",
"@  c  #bbbbbb",
"#  c  #aaaaaa",
"$  c  #33ff99",
"%  c  None",
/* pixels */
"%%%.................%%%%%%%%%%%%",
"%%%.OOOOOOOOOOOOOOO..%%%%%%%%%%%",
"%%%.O++++++++++++++.o.%%%%%%%%%%",
"%%%.O++++++++++++++.Oo.%%%%%%%%%",
"%%%.O++++++++++++++.OOo.%%%%%%%%",
"%%%.O+++++++++##+++.OOOo.%%%%%%%",
"%%%.O++++++++####++.......%%%%%%",
"%%%.O++++++++####+++#### .%%%%%%",
"%%%.O+++++++######++++++#.%%%%%%",
"%%%.O+++++++######++++++#.%%%%%%",
"%%%.O++++++########+++++#.%%%%%%",
"%%%.O++++++##++++##+++++#.%%%%%%",
"%%%.O+++++##+++++++#++++#.%%%%%%",
"%%%.O+++++#+####++++++++#.%%%%%%",
"%%%.O+XXXXXXXXXXXXXXXXXXXXXXXXXX",
"%%%.O+XooooooooooooooooooooooooX",
"%%%.O+XoXXXooooooooOOOOoOoXXXXOX",
"%%%.O+XoooooooooOOOOOOoOooX$$XoX",
"%%%.O+XoXXXooooOOOOO+++OooX$$XOX",
"%%%.O+XooooooOOOOOO+++OoOoX$$XOX",
"%%%.O+XoooooOXXXXXXXXOoOooXXXXOX",
"%%%.O+XoooOOOOO++++OOoOoooooooOX",
"%%%.O#XoooOOOXXXXXXXXOOooooooOOX",
"%%%.@#XooOOOOO+++OOOOOooooooOOOX",
"%%%.@#XooOOOOXXXOOOOOooooooOOOOX",
"%%%.@#XoOOOO+++OOOOOooooooOOO++X",
"%%%.O+XoOOO++++OOOOoooooooOOO++X",
"%%%.O+X++++++++++++++++++++++++X",
"%%%.O+XXXXXXXXXXXXXXXXXXXXXXXXXX",
"%%%.O++################# .%%%%%%",
"%%%.####                 .%%%%%%",
"%%%.......................%%%%%%"}
