/* XPM */
static char * Send_Now[]={
"32 32 11 1",
/* colors */
"   c  #777777",
".  c  #555555",
"X  c  #000000",
"o  c  #ffcc99",
"O  c  #ffffff",
"+  c  #cc9966",
"@  c  #eeeeee",
"#  c  #dddddd",
"$  c  #aaaaaa",
"%  c  #33ff99",
"&  c  None",
/* pixels */
"&&&.................&&&&&&&&&&&&",
"&&&.@@@@@@@@@@@@@@@..&&&&&&&&&&&",
"&&&.@##############.O.&&&&&&&&&&",
"&&&.@##############.@O.&&&&&&&&&",
"&&&.@##############.@@O.&&&&&&&&",
"&&&.@#########$$###.@@@O.&&&&&&&",
"&&&.@########$$$$##.......&&&&&&",
"&&&.@########$$$$###$$$$ .&&&&&&",
"&&&.@#######$$$$$$######$.&&&&&&",
"&&&.@#######$$$$$$######$.&&&&&&",
"&&&.@######$$$$$$$$#####$.&&&&&&",
"&&&.@######$$####$$#####$.&&&&&&",
"&&&.@#####$$#######$####$.&&&&&&",
"&&&.@#####$#$$$$########$.&&&&&&",
"&&&.@#XXXXXXXXXXXXXXXXXXXXXXXXXX",
"&&&.@#XOOOOOOOOOOOOOOOOOOOOOOOOX",
"&&XXXXXOXXXOOOOOOOO@@@@O@OXXXX@X",
"&&XoooXOOOOOOOOO@@@@@@O@OOX%%XOX",
"&&Xoo+XOXXXOOOO@@@@@###@OOX%%X@X",
"&&XooXXOOOOOO@@@@@@###@O@OX%%X@X",
"&&XooooXXXXO@XXXXXXXX@O@OOXXXX@X",
"&&XooooooooX@@@####@@O@OOOOOOO@X",
"&&XoooooXoooXXXXXXXXX@@OOOOOO@@X",
"&&XoooooXoooX@###@@@@@OOOOOO@@@X",
"&&XoooooXX++XXXX@@@@@OOOOOO@@@@X",
"&&Xoo++++++X###@@@@@OOOOOO@@@##X",
"&&X++XXXXXXO###@@@@OOOOOOO@@@##X",
"&&XXX#X########################X",
"&&&.@#XXXXXXXXXXXXXXXXXXXXXXXXXX",
"&&&.@##$$$$$$$$$$$$$$$$$ .&&&&&&",
"&&&.$$$$                 .&&&&&&",
"&&&.......................&&&&&&"}
