/* XPM */
static char * Address_Book[]={
"32 32 3 1",
/* colors */
"   c  #000000",
".  c  #ffffff",
"X  c  None",
/* pixels */
"XXXX                     XXXXXXX",
"XXXX ...................  XXXXXX",
"XXXX .....            ..  XXXXXX",
"XX     ...   .....    ..   XXXXX",
"X ..... ..  ..   ..   ..   XXXXX",
" ..   .. .      ...   ..   XXXXX",
" .   . . .   ... ..   ..   XXXXX",
"   . .   .  ..   ..   ..   XXXXX",
"XX . .....  ...  ..   ..   XXXXX",
"XX . .....   .... ..  ..   XXXXX",
"XX . .....            ..   XXXXX",
"XX     .................   XXXXX",
"X ..... ................   XXXXX",
" ..   .. ...............   XXXXX",
" . . . . .            ..   XXXXX",
"   . .   ...............   XXXXX",
"XX . ...................   XXXXX",
"XX . ...................   XXXXX",
"XX . .....            ..   XXXXX",
"XX     .................   XXXXX",
"X ..... ................   XXXXX",
" ..   .. ...............   XXXXX",
" . . . . .            ..   XXXXX",
"   . .   ...............   XXXXX",
"XX . ...................   XXXXX",
"XX . ...................   XXXXX",
"XX                         XXXXX",
"XXXXX                      XXXXX",
"XXXXX                      XXXXX",
"XXXXXXXXXXXXXXXXXXXXXXXXXXXXXXXX",
"XXXXXXXXXXXXXXXXXXXXXXXXXXXXXXXX",
"XXXXXXXXXXXXXXXXXXXXXXXXXXXXXXXX"}
