/* XPM */
static char * Send_Later[]={
"32 32 3 1",
/* colors */
"   c  #000000",
".  c  #ffffff",
"X  c  None",
/* pixels */
"XX                     XXXXXXXXX",
"XX . . . . . . . . . . XXXXXXXXX",
"XX  . . .       . . .  XXXXXXXXX",
"XX . . .  .....  . . . XXXXXXXXX",
"XX  .   .... ....   .  XXXXXXXXX",
"XX . . ..... ..... . . XXXXXXXXX",
"XX  . .. .......... .  XXXXXXXXX",
"XX .  ... .........  . XXXXXXXXX",
"XX   ..... .... ....   XXXXXXXXX",
"XX . ...... .. ..... . XXXXXXXXX",
"XX   .  ....  ...  .   XXXXXXXXX",
"XX . ............... . XXXXXXXXX",
"XX   ...............   XXXXXXXXX",
"   .  .............  .         X",
" .  . ............. .  ....... X",
" . . . ..... ..... . . ..    .  ",
" .  .   .... ....   .  ..    .  ",
" . . . .  .....  . . . ..    .  ",
" .  . . .       . . .  ..    .  ",
" . . . . . . . . . . . .......  ",
" .                     .......  ",
" .............................  ",
" .......    .     ............  ",
" .............................  ",
" .......       .    ..........  ",
" .............................  ",
" .......    .  ...............  ",
" .............................  ",
" .............................  ",
" .............................  ",
"                                ",
"XX                              "}
