/* XPM */
static char * Reply[]={
"32 32 3 1",
/* colors */
"   c  #000000",
".  c  #ffffff",
"X  c  None",
/* pixels */
"                      XXXX XXXXX",
" ... ................  XX   XXXX",
" ... ................  X     XXX",
" ... ................   .   XXXX",
" ... ................  ... XXXXX",
"                      ... XXXXXX",
" ... ............... ... XXXXXXX",
" ... .............. ... XXXXXXXX",
"                   ... XXXXXXXXX",
" ... ............ ...  XXXXXXXXX",
" ... ........... ...   XXXXXXXXX",
"                ...    XXXXXXXXX",
" ... ......... ... ..  XXXXXXXXX",
" ... ........ ... ...  XXXXXXXXX",
"             ...       XXXXXXXXX",
" ... ...... ... .....  XXXXXXXXX",
" ... ..... ... ......  XXXXXXXXX",
"            .          XXXXXXXXX",
" ... ....    ........  XXXXXXXXX",
" ... ....  ..........  XXXXXXXXX",
"                       XXXXXXXXX",
" ... ................  XXXXXXXXX",
" ... ................  XXXXXXXXX",
" ... ................  XXXXXXXXX",
"                       XXXXXXXXX",
"X                      XXXXXXXXX",
"XXXXXXXXXXXXXXXXXXXXXXXXXXXXXXXX",
"XXXXXXXXXXXXXXXXXXXXXXXXXXXXXXXX",
"XXXXXXXXXXXXXXXXXXXXXXXXXXXXXXXX",
"XXXXXXXXXXXXXXXXXXXXXXXXXXXXXXXX",
"XXXXXXXXXXXXXXXXXXXXXXXXXXXXXXXX",
"XXXXXXXXXXXXXXXXXXXXXXXXXXXXXXXX"}
