/* XPM */
static char * Download_File[]={
"32 32 3 1",
/* colors */
"   c  #000000",
".  c  #ffffff",
"X  c  None",
/* pixels */
"                               X",
" ............................. X",
" ............................. X",
" ............................. X",
" ............................. X",
" ...... .... ..... .... ...... X",
" ............................. X",
" ... ..... .... .... ..... ... X",
" ............................. X",
" ..... ..  ... ... .... ...... X",
" ... ... ........... . ....... X",
" .... .......... ........ .... X",
" ....... . .. ...... ... . ... X",
" ... .. ............. ........ X",
" ..... . . .. .... . ... . ... X",
" ... .... . ... . . . . . .... X",
" ... . . ... ... ... . ... ... X",
" ...  . . . . . . . . . . .... X",
" ... . . . . . . . . . . . ... X",
" ...  . . . . . . . . . .  ... X",
" ... . . . . . . . . . . . ... X",
" ...  . .             . .  ... X",
" ... . . ............. . . ... X",
" ...  .  ..         ..  .  ... X",
" ... . . ............. . . ... X",
"      .  ..         ..  .      X",
"XXXX . . ............. . . XXXXX",
"XXXX  .  ..         ..  .  XXXXX",
"XXXX . . ............. . . XXXXX",
"XXXX  .  .............  .  XXXXX",
"XXXXX                     XXXXXX",
"XXXXXXXXXXXXXXXXXXXXXXXXXXXXXXXX"}
