/* XPM */
static char * People_Connection[]={
"32 32 3 1",
/* colors */
"   c  #000000",
".  c  #ffffff",
"X  c  None",
/* pixels */
"     XXXXXXXXXXXXXXX            ",
"       XXXXXXXXXXXX             ",
"        XXXXXXXXXX              ",
"        XXXXXXXXXXX             ",
" ..      XXXXXXXXXXX  ....      ",
" ....    XXXXXXXXXX ......      ",
" .....    XXXXXXXXX ......      ",
" .....    XXXXXXXX .......      ",
" .....     XXXXXXX .......      ",
" .....     XXXXXXX ........     ",
" .....     XXXXXXX ........     ",
"   ...      XXXXXX .  ......    ",
" .. ...      XXXXX .   .......  ",
" ......  . .  XXXX .     ...... ",
" ...... ..  .  XX .. .......... ",
" ...... .. . .   .............. ",
" .........  . . ............... ",
" ....... . . .  ............... ",
" ...... ..  . .  ............   ",
" ...... .  . . . ........... .. ",
" ........ . . .  ........... .. ",
" ........  . . .   .........    ",
" ......   . . . . . .........   ",
" ......  . . . .   ............ ",
" ...... . . . . . ............. ",
" ......  . . . .  .......... .. ",
" ...... . . . . . ........  ... ",
" ......  . . . . .        ..... ",
" .....  . . . . . . . . .  .... ",
" ....  . . . . . . . . . . .... ",
" ...  . . . . . . . . . .  .... ",
"                                "}
