/* XPM */
static char * Entertainment[]={
"32 32 3 1",
/* colors */
"   c  #000000",
".  c  #ffffff",
"X  c  None",
/* pixels */
" XXX                      XXXXXX",
"  XX .................... XXXXXX",
"   X .... ............... XXXXXX",
" .   ...   ..          .. XXXXXX",
"  .  ..     .......... ..  XXXXX",
" . . .       ......... ..    XXX",
"  .  .       ......... .. ..   X",
" . . .       ......... ..  ...  ",
"  .  ..     .......... .. .. . X",
" . . .... ............ ..  ... X",
"  .  .... ............ .. ..  XX",
" . . ...   ........... ..  .. XX",
"  .  ................. .. .. XXX",
" . . .. .............. ..  . XXX",
"  .  .. .............. .. .. XXX",
" . . .. .............. ..   XXXX",
"  .  .. .............. .. . XXXX",
" . . .. .................  XXXXX",
"  .  .. ...........   ...  XXXXX",
" . . .. ............ .... XXXXXX",
"  .  .. ............ .... XXXXXX",
" . . .. ..........     .. XXXXXX",
"  .  .. .........       . XXXXXX",
" . . .. .........       . XXXXXX",
"  .  .. .........       . XXXXXX",
" . . .. ..........     .. XXXXXX",
"  .  ..          ..   ...  XXXXX",
" . . ............... ....   XXXX",
"  .  .................... .  XXX",
" . .                       .  XX",
"  . . . . . . . . . . . . . .  X",
"                                "}
