/* XPM */
static char * Membership_Directory[]={
"32 32 3 1",
/* colors */
"   c  #000000",
".  c  #ffffff",
"X  c  None",
/* pixels */
"XXXXXXXXXX     XXXXXXXXXXXXXXXXX",
"XXXXXXXXX ..... XXXXXXXXXXXXXXXX",
"XXXXXXX   .....        XXXXXXXXX",
"XXXXXX ................ XXXXXXXX",
"XXXXXX ................ XXXXXXXX",
"XXXXXX ..      ........ XXXXXXXX",
"XXXXXX ................ XXXXXXXX",
"XXXXXX ..         ..... XXXXXXXX",
"XXXXXX ................ XXXXXXXX",
"XXXXXX ..      ........ XXXXXXXX",
"   XXX ................ XXX   XX",
" . XXX ....  ....  .... XXX . XX",
"       ....  ....  ....       XX",
" .                          . XX",
"       ....  ....  ....       XX",
" .     ....  ....  ....     . XX",
"       ................       XX",
" .   . ................ .   . XX",
"   X . ................ . X   XX",
"   X . ................ . X   XX",
"XXXX . ................ . XXXXXX",
"XXXX . ................ . XXXXXX",
"XXXX . ................ . XXXXXX",
"XXXX .  ..............  . XXXXXX",
"XXXX . .              . . XXXXXX",
"XXXX .  . . . . . . .   . XXXXXX",
"XXXX . X              X . XXXXXX",
"XXXX . XXXXXXXXXXXXXXXX . XXXXXX",
"XXXX . XXXXXXXXXXXXXXXX . XXXXXX",
"XXXX . XXXXXXXXXXXXXXXX . XXXXXX",
"XXXX   XXXXXXXXXXXXXXXX   XXXXXX",
"XXXXXXXXXXXXXXXXXXXXXXXXXXXXXXXX"}
