/* XPM */
static char * Message_Boards[]={
"32 32 3 1",
/* colors */
"   c  #000000",
".  c  #ffffff",
"X  c  None",
/* pixels */
"XXXXXXXX  XXXXXXXXXXXXXXXXXXXXXX",
"XXXXXXX .. XXXXXXXXXXXXXXXXXXXXX",
"XXXXXX ... XXXXXXXXXXXXXXXXXXXXX",
"XXXXX ... . XXXXXXXXXXXXXXXXXXXX",
"XXXX ...  .. XXXXXXXXXXXXXXXXXXX",
"XXX ....   .. XXXXXXXXXXXXXXXXXX",
"XXX.  ....  .. XXXXXXXXXXXXXXXXX",
"XXX... ....  .. XXXXXXXXXXXXXXXX",
"XXX.... ....  ..  XXXXXXXXXXXXXX",
"XXX..... ....   .. XXXXXXXXXXXXX",
"XXX...... .... ... XXXXXXXXXXXXX",
"XXX....... .. ... .XXXXXXXXXXXXX",
"XXX........ .... ..XXXXXXXXXXXXX",
"XXX........ ...  ..XXXXXXXXXXXXX",
"            .. ..               ",
" ...........  .... ............ ",
" .................. ........... ",
" ................... .......... ",
" .............................. ",
" ......  .  ..  .  ... ........ ",
" .....       .      .    ...... ",
" ....... ........ ..... ....... ",
" ...........................    ",
" ..... .         ..     ...  . X",
" .........................  . XX",
" .....    .    .  ..  ...  . XXX",
" .................. .     . XXXX",
"   ...     ..  ... . . . . XXXXX",
"X .   . . . ..... . . . XXXXXXXX",
"XX . . . . .     . XXXXXXXXXXXXX",
"XXX . ..... . . . XXXXXXXXXXXXXX",
"XXXXXXXXXXXX . . XXXXXXXXXXXXXXX"}
