/* XPM */
static char * You_have_mail[]={
"32 32 3 1",
/* colors */
"   c  #000000",
".  c  #ffffff",
"X  c  None",
/* pixels */
"XXXXX                      XXXXX",
"XXXXX .................... XXXXX",
"XXXXX ..     ............. XXXXX",
"XXXXX .................... XXXXX",
"XXXXX ..     ............. XXXXX",
"XXXXX .................... XXXXX",
"XXXXX .................... XXXXX",
"XXXXX ..    .............. XXXXX",
"XXXXX .................... XXXXX",
"XXXX  ..  .       .     ..  XXXX",
"XX    ....................    XX",
"X     ..    .  .       ...     X",
"         ..............         ",
" ........ ............ ........ ",
" ......... .......... ......... ",
" .......... ........ .......... ",
" ..........          .......... ",
" ......... .......... ......... ",
" ........ ............ ........ ",
" ....... .............. ....... ",
" ...... ................ ...... ",
" ..... .................. ..... ",
" .... .................... .... ",
" ... ...................... ... ",
" .. ........................ .. ",
" . .......................... . ",
"  ............................  ",
"                                ",
"XXXXXXXXXXXXXXXXXXXXXXXXXXXXXXXX",
"XXXXXXXXXXXXXXXXXXXXXXXXXXXXXXXX",
"XXXXXXXXXXXXXXXXXXXXXXXXXXXXXXXX",
"XXXXXXXXXXXXXXXXXXXXXXXXXXXXXXXX"}
