/* XPM */
static char * icon537[]={
"32 32 3 1",
/* colors */
"   c  #000000",
".  c  #ffffff",
"X  c  None",
/* pixels */
"XXX                            X",
"XXX  . . . . . . . . . . . . . X",
"XXX . . . . . . . . . . . . .  X",
"XXX  . . . . . . . . . . . . . X",
"XXX . . . . . . . . . . . . .  X",
"XXX  . . . . . . . . . . . . . X",
"XXX . . . . . . . . . . . . .  X",
"XXX  . . . . . . . . . . . . . X",
"XXX . . . . . . . . . . . . .  X",
"XXX  . . . . . . . . . . . . . X",
"XXX . . . . . . . . . . . . .  X",
"XXX  . . . . . . . . . . . . . X",
"X                         . .  X",
" ......................... . . X",
" .........................  .  X",
" ......................... . . X",
" ....                 ....  .  X",
" ...                   ... . . X",
" ...                   ...  .  X",
" ...                   ... . . X",
" ...                   ...  .  X",
" ...                   ... . . X",
" ...                   ...  .  X",
" ...                   ... . . X",
" ...                   ...  .  X",
" ...                   ... . . X",
" ...                   ...  .  X",
" ...                   ... . . X",
" ....                 ....  .  X",
" ......................... . . X",
" .........................  .  X",
"                               X"}
