/* XPM */
static char * icon540[]={
"32 32 3 1",
/* colors */
"   c  #000000",
".  c  #ffffff",
"X  c  None",
/* pixels */
"XXXXXXXXXXXXXXXXXXXXXXXXXXXXXXXX",
"XXXXXXXXXXXXXXXXXXXXXXXXXXXXXXXX",
"XXXXXXXXXXXXXXXXXXXXXXXXXXXXXXXX",
"XXXXXXXXXXXXXXXXXXXXXXXXXXXXXXXX",
"XXXXXXXXXXXXXXXXXXXXXXXXXXXXXXXX",
"XXXXXXX..................XXXXXXX",
"XXXXXX....................XXXXXX",
"XXXXX......................XXXXX",
"XXXXX......................XXXXX",
"XXXXX......           .....XXXXX",
"XXXXX..... . ......... ....XXXXX",
"XXXXX.... ... .  ...... ...XXXXX",
"XXXXX.... ... .  ...... ...XXXXX",
"XXXXX.... ... .       . ...XXXXX",
"XXXXX.... ... ......... ...XXXXX",
"XXXXX.... ... ......... ...XXXXX",
"XXXXX.....              ...XXXXX",
"XXXXX............  ........XXXXX",
"XXXXX............  ........XXXXX",
"XXXXX............  ........XXXXX",
"XXXXX............  ........XXXXX",
"XXXXX............  ........XXXXX",
"XXXXX............  ........XXXXX",
"XXXXX............  ........XXXXX",
"XXXXX............  ........XXXXX",
"XXXXXX....................XXXXXX",
"XXXXXXX..................XXXXXXX",
"XXXXXXXXXXXXXXXXXXXXXXXXXXXXXXXX",
"XXXXXXXXXXXXXXXXXXXXXXXXXXXXXXXX",
"XXXXXXXXXXXXXXXXXXXXXXXXXXXXXXXX",
"XXXXXXXXXXXXXXXXXXXXXXXXXXXXXXXX",
"XXXXXXXXXXXXXXXXXXXXXXXXXXXXXXXX"}
