/* XPM */
static char * untitled[]={
"16 16 2 1",
/* colors */
"   c  #000000",
".  c  #ffffff",
/* pixels */
"      ..........",
"      ..........",
"..  ............",
"..  ............",
"..  ............",
"..  ............",
"..  ............",
"..  ............",
"      .  .....  ",
"      .   ...   ",
".......    .    ",
".......         ",
".......  .   .  ",
".......  .. ..  ",
".......  .....  ",
".......  .....  "}
