/* XPM */
static char * No_Icon_Found[]={
"32 32 2 1",
/* colors */
"   c  #000000",
".  c  #ffffff",
/* pixels */
"                                ",
" .............................. ",
" .............................. ",
" .............................. ",
" .............................. ",
" .... ... ..  ................. ",
" ....  .. . .. ................ ",
" .... . . . .. ................ ",
" .... ..  . .. ................ ",
" .... ... ..  ................. ",
" .............................. ",
" .............................. ",
" ....   ..  ...  .. ... ....... ",
" ..... .. .. . .. .  .. ....... ",
" ..... .. .... .. . . . ....... ",
" ..... .. .. . .. . ..  ....... ",
" ....   ..  ...  .. ... ....... ",
" .............................. ",
" .............................. ",
" ....   ..  .. .. . ... .   ... ",
" .... ... .. . .. .  .. . .. .. ",
" ....  .. .. . .. . . . . .. .. ",
" .... ... .. . .. . ..  . .. .. ",
" .... ....  ...  .. ... .   ... ",
" .............................. ",
" .............................. ",
" .............................. ",
" .............................. ",
" .............................. ",
" .............................. ",
" .............................. ",
"                                "}
