/* XPM */
static char * icon512[]={
"16 16 8 1",
/* colors */
"   c  #562c05",
".  c  #fcf305",
"X  c  #808080",
"o  c  #000000",
"O  c  #c0c0c0",
"+  c  #ffffff",
"@  c  #dd0806",
"#  c  None",
/* pixels */
"#########@@@@###",
"#########@@@@###",
"#########@######",
"####oooooooo####",
"###ooOOOOOOOo###",
"###oooOOOOOOOo##",
"ooooooOOOOOOXo##",
"o....oOOOOOOXo##",
"#o...oXXXXXXXo##",
"##oooooooooooo##",
"##oOoo###  #####",
"##ooo####  #####",
"#########  #####",
"#########  #####",
"################",
"################"}
