/* XPM */
static char * Address_Book[]={
"32 32 10 1",
/* colors */
"   c  #ffffcc",
".  c  #444444",
"X  c  #ff0000",
"o  c  #000000",
"O  c  #ffffff",
"+  c  #0033ff",
"@  c  #bbbbbb",
"#  c  #aaaaaa",
"$  c  #888888",
"%  c  None",
/* pixels */
"%%%%ooooooooooooooooooooo%%%%%%%",
"%%%%o@@@@@@@@@@@@@@@@@@@o.%%%%%%",
"%%%%o@    XXXXXXXXXXXX @o.%%%%%%",
"%%ooooo   XXXOOOOOXXXX @o.o%%%%%",
"%oOOOO#o  XXOOXXXOOXXX @o.o%%%%%",
"o#Oooo##o XXXXXXOOOXXX @o.o%%%%%",
"o#ooo@o#o XXXOOOXOOXXX @o.o%%%%%",
"ooo$o@ooo XXOOXXXOOXXX @o.o%%%%%",
"%%o$o@    XXOOOXXOOXXX @o.o%%%%%",
"%%o$o@    XXXOOOOXOOXX @o.o%%%%%",
"%%o$o@    XXXXXXXXXXXX @o.o%%%%%",
"%%ooooo                @o.o%%%%%",
"%oOOO##o               @o.o%%%%%",
"o#Oooo##o              @o.o%%%%%",
"o#o$o@o#o ++++++++++++ @o.o%%%%%",
"ooo$o@ooo              @o.o%%%%%",
"%%o$o@                 @o.o%%%%%",
"%%o$o@                 @o.o%%%%%",
"%%o$o@    ++++++++++++ @o.o%%%%%",
"%%ooooo                @o.o%%%%%",
"%oOOO##o               @o.o%%%%%",
"o#Oooo##o              @o.o%%%%%",
"o#o$o@o#o ++++++++++++ @o.o%%%%%",
"ooo$o@ooo              @o.o%%%%%",
"%%o$o@                 @o.o%%%%%",
"%%o$o@@@@@@@@@@@@@@@@@@@o.o%%%%%",
"%%ooooooooooooooooooooooo.o%%%%%",
"%%%%%.....................o%%%%%",
"%%%%%oooooooooooooooooooooo%%%%%",
"%%%%%%%%%%%%%%%%%%%%%%%%%%%%%%%%",
"%%%%%%%%%%%%%%%%%%%%%%%%%%%%%%%%",
"%%%%%%%%%%%%%%%%%%%%%%%%%%%%%%%%"}
