/* XPM */
static char * Send_Now[]={
"32 32 7 1",
/* colors */
"   c  #0066ff",
".  c  #777777",
"X  c  #000000",
"o  c  #008800",
"O  c  #ffffff",
"+  c  #bbbbbb",
"@  c  None",
/* pixels */
"@@@@@@@@@@@@@@@@@@@@X@@@@@@@@@@@",
"@@@@@@@@@@@@@@@@@@@X+X@@@@@@@@@@",
"@@@XXXXXXXXXX@@@@@X+O+X@@@@@@@@@",
"@@@X.........X@@@X+OoO+X@@@@@@@@",
"XXXXXXXXXXX...X@X+OoooO+X@@@@@@@",
"X++++++++++X...X+OoooooO+X@@@@@@",
"@X+OOOOOOOO+X.X+OOOoooOOO+X@@@@@",
"@@XXXXXXOOOO+X+OOOOOoOOOOO+X@@@@",
"@@@@X+++OOOOO+XOOOOOOOOOOOO+X@@@",
"@@@@X+OOOOOOOO+XOOOOOOOOOOOO+X@@",
"@@@@@XXXXXXOOOO+XOOOOOOOOOOOO+X@",
"@@@@@X+++++OOOOO+XOOOOOOOOOOOO+X",
"@@@@@@X+OOOOOOOOOOOOOOOOOOOOO+X@",
"@@@@@@@XXXXXOOOOOO OOOOOOOOO+XX@",
"@@@@@@X+++++OOOOO OOOOOOOOO+XX@@",
"@@@@@X+OOOOOOOOO OO OOOOOO+XX@@@",
"@@@@X+OOOOOOOOO OO OOOOOO+XX@@@@",
"@@@X+O OOOOOOO OO OOOOOO+XX@@@@@",
"@@X+O OOOOOOO OO OO OOO+XX@@@@@@",
"@X+O OOO OOOOOO OO OOO+XX@@@@@@@",
"@@X+OOO OOOOOOOOO OOO+XX@@@@@@@@",
"@@XX+O OOOOOOOOOOOOO+XX@@@@@@@@@",
"@@@XX+OOOOOOOOOOOOO+XX@@@@@@@@@@",
"@@@@XX+OOOOOOOOOOO+XX@@@@@@@@@@@",
"@@@@@XX+OOOOOOOOO+XX@@@@@@@@@@@@",
"@@@@@@XX+OOOOOOO+XX@@@@@@@@@@@@@",
"@@@@@@@XX+OOOOO+XX@@@@@@@@@@@@@@",
"@@@@@@@@XX+OOO+XX@@@@@@@@@@@@@@@",
"@@@@@@@@@XX+O+XX@@@@@@@@@@@@@@@@",
"@@@@@@@@@@XX+XX@@@@@@@@@@@@@@@@@",
"@@@@@@@@@@@XXX@@@@@@@@@@@@@@@@@@",
"@@@@@@@@@@@@X@@@@@@@@@@@@@@@@@@@"}
