/* XPM */
static char * Download[]={
"32 32 3 1",
/* colors */
"   c  #000000",
".  c  #ffffff",
"X  c  None",
/* pixels */
"                               X",
"                               X",
"                               X",
"                               X",
"                               X",
"                               X",
"                               X",
"                               X",
"                               X",
"                               X",
"                               X",
"                               X",
"                               X",
"                               X",
"                               X",
"                               X",
"                               X",
"                               X",
"                               X",
"                               X",
"                               X",
"                               X",
"         XXXXXXXXXXXXX         X",
"         XX         XX         X",
"         XXXXXXXXXXXXX         X",
"         XX         XX         X",
"XXXX     XXXXXXXXXXXXX     XXXXX",
"XXXX     XX         XX     XXXXX",
"XXXX     XXXXXXXXXXXXX     XXXXX",
"XXXX                       XXXXX",
"XXXXX                     XXXXXX",
"XXXXXXXXXXXXXXXXXXXXXXXXXXXXXXXX"}
