/* XPM */
static char * Download[]={
"32 32 22 1",
/* colors */
"   c  #0033cc",
".  c  #ffffff",
"X  c  #000088",
"o  c  #dddddd",
"O  c  #cccccc",
"+  c  #bbbbbb",
"@  c  #aaaaaa",
"#  c  #999999",
"$  c  #888888",
"%  c  #003399",
"&  c  #777777",
"*  c  #666666",
"=  c  #555555",
"-  c  #444444",
";  c  #0066ff",
":  c  #000000",
">  c  #000077",
",  c  #0066cc",
"<  c  #000099",
"1  c  #aa0000",
"2  c  #0099ff",
"3  c  None",
/* pixels */
"-------------------------------3",
"-ooooooooooooooooooooooooooooo-3",
"-oooooOoooooooooooOooooooooOoo-3",
"-OoOOoOoooooooooOooOoOooOOoooo-3",
"-oOOOooOoOOOoooo+oOo++ooOooooo-3",
"-+OOO+ooo+o+Oo+++ooO+oOooOO+oO-3",
"-+o++++++O++++OOOOOoo+O++O++oO-3",
"-++O@+2+@+O2O+O+2++++2++2O+@++-3",
"-++@@@+@2+++++2++O2@++@O++@+++-3",
"-+@#++@@++@#@++@#++++#2+2#+@++-3",
"-+@++#2+2#2+@@2+@@#2@@2@+2##+@-3",
"-+@##2+#2+2#22#+#2@2@2#2@2#+@#-3",
"-#$#,222222222222222222222,@##-3",
"-$##,2222222;2222222;22222,#@#-3",
"-&&&,22;2;2222222;2222;222,###-3",
"-&&$,2222222;22;222;;,2,;2,&&$-3",
"-&$&,22;2,;22;;;;2;;22;2,2,&#&-3",
"-*&* ,2;,;;;,;;,2,22,,,;,2,&*&-3",
"-**& ,,,,2,;,,,;,,,;,,,,,, &&*-3",
"-&&* ,,,,,,,,,,,,,,,,, ,,, *&=-3",
"-**= ,,, ,   , ,,  ,,,,,,, &*--3",
"-*=-  ,,, ,,,   ,, , ,,,,, -**-3",
"---=>  ,%3333333333333, ,  --*-3",
"---->%,  33:::::::::33%% %>=-=-3",
"---->%%%%3333333333333 % %>----3",
"----><%%<33:::::::::33 %  >----3",
"3333>%%%%3333333333333%%%<>33333",
"3333><<<<33:::::::::33X<<<>33333",
"3333><%%X3333333333333<<<<>33333",
"3333>X<<X1111111111111XXXX>33333",
"33333>>>>1111111111111>>>>333333",
"33333333333333333333333333333333"}
