/* XPM */
static char * Forward[]={
"32 32 3 1",
/* colors */
"   c  #000000",
".  c  #ffffff",
"X  c  None",
/* pixels */
"XXXXXXXXXXXXXXXX XXXXXXXXXXXXXXX",
"XXXXXXXXXXXXXXX   XXXXXXXXXXXXXX",
"XXXXXXXXXXXXXX     XXXXXXXXXXXXX",
"XXXXXXXXXXXXX       XXXXXXXXXXXX",
"XXXXXXXXXXXX         XXXXXXXXXXX",
"XXXXXXXXXXX           XXXXXXXXXX",
"XXXXXXXXXX             XXXXXXXXX",
"XXXXXXXXX               XXXXXXXX",
"XXXXXXXX                 XXXXXXX",
"XXXXXXX                   XXXXXX",
"XXXXXX                     XXXXX",
"XXXXX                       XXXX",
"XXXX                         XXX",
"XXXXX                         XX",
"XXXXXX                         X",
"XXXXXXX                         ",
"XXXXXXXX                       X",
"XXXXXXXXX                     XX",
"XXXXXXXXXX                   XXX",
"XXXXXXXXX                   XXXX",
"XXXXXXXX                   XXXXX",
"XXXXXXX                   XXXXXX",
"XXXXXX                   XXXXXXX",
"XXX X                   XXXXXXXX",
"XX                     XXXXXXXXX",
"X                     XXXXXXXXXX",
"                 X   XXXXXXXXXXX",
"                XXX XXXXXXXXXXXX",
"               XXXXXXXXXXXXXXXXX",
"              XXXXXXXXXXXXXXXXXX",
"             XXXXXXXXXXXXXXXXXXX",
"            XXXXXXXXXXXXXXXXXXXX"}
