/* XPM */
static char * Forward[]={
"32 32 7 1",
/* colors */
"   c  #0000bb",
".  c  #000000",
"X  c  #ffffff",
"o  c  #3300ff",
"O  c  #bbbbbb",
"+  c  #ffcccc",
"@  c  None",
/* pixels */
"@@@@@@@@@@@@@@@@.@@@@@@@@@@@@@@@",
"@@@@@@@@@@@@@@@.X.@@@@@@@@@@@@@@",
"@@@@@@@@@@@@@@.XXX.@@@@@@@@@@@@@",
"@@@@@@@@@@@@@.XXXXX.@@@@@@@@@@@@",
"@@@@@@@@@@@@.XXXXXXX.@@@@@@@@@@@",
"@@@@@@@@@@@.XXXXXXXXX.@@@@@@@@@@",
"@@@@@@@@@@.XXXXXXXXXXX.@@@@@@@@@",
"@@@@@@@@@.XXXXXXXX XXXX.@@@@@@@@",
"@@@@@@@@.XXXXXXXX XXXXXX.@@@@@@@",
"@@@@@@@.XXXXXXXX XX XXXXX.@@@@@@",
"@@@@@@.XXXXXXXX XX XXXXXXX.@@@@@",
"@@@@@.XXXX XXX XX XX XXXXXX.@@@@",
"@@@@.OXXX XXX XX XX XX XXXXX.@@@",
"@@@@@.OX XXX XXXXX XX XXXXXXX.@@",
"@@@@@@.OXXX XX..XXXX XXXXXXXXX.@",
"@@@@@@@.OX XX.++.XX XX XXXXXXXO.",
"@@@@@@@@.OXX.+++.X XX XXX XXXO.@",
"@@@@@@@@@.O.+++.O XX XXX XXXO.@@",
"@@@@@@@@@@.+++.OOXX XXX XXXO.@@@",
"@@@@@@@@@.+++.OOXX XXX XXXO.@@@@",
"@@@@@@@@.++X+.OOX XXXXXXXO.@@@@@",
"@@@@@@@.++X++.OO XXXXXXXO.@@@@@@",
"@@@@@@.++X+++..OXXXXXXXO.@@@@@@@",
"@@@ @.X.++++.++.OXXXXXO.@@@@@@@@",
"@@   XXX.+++++++.OXXXO.@@@@@@@@@",
"@     XXX.+++++++.OXO.@@@@@@@@@@",
"    oo XXX.+++++.@.O.@@@@@@@@@@@",
"   oooo XXX.+++.@@@.@@@@@@@@@@@@",
"  oooo   XXX.+.@@@@@@@@@@@@@@@@@",
" oooo     XXX.@@@@@@@@@@@@@@@@@@",
"oooo       X.@@@@@@@@@@@@@@@@@@@",
"ooo         @@@@@@@@@@@@@@@@@@@@"}
