/* XPM */
static char * Detach_file[]={
"32 32 3 1",
/* colors */
"   c  #000000",
".  c  #ffffff",
"X  c  None",
/* pixels */
"XXXXXX      XXXXXXXXXXXXXXXXXXXX",
"XXXXX        XXXXXXXXXXXXXXXXXXX",
"XXXX          XXXXXXXXXXXXXXXXXX",
"XXX           XXXXXXXXXXXXXXXXXX",
"XXX            XXXXXXXXXXXXXXXXX",
"                            XXXX",
"                            XXXX",
"                            XXXX",
"                            XXXX",
"                            XXXX",
"                            XXXX",
"                            XXXX",
"                            XXXX",
"                            XXXX",
"                            XXXX",
"                            XXXX",
"                            XXXX",
"                            XXXX",
"                            XXXX",
"                            XXXX",
"                            XXXX",
"                            XXXX",
"                            XXXX",
"                             XXX",
"                              XX",
"                              XX",
"                              XX",
"                              XX",
"                              XX",
"                              XX",
"                              XX",
"                              XX"}
