/* XPM */
static char * America_Online[]={
"32 32 3 1",
/* colors */
"   c  #000000",
".  c  #ffffff",
"X  c  None",
/* pixels */
"XXXXXXXXXXXXXXXX XXXXXXXXXXXXXXX",
"XXXXXXXXXXXXXXX   XXXXXXXXXXXXXX",
"XXXXXXXXXXXXXXX   XXXXXXXXXXXXXX",
"XXXXXXXXXXXXXX     XXXXXXXXXXXXX",
"XXXXXXXXXXXXXX     XXXXXXXXXXXXX",
"XXXXXXXXXXXXX       XXXXXXXXXXXX",
"XXXXXXXXXXXXX       XXXXXXXXXXXX",
"XXXXXXXXXXXX         XXXXXXXXXXX",
"XXXXXXXXXXXX   ..... XXXXXXXXXXX",
"XXXXXXXXXXX  ........ XXXXXXXXXX",
"XXXXXXXXXXX ..........XXXXXXXXXX",
"XXXXXXXXXX ............XXXXXXXXX",
"XXXXXXXXXX ..      ....XXXXXXXXX",
"XXXXXXXXX ..        ....XXXXXXXX",
"XXXXXXXXX .  .       ...XXXXXXXX",
"XXXXXXXX .  .         ...XXXXXXX",
"XXXXXXXX   ..         ...XXXXXXX",
"XXXXXXX   ..          ... XXXXXX",
"XXXXXXX  ...          ... XXXXXX",
"XXXXXX   ...          ...  XXXXX",
"XXXXXX   ...          ...  XXXXX",
"XXXXX    ...          ..    XXXX",
"XXXXX    ....         ..    XXXX",
"XXXX     ....        ..  .   XXX",
"XXXX     .....       .  .    XXX",
"XXX       .....     .  ..     XX",
"XXX       ......      ..      XX",
"XX         ............        X",
"XX          ..........         X",
"X             ......            ",
"X                               ",
"XXXXXXXXXXXXXXXXXXXXXXXXXXXXXXXX"}
