/* XPM */
static char * America_Online[]={
"32 32 5 1",
/* colors */
"   c  #996600",
".  c  #ffffff",
"X  c  #cc9900",
"o  c  #663300",
"O  c  None",
/* pixels */
"OOOOOOOOOOOOOOOOXOOOOOOOOOOOOOOO",
"OOOOOOOOOOOOOOOXXXOOOOOOOOOOOOOO",
"OOOOOOOOOOOOOOOXXXOOOOOOOOOOOOOO",
"OOOOOOOOOOOOOOXXXXXOOOOOOOOOOOOO",
"OOOOOOOOOOOOOOXXXX OOOOOOOOOOOOO",
"OOOOOOOOOOOOOXXXXXXXOOOOOOOOOOOO",
"OOOOOOOOOOOOO  X XXXOOOOOOOOOOOO",
"OOOOOOOOOOOO X XXX XXOOOOOOOOOOO",
"OOOOOOOOOOOOXX ..... OOOOOOOOOOO",
"OOOOOOOOOOO X........XOOOOOOOOOO",
"OOOOOOOOOOO ..........OOOOOOOOOO",
"OOOOOOOOOO ............OOOOOOOOO",
"OOOOOOOOOO ..  X X ....OOOOOOOOO",
"OOOOOOOOOX..X  XX   ....OOOOOOOO",
"OOOOOOOOO .XX.       ...OOOOOOOO",
"OOOOOOOO .  .XX XoX   ...OOOOOOO",
"OOOOOOOO   ..  X o    ...OOOOOOO",
"OOOOOOO X ..     o oX ... OOOOOO",
"OOOOOOO  ...o o     o ... OOOOOO",
"OOOOOOoo ... o    o   ... oOOOOO",
"OOOOOOoo ...   oo o o ...  OOOOO",
"OOOOO  oo...   oo     ..o   OOOO",
"OOOOOo  o....       o ..o   OOOO",
"OOOOoooo .... oo   oo..o .o oOOO",
"OOOOoo o .....o o ooo. o.ooooOOO",
"OOOoo  o  ..... o oo.oo.. o  oOO",
"OOOoo   oo......oo o  .. oooo OO",
"OO o o  ooo............oooo oooO",
"OO o oo o oo.......... oo o oo O",
"Oo o ooooo   o......ooooo o oo o",
"Oooo ooo ooooo oo oo o ooooooooo",
"OOOOOOOOOOOOOOOOOOOOOOOOOOOOOOOO"}
