/* XPM */
static char * Message_Board[]={
"32 32 3 1",
/* colors */
"   c  #000000",
".  c  #ffffff",
"X  c  None",
/* pixels */
"XXXXXXXX  XXXXXXXXXXXXXXXXXXXXXX",
"XXXXXXX    XXXXXXXXXXXXXXXXXXXXX",
"XXXXXX     XXXXXXXXXXXXXXXXXXXXX",
"XXXXX       XXXXXXXXXXXXXXXXXXXX",
"XXXX    XX   XXXXXXXXXXXXXXXXXXX",
"XXX   XXXXX   XXXXXXXXXXXXXXXXXX",
"XXXX    XXXX   XXXXXXXXXXXXXXXXX",
"XXXXXX   XXXX   XXXXXXXXXXXXXXXX",
"XXXXXXX   XXXX    XXXXXXXXXXXXXX",
"XXXXXXXX   XXXX    XXXXXXXXXXXXX",
"XXXXXXXXX   XX     XXXXXXXXXXXXX",
"XXXXXXXXXX        XXXXXXXXXXXXXX",
"XXXXXXXXXXX      XXXXXXXXXXXXXXX",
"XXXXXXXXXXX      XXXXXXXXXXXXXXX",
"                                ",
"                                ",
"                                ",
"                                ",
"                                ",
"                                ",
"                                ",
"                                ",
"                                ",
"                               X",
"                              XX",
"                             XXX",
"                            XXXX",
"                           XXXXX",
"X                   X      XXXXX",
"X                  XXXXXXXXXXXXX",
"XX    XXXXX       XXXXXXXXXXXXXX",
"XXXXXXXXXXXX     XXXXXXXXXXXXXXX"}
