/* XPM */
static char * Message_Board[]={
"32 32 10 1",
/* colors */
"   c  #555555",
".  c  #996600",
"X  c  #000000",
"o  c  #000088",
"O  c  #ffffff",
"+  c  #ffff99",
"@  c  #dddddd",
"#  c  #aaaaaa",
"$  c  #888888",
"%  c  None",
/* pixels */
"%%%%%%%%XX%%%%%%%%%%%%%%%%%%%%%%",
"%%%%%%%X  X%%%%%%%%%%%%%%%%%%%%%",
"%%%%%%X @ X%%%%%%%%%%%%%%%%%%%%%",
"%%%%%X @ # X%%%%%%%%%%%%%%%%%%%%",
"%%%%X @ %%# X%%%%%%%%%%%%%%%%%%%",
"%%%X @%%%%%# X%%%%%%%%%%%%%%%%%%",
"%%%%XX #%%%%# X%%%%%%%%%%%%%%%%%",
"%%%%%%X #%%%%# X%%%%%%%%%%%%%%%%",
"%%%%%%%X #%%%%# XX%%%%%%%%%%%%%%",
"%%%%%%%%X #%%%%   X%%%%%%%%%%%%%",
"%%%%%%%%%X #%% ## X%%%%%%%%%%%%%",
"%%%%%%%%%%X @ @# X%%%%%%%%%%%%%%",
"%%%%%%%%%%%X#@# X%%%%%%%%%%%%%%%",
"%%%%%%%%%%%X## XX%%%%%%%%%%%%%%%",
"...........X  X++X..............",
".+++++++++++XX++++X++++++++++++.",
".++++++++++++++++++X+++++++++++.",
".+++++++++++++++++++X++++++++++.",
".++++++++++++++++++++++++++++++.",
".++++++oo+oo++oo+oo+++o++++++++.",
".+++++ooooooo+oooooo+oooo++++++.",
".+++++++o++++++++o+++++o+++++++.",
".+++++++++++++++++++++++++++....",
".+++++X+XXXXXXXXX++XXXXX+++.$$@%",
".+++++++++++++++++++++++++.$$@%%",
".+++++XXXX+XXXX+XX++..+++.$$@%%%",
".++++++++++++++++++.$$...$$@%%%%",
"...+++.....++XX+++.$@$$$$$@%%%%%",
"%$$...$$$$$.+++++.$@%@@@@@@%%%%%",
"%@$$$$@@@@@$.....$@%%%%%%%%%%%%%",
"%%@@@@%%%%%@$$$$$@%%%%%%%%%%%%%%",
"%%%%%%%%%%%%@@@@@%%%%%%%%%%%%%%%"}
