/* XPM */
static char * Quiz[]={
"32 32 9 1",
/* colors */
"   c  #cc0000",
".  c  #ffffcc",
"X  c  #000000",
"o  c  #996600",
"O  c  #ffffff",
"+  c  #ffff99",
"@  c  #110000",
"#  c  #888888",
"$  c  None",
/* pixels */
"ooooooooooooooooooooooooooooooo$",
"o+++++++++++++++++++++++++++++o#",
"o+...........................+o#",
"o+...X..............@@@@@@@@.+o#",
"o+...X..............@......@.+o#",
"o+..X$X.............@. .. .@.+o#",
"o+..X.X...XXX.XX....@..  ..@.+o#",
"o+.XXXXX............@..  ..@.+o#",
"o+.X...X..XXXXX.X...@. .. .@.+o#",
"o+.X...X............@......@.+o#",
"o+..................@@@@@@@@.+o#",
"o+...........................+o#",
"o+.XXXX.............@@@@@@@@.+o#",
"o+.X...X............@......@.+o#",
"o+.X...X..XX.XXXXXX.@......@.+o#",
"o+.XXXX.............@......@.+o#",
"o+.X...X..XXXXX.X...@......@.+o#",
"o+.X...X............@......@.+o#",
"o+.XXXX.............@......@.+o#",
"o+..................@@@@@@@@.+o#",
"o+...........................+o#",
"o+...XX.............@@@@@@@@.+o#",
"o+..X..X............@......@.+o#",
"o+.X......XXXXX.X...@......@.+o#",
"o+.X................@......@.+o#",
"o+.X......XX.XXXXXX.@......@.+o#",
"o+..X..X............@......@.+o#",
"o+...XX.............@......@.+o#",
"o+..................@@@@@@@@.+o#",
"o+++++++++++++++++++++++++++++o#",
"ooooooooooooooooooooooooooooooo#",
"$###############################"}
