/* XPM */
static char * Software_Library[]={
"32 32 17 1",
/* colors */
"   c  #ffffff",
".  c  #000088",
"X  c  #bbbbbb",
"o  c  #ff9900",
"O  c  #aaaaaa",
"+  c  #888888",
"@  c  #777777",
"#  c  #444444",
"$  c  #996600",
"%  c  #222222",
"&  c  #000000",
"*  c  #ff6600",
"=  c  #0000ee",
"-  c  #ffcc00",
";  c  #0000bb",
":  c  #0099ff",
">  c  None",
/* pixels */
">:::@*****************@::::>>>>>",
":...#$$$$$$$$$$$$$$$$$#....&>>>>",
":..:::+ooooooooooooooooo+::::>>>",
":.:;;;#*****************#;;;;%>>",
":.:;;:::O-----------------O::::>",
":.:;:===#ooooooooooooooooo#====#",
":.:;:===#ooooooooooooooooo#====#",
":.:;:===#>>>>>>>>>>>>>>>>>#=&&=#",
":.:;:===#>&&&&&&&&&&&&&&&>#=&&=#",
":.:;:===#>>>>>>>>>>>>>>>>>#====#",
":.:;:===#>&&&&&&&&&&&&&&&>#====#",
":.:;:===#>>>>>>>>>>>>>>>>>#====#",
":.:;:===#>&&&&&&&&&&&&&&&>#====#",
":.:;:===#>>>>>>>>>>>>>>>>>#====#",
":.:;:===#>>>>>>>>>>>>>>>>>#====#",
":.:;:====#################=====#",
":.:;:==========================#",
":.:;:==========================#",
":.:;:==========================#",
":.:;:==========================#",
":.:;:==========================#",
":.:;:==========================#",
":.:;:==========================#",
":.:;:========##########========#",
":.:;:=======#XXXXXXXXXX#=======#",
">::;:=======#X####XXXXX#=======#",
">>:;:=======#X#==#XXXXX#=======#",
">>>::=======#X#==#XXXXX#=======#",
">>>>:=======#X####XXXXX#=======#",
">>>>>##########################>",
">>>>>>>>>>>>>>>>>>>>>>>>>>>>>>>>",
">>>>>>>>>>>>>>>>>>>>>>>>>>>>>>>>"}
