/* XPM */
static char * No_mail[]={
"32 32 3 1",
/* colors */
"   c  #000000",
".  c  #ffffff",
"X  c  None",
/* pixels */
"XXXX X X X X X X X X X X X XXXXX",
"XXXXX.....................XXXXXX",
"XXXX ..................... XXXXX",
"XXXXX.....................XXXXXX",
"XXXX ..................... XXXXX",
"XXXXX.....................XXXXXX",
"XXXX ..................... XXXXX",
"XXXXX.....................XXXXXX",
"XXXX ...................... XXXX",
"XXX X....................... XXX",
"XX . ...................... . XX",
"X . ........................ . X",
" . . . . .............. . . . . ",
"X........ ............ ........X",
" ......... .......... ......... ",
"X.......... ........ ..........X",
" ........... . . . . .......... ",
"X......... .......... .........X",
" ........ ............ ........ ",
"X....... .............. .......X",
" ...... ................ ...... ",
"X..... .................. .....X",
" .... .................... .... ",
"X... ...................... ...X",
" .. ........................ .. ",
"X. .......................... .X",
" .............................. ",
"X X X X X X X X X X X X X X X XX",
"XXXXXXXXXXXXXXXXXXXXXXXXXXXXXXXX",
"XXXXXXXXXXXXXXXXXXXXXXXXXXXXXXXX",
"XXXXXXXXXXXXXXXXXXXXXXXXXXXXXXXX",
"XXXXXXXXXXXXXXXXXXXXXXXXXXXXXXXX"}
