/* XPM */
static char * You_have_mail[]={
"32 32 6 1",
/* colors */
"   c  #000000",
".  c  #0000ff",
"X  c  #ffffff",
"o  c  #dddddd",
"O  c  #aaaaaa",
"+  c  None",
/* pixels */
"+++++                      +++++",
"+++++ oooooooooooooooooooo +++++",
"+++++ oX.....XXXXXXXXXXXXo +++++",
"+++++ oXXXXXXXXXXXXXXXXXXo +++++",
"+++++ oX.....XXXXXXXXXXXXo +++++",
"+++++ oXXXXXXXXXXXXXXXXXXo +++++",
"+++++ oXXXXXXXXXXXXXXXXXXo +++++",
"+++++ oX....XXXXXXXXXXXXXo +++++",
"+++++ oXXXXXXXXXXXXXXXXXXo +++++",
"++++  oX..X.......X.....Xo  ++++",
"++    oXXXXXXXXXXXXXXXXXXo    ++",
"+     oX....X..X.......XXo     +",
"         XXXXXXXXXXXXXX         ",
" Oooooooo XXXXXXXXXXXX oooooooO ",
" Ooooooooo XXXXXXXXXX ooooooooO ",
" Oooooooooo XXXXXXXX oooooooooO ",
" OooooooooO          OooooooooO ",
" OoooooooO OOOOOOOOOO OoooooooO ",
" OooooooO OooooooooooO OooooooO ",
" OoooooO OooooooooooooO OoooooO ",
" OooooO OooooooooooooooO OooooO ",
" OoooO OooooooooooooooooO OoooO ",
" OooO OooooooooooooooooooO OooO ",
" OoO OooooooooooooooooooooO OoO ",
" OO OooooooooooooooooooooooO OO ",
" O OooooooooooooooooooooooooO O ",
"  OOOOOOOOOOOOOOOOOOOOOOOOOOOO  ",
"                                ",
"++++++++++++++++++++++++++++++++",
"++++++++++++++++++++++++++++++++",
"++++++++++++++++++++++++++++++++",
"++++++++++++++++++++++++++++++++"}
