/* XPM */
static char * AOL_Text[]={
"16 16 5 1",
/* colors */
"   c  #777777",
".  c  #444444",
"X  c  #000000",
"o  c  #ffffff",
"O  c  None",
/* pixels */
"OO.........OOOOO",
"OO.ooooooo..OOOO",
"OO.oXXXXXXXXXXOO",
"OO.oXooooooooXOO",
"OO.oXooXXXXooXOO",
"OO.oXooooooooXOO",
"OO.oXoXXXXXXoXOO",
"OO.oXooooooooXOO",
"OO.oXoXXXXXXoXOO",
"OO.oXooooooooXOO",
"OO.oXoXXXXXXoXOO",
"OO.oXooooooooXOO",
"OO. XoXXXXXXoXOO",
"OO.oXooooooooXOO",
"OO.oXXXXXXXXXXOO",
"OO............OO"}
