/* XPM */
static char * Partial_Download[]={
"16 16 6 1",
/* colors */
"   c  #777777",
".  c  #444444",
"X  c  #ffffff",
"o  c  #dddddd",
"O  c  #bbbbbb",
"+  c  None",
/* pixels */
"++.X.X.X.X.+++++",
"++XXXXXXXXXX++++",
"++.XXXXXXXXX.+++",
"++XXXXXXXXXXXX++",
"++....XXXXXXX.++",
"++.Xo.....XXXX++",
"++.Xoo   .....++",
"++.Xoo    ooO.++",
"++.Xo      oO.++",
"++.Xo      oO.++",
"++.X        O.++",
"++.X        O.++",
"++.          .++",
"++.XooooooooO.++",
"++.XOOOOOOOOO.++",
"++............++"}
