/* XPM */
static char * AOL_Support_Files[]={
"16 16 6 1",
/* colors */
"   c  #777777",
".  c  #444444",
"X  c  #ffffff",
"o  c  #dddddd",
"O  c  #bbbbbb",
"+  c  None",
/* pixels */
"++.........+++++",
"++.XXXXXXX..++++",
"++.XXooooo.X.+++",
"++.Xoooooo....++",
"++.Xooo  ooOO.++",
"++.Xooo  oooO.++",
"++.Xoo    ooO.++",
"++.Xoo    ooO.++",
"++.Xo      oO.++",
"++.Xo      oO.++",
"++.X        O.++",
"++.X        O.++",
"++.          .++",
"++.XooooooooO.++",
"++.XOOOOOOOOO.++",
"++............++"}
