/* XPM */
static char * AOL_Tools[]={
"16 16 9 1",
/* colors */
"   c  #777777",
".  c  #444444",
"X  c  #ccccff",
"o  c  #000000",
"O  c  #ffffff",
"+  c  #cc9966",
"@  c  #dddddd",
"#  c  #bbbbbb",
"$  c  None",
/* pixels */
".........$$$$$$$",
".OOOOOOO..$$$$$$",
".OO@@@@@.O.$$$$$",
".O@@@@@@....$$$$",
".O@@@oooooooo$o$",
".O@@oXXXXXXXXoXo",
".O@oXXXXXXXXXXXo",
".OoXXoooXXXXXoXo",
".OoXoooooooooooo",
".ooooo  o++o$$$$",
".O      o++o$$$$",
".O      o++o$$$$",
".       o++o$$$$",
".O@@@@@@o++o$$$$",
".O#####oo++o$$$$",
".......ooooo$$$$"}
