/* XPM */
static char * AOL_Mailbox[]={
"16 16 11 1",
/* colors */
"   c  #777777",
".  c  #444444",
"X  c  #ccccff",
"o  c  #000000",
"O  c  #dd0000",
"+  c  #ffffff",
"@  c  #dddddd",
"#  c  #bbbbbb",
"$  c  #9999ff",
"%  c  #6666cc",
"&  c  None",
/* pixels */
"&.........&&&&&&",
"&.+++++++..&&&&&",
"&.++@@@@@oooo+&&",
"&.+@@@@@@oOOo+&&",
"&.+@@@  @oOOo+&&",
"&.+@@@  @oooo+&&",
"&.+@@    o@.+&&&",
"&.+@@oooooooo&&&",
"&.+@oXXo$o%%%o&&",
"&.+oXXXXo.%%%%o&",
"&.+oXXXXo%%%%%o&",
"&.+oXXXXo%%%%%o&",
"&. o$$$$o%%%%%o&",
"&.+oooooooooooo&",
"&.+#####oooo.&&&",
"&.......o..o.&&&"}
