/* XPM */
static char * Locality[]={
"16 16 9 1",
/* colors */
"   c  #777777",
".  c  #444444",
"X  c  #0099ff",
"o  c  #000000",
"O  c  #ffffff",
"+  c  #cc9966",
"@  c  #dddddd",
"#  c  #bbbbbb",
"$  c  None",
/* pixels */
".........$$$$$$$",
".OOOOOOO..$$$$$$",
".OO@@@@ooooo$$$$",
".O@@@oo+++++oo$$",
".O@@ooo+++++ooo$",
".O@@oXo+++++oXo$",
".O@oXXXo+ooooXXo",
".O@oXXXoooXXoXXo",
".O@oXXXXoXXXXXXo",
".O@oXXXo+oooXXXo",
".O oXXXo+++oXXXo",
".O  oXXo+++oXXo$",
".   ooXXo+ooXoo$",
".O@@@ooXooXXoo$$",
".O#####ooooo$$$$",
"............$$$$"}
