/* XPM */
static char * AOL_art_files[]={
"16 16 7 1",
/* colors */
"   c  #777777",
".  c  #444444",
"X  c  #000000",
"o  c  #ffffff",
"O  c  #dddddd",
"+  c  #bbbbbb",
"@  c  None",
/* pixels */
"@.........@@@@@@",
"@.ooooooo..@@@@@",
"@.ooOOOOO.o.@@@@",
"@.oOOOOOO....@@@",
"@.oOOO XXXXXXX@@",
"@.oOOO XoooooX@@",
"@.oOO  XooXooX@@",
"@.oOO  XoXXXoX@@",
"@.oO   XoXXXoX@@",
"@.oO   XoXXXoX@@",
"@.o    XooXooX@@",
"@.o    XoXXXoX@@",
"@.     XXXXXXX@@",
"@.oOOOOXXXXXXX@@",
"@.o++++XXXXXXX@@",
"@............@@@"}
