/* XPM */
static char * CCL_file[]={
"16 16 7 1",
/* colors */
"   c  #777777",
".  c  #444444",
"X  c  #000000",
"o  c  #ffffff",
"O  c  #dddddd",
"+  c  #bbbbbb",
"@  c  None",
/* pixels */
".........@@@XX@@",
".ooooooo..@XXXX@",
".ooOOOOO.o XXXXX",
".oOOOOOO.. XXXXX",
".oOOO  OO++ XXXX",
".oOOO  OOO+.@@XX",
".oOO    OO+.@@XX",
".oOO    OO+ @@XX",
".oO  XXXXXX @@XX",
".oO X    O+X@@XX",
".o X      + XXXX",
".oX       +XXXXX",
"XX         XXXXX",
".oOOOOOOOO+XXXX@",
".o+++++++++ XX@@",
"............@@@@"}
