/* XPM */
static char * Send_Now[]={
"16 16 12 1",
/* colors */
"   c  #777777",
".  c  #444444",
"X  c  #000000",
"o  c  #ffcc99",
"O  c  #ffffff",
"+  c  #cc9966",
"@  c  #eeeeee",
"#  c  #dddddd",
"$  c  #bbbbbb",
"%  c  #33ff99",
"&  c  #888888",
"*  c  None",
/* pixels */
"*.........******",
"*.@@@@@@@..*****",
"*.@@#####.O.****",
"*.@######....***",
"*.@###  ###$.***",
"*.@###  ###$.***",
"*.@XXXXXXXXXXXXX",
"XXXXO.&OOOOO&&$X",
"XooXOXXOOOOO.%$X",
"Xo+XXXOOOOOO..$X",
"Xoooo+XX&XXOOO$X",
"X+++++X&XX&OOO$X",
"XXXXXXO...$$$$$X",
"*.@XXXXXXXXXXXXX",
"*.@$&&&&&&&&.***",
"*............***"}
