/* XPM */
static char * icon512[]={
"16 16 10 1",
/* colors */
"   c  #ffff00",
".  c  #000000",
"X  c  #dd0000",
"o  c  #ffffff",
"O  c  #dddddd",
"+  c  #cccccc",
"@  c  #aaaaaa",
"#  c  #663300",
"$  c  #888888",
"%  c  None",
/* pixels */
"%%%%%%%%%XXXX%%%",
"%%%%%%%%%XXXX%%%",
"%%%%%%%%%X%%%%%%",
"%%%%........%%%%",
"%%%..OOOO+++.%%%",
"%%%...++++++@.%%",
"......+++++@$.%%",
".    .@@@@@@$.%%",
"%.   .$$$$$$$.%%",
"%%............%%",
"%%.+..%%%##%%%%%",
"%%...%%%%##%%%%%",
"%%%%%%%%%##%%%%%",
"%%%%%%%%%##%%%%%",
"%%%%%%%%%%%%%%%%",
"%%%%%%%%%%%%%%%%"}
