/* XPM */
static char * icon136[]={
"16 16 3 1",
/* colors */
"   c  #000000",
".  c  #ffffff",
"X  c  None",
/* pixels */
"XXXXXX X XXXXXXX",
"XXXXXX X XXXXXXX",
"XXXXXX X XXXXXXX",
"XXXXXX X XXXXXXX",
"XXXXXX X XXXXXXX",
"XXXXX  X  XXXXXX",
"       X       X",
"XXXXXXXXXXXXXXXX",
"       X       X",
"XXXXX  X  XXXXXX",
"XXXXXX X XXXXXXX",
"XXXXXX X XXXXXXX",
"XXXXXX X XXXXXXX",
"XXXXXX X XXXXXXX",
"XXXXXX X XXXXXXX",
"XXXXXXXXXXXXXXXX"}
