/* XPM */
static char * icon137[]={
"16 16 3 1",
/* colors */
"   c  #000000",
".  c  #ffffff",
"X  c  None",
/* pixels */
"XXXXXXX XXXXXXXX",
"XXXXXX   XXXXXXX",
"XXXXXXX XXXXXXXX",
"XXXXXXX XXXXXXXX",
"XXXXX     XXXXXX",
"XXXX .. .. XXXXX",
"X XX .. .. XX XX",
"               X",
"X XX .. .. XX XX",
"XXXX .. .. XXXXX",
"XXXXX     XXXXXX",
"XXXXXXX XXXXXXXX",
"XXXXXXX XXXXXXXX",
"XXXXXX   XXXXXXX",
"XXXXXXX XXXXXXXX",
"XXXXXXXXXXXXXXXX"}
