/* XPM */
static char * icon138[]={
"16 16 3 1",
/* colors */
"   c  #000000",
".  c  #ffffff",
"X  c  None",
/* pixels */
"XXXXXXX    XXXXX",
"XXXXXXX ... XXXX",
"XXXXXX .... XXXX",
"XXXXXX  .. XXXXX",
"XXXXX ..   XXXXX",
"XXXXX ... XXXXXX",
"XXXX .... XXXXXX",
"XXXX ... XXXXXXX",
"XXX .... XXXXXXX",
"XXX ... XXXXXXXX",
"XXX  .. XXXXXXXX",
"XXX    XXXXXXXXX",
"XXX   XXXXXXXXXX",
"XXX  XXXXXXXXXXX",
"XXX XXXXXXXXXXXX",
"XXXXXXXXXXXXXXXX"}
