/* XPM */
static char * icon160[]={
"16 16 3 1",
/* colors */
"   c  #000000",
".  c  #ffffff",
"X  c  None",
/* pixels */
"XXXXXX   XXXXXXX",
"XXXXX ..  XXXXXX",
"XXXXX ..  XXXXXX",
"XXXXX ..  XXXXXX",
"XXXXX ..  XXXXXX",
"XXXXX ..  XXXXXX",
"X   X ..     XXX",
" ..   .. . .   X",
"X ..  .. . . .  ",
"XX .. ...... .  ",
"XX .. ........  ",
"XXX ..........  ",
"XXXX .........  ",
"XXXX ........  X",
"XXXXX .......  X",
"XXXXX .......  X"}
