/* XPM */
static char * bitmap521[]={
"16 16 3 1",
/* colors */
"   c  #000000",
".  c  #ffffff",
"X  c  None",
/* pixels */
"XXXXXXXXXXXXXXXX",
"XXXXXXXXXXXXXXXX",
"XXXXXXX  XXXXXXX",
"XXXXXX   XXXXXXX",
"XXXXX X  XXXXXXX",
"XXXXXXX  XXXXXXX",
"XXXXXXX  XXXXXXX",
"XXXXXXX  XXXXXXX",
"XXXXXXX  XXXXXXX",
"XXXXXXX  XXXXXXX",
"XXXXXXX  XXXXXXX",
"XXXXXXX  XXXXXXX",
"XXXXXXX  XXXXXXX",
"XXXXX      XXXXX",
"XXXXXXXXXXXXXXXX",
"XXXXXXXXXXXXXXXX"}
