/* XPM */
static char * bitmap522[]={
"16 16 3 1",
/* colors */
"   c  #000000",
".  c  #ffffff",
"X  c  None",
/* pixels */
"XXXXXXXXXXXXXXXX",
"XXXXXXXXXXXXXXXX",
"XXX          XXX",
"XXXXXXXXXXXX XXX",
"XXXXXXXXXXXX XXX",
"XXXXXXXXXXXX XXX",
"XXXXXXXXXXXX XXX",
"XXX          XXX",
"XXX XXXXXXXXXXXX",
"XXX XXXXXXXXXXXX",
"XXX XXXXXXXXXXXX",
"XXX XXXXXXXXXXXX",
"XXX XXXXXXXXXXXX",
"XXX          XXX",
"XXXXXXXXXXXXXXXX",
"XXXXXXXXXXXXXXXX"}
