/* XPM */
static char * icon523[]={
"16 16 6 1",
/* colors */
"   c  #007d2f",
".  c  #000000",
"X  c  #6bc2a2",
"o  c  #ffffff",
"O  c  #009d24",
"+  c  None",
/* pixels */
"++++++++.+++++++",
"+++++++.X.++++++",
"+++++++.XX.+++++",
"++++++. .X.+++++",
"++++++.  .++++++",
"+++++.  .+++++++",
"+++++.  .+++++++",
"++++.  .++++++++",
"++++.. .++++++++",
"++++O..+++++++++",
"++++.O++++++++++",
"++++O+++++++++++",
"++++++++++++++++",
"++++++++++++++++",
"++++++++++++++++",
"++++++++++++++++"}
