/* XPM */
static char * bitmap523[]={
"16 16 3 1",
/* colors */
"   c  #000000",
".  c  #ffffff",
"X  c  None",
/* pixels */
"XXXXXXXX XXXXXXX",
"XXXXXXX . XXXXXX",
"XXXXXXX .. XXXXX",
"XXXXXX . . XXXXX",
"XXXXXX .. XXXXXX",
"XXXXX .. XXXXXXX",
"XXXXX .. XXXXXXX",
"XXXX .. XXXXXXXX",
"XXXX  . XXXXXXXX",
"XXXX   XXXXXXXXX",
"XXXX  XXXXXXXXXX",
"XXXX XXXXXXXXXXX",
"XXXXXXXXXXXXXXXX",
"XXXXXXXXXXXXXXXX",
"XXXXXXXXXXXXXXXX",
"XXXXXXXXXXXXXXXX"}
