/* XPM */
static char * bitmap524[]={
"16 16 3 1",
/* colors */
"   c  #000000",
".  c  #ffffff",
"X  c  None",
/* pixels */
"XXXXXXXXXXXXXXXX",
"XXXXX    XXXXXXX",
"XXXXX    XXXXXXX",
"XXXXX    XXXXXXX",
"XXXX .... XXXXXX",
"XXX ... .. XXXXX",
"XXX ... .. XXXXX",
"XXX ..  .. XXXXX",
"XXX ...... XXXXX",
"XXXX .... XXXXXX",
"XXXXX    XXXXXXX",
"XXXXX    XXXXXXX",
"XXXXX    XXXXXXX",
"XXXXXXXXXXXXXXXX",
"XXXXXXXXXXXXXXXX",
"XXXXXXXXXXXXXXXX"}
