/* XPM */
static char * bitmap525[]={
"16 16 3 1",
/* colors */
"   c  #000000",
".  c  #ffffff",
"X  c  None",
/* pixels */
"XXXXXXXXXXXXXXXX",
"XXXXXXXXXXXXXXXX",
"XXXXXXXXXXXXXXXX",
"XXXX        XXXX",
"XXX  ....... XXX",
"XX .. ....... XX",
"XX .. ....... XX",
"XX .. ....... XX",
"XX .. ....... XX",
"XX            XX",
"XXXXXXXXX  XXXXX",
"XXXXXXXXX  XXXXX",
"XXXXXXXXX  XXXXX",
"XXXXXXXXX  XXXXX",
"XXXXXXXXXXXXXXXX",
"XXXXXXXXXXXXXXXX"}
