/* XPM */
static char * bitmap526[]={
"16 16 3 1",
/* colors */
"   c  #000000",
".  c  #ffffff",
"X  c  None",
/* pixels */
"XXXXXXXX XXXXXXX",
"XXXXXXX  X  XXXX",
"XXXXXX . XXXXXXX",
"XXXXX .. X  XXXX",
"XX   ... XXXXXXX",
"XX ..... X  XXXX",
"XX ..... XXXXXXX",
"XX   ... X  XXXX",
"XXXXX .. XXXXXXX",
"XXXXXX . X  XXXX",
"XXXXXXX  XXXXXXX",
"XXXXXXXX XXXXXXX",
"XXXXXXXXXXXXXXXX",
"XXXXXXXXXXXXXXXX",
"XXXXXXXXXXXXXXXX",
"XXXXXXXXXXXXXXXX"}
