/* XPM */
static char * icon527[]={
"16 16 4 1",
/* colors */
"   c  #000000",
".  c  #dd0000",
"X  c  #ffffff",
"o  c  None",
/* pixels */
"oooooooooooooooo",
"oooooooooooooooo",
"oooooooooooooooo",
"oo   oo   o   oo",
"oo .  o .   . oo",
"o  .    .   . oo",
"o ...   .   . oo",
"o . .    . .  oo",
"  . .    . .  oo",
" .....   ...  oo",
" .   .    .   oo",
" .   .  o .  ooo",
"        o    ooo",
"oooooooooooooooo",
"oooooooooooooooo",
"oooooooooooooooo"}
