/* XPM */
static char * bitmap528[]={
"16 16 3 1",
/* colors */
"   c  #000000",
".  c  #ffffff",
"X  c  None",
/* pixels */
"XXXXXXXXXXXXXXXX",
"XXXXXXXXXXXXXXXX",
"XXXXXXXXXXXXXXXX",
"XX    XXXXX XXXX",
"X  ..        XXX",
"X            XXX",
"X    ...   . XXX",
"X   .   .    XXX",
"X  .   . .   XXX",
"X  .     .   XXX",
"X   .   .    XXX",
"X    ...     XXX",
"X            XXX",
"XXXXXXXXXXXXXXXX",
"XXXXXXXXXXXXXXXX",
"XXXXXXXXXXXXXXXX"}
