/* XPM */
static char * bitmap531[]={
"16 16 3 1",
/* colors */
"   c  #000000",
".  c  #ffffff",
"X  c  None",
/* pixels */
"XXXXXXXXXXXXXXXX",
"XXXXXXXXXXXXXXXX",
"XXXXXXXXXXXXXX X",
"XXXXXXXXXXXXX  X",
"XXXXXXXXXXXX  XX",
"XXXXXXXXXXX  XXX",
"XXXXXXXXXX  XXXX",
"XXXXXXXXX  XXXXX",
"XX XXXXX  XXXXXX",
"XX  XXX  XXXXXXX",
"XXX  X  XXXXXXXX",
"XXXX   XXXXXXXXX",
"XXXXX XXXXXXXXXX",
"XXXXXXXXXXXXXXXX",
"XXXXXXXXXXXXXXXX",
"XXXXXXXXXXXXXXXX"}
