/* XPM */
static char * icon532[]={
"16 16 7 1",
/* colors */
"   c  #006699",
".  c  #000000",
"X  c  #dd0000",
"o  c  #ffffff",
"O  c  #eeeeee",
"+  c  #888888",
"@  c  None",
/* pixels */
"@@@@@@@@@@@@@@@@",
"@@@........@@@@@",
"@@. .oooo. .@X@@",
"@@. .oooo. .XX@@",
"@@. .oooo. XX@@@",
"@@. ......XX@@@@",
"@@.      XX.@@@@",
"@@X     XX .@@@@",
"@@XX OOXXO .@@@@",
"@@.XXOXX O .@@@@",
"@@. XXXO O .@@@@",
"@@@..X++++.@@@@@",
"@@@@@@@@@@@@@@@@",
"@@@@@@@@@@@@@@@@",
"@@@@@@@@@@@@@@@@",
"@@@@@@@@@@@@@@@@"}
