/* XPM */
static char * icon534[]={
"16 16 3 1",
/* colors */
"   c  #dd0000",
".  c  #ffffff",
"X  c  None",
/* pixels */
"XXXXXXXXXXXXXXXX",
"XXXXXXXXXXXXXXXX",
"XXXXXXXXXXXXXXXX",
"XXXXXXXXXXXXXXXX",
"XXXXXXXXX XXXXXX",
"XXXXXXXX  XXXXXX",
"XXX XXX  XXXXXXX",
"XXX  X  XXXXXXXX",
"XXXX   XXXXXXXXX",
"XXXXX XXXXXXXXXX",
"XXXXXXXXXXXXXXXX",
"XXXXXXXXXXXXXXXX",
"XXXXXXXXXXXXXXXX",
"XXXXXXXXXXXXXXXX",
"XXXXXXXXXXXXXXXX",
"XXXXXXXXXXXXXXXX"}
