/* XPM */
static char * icon535[]={
"16 16 6 1",
/* colors */
"   c  #777777",
".  c  #444444",
"X  c  #000000",
"o  c  #ffffff",
"O  c  #cccccc",
"+  c  None",
/* pixels */
"++++++++++++++++",
"++++++++++++++++",
"++++++++++++++++",
"++++++++++++++++",
"++++++++++++++++",
"+++++XXXX+++++++",
"++++X O .X++++++",
"++++XOO .X++++++",
"++++X   .X++++++",
"++++X....X++++++",
"+++++XXXX+++++++",
"++++++++++++++++",
"++++++++++++++++",
"++++++++++++++++",
"++++++++++++++++",
"++++++++++++++++"}
