/* XPM */
static char * icon536[]={
"16 16 9 1",
/* colors */
"   c  #007d2f",
".  c  #000000",
"X  c  #6bc2a2",
"o  c  #ffffff",
"O  c  #dddddd",
"+  c  #aaaaaa",
"@  c  #009d24",
"#  c  #888888",
"$  c  None",
/* pixels */
"$$$$$$$$$XXXX$$$",
"$$$$$$$$$XXXX$$$",
"$$$$$$$$$X$$$$$$",
"$$$$........$$$$",
"$$$..OOOO....$$$",
"$$$.........+.$$",
"...........+#.$$",
".    .++++++#.$$",
"$.   .#######.$$",
"$$............$$",
"$$....$$$@@$$$$$",
"$$...$$$$@@$$$$$",
"$$$$$$$$$@@$$$$$",
"$$$$$$$$$@@$$$$$",
"$$$$$$$$$$$$$$$$",
"$$$$$$$$$$$$$$$$"}
