/* XPM */
static char * bitmap536[]={
"16 16 3 1",
/* colors */
"   c  #000000",
".  c  #ffffff",
"X  c  None",
/* pixels */
"XXXXXXXXX    XXX",
"XXXXXXXXX    XXX",
"XXXXXXXXX XXXXXX",
"XXXX        XXXX",
"XXX  ....... XXX",
"XXX   ....... XX",
"      ....... XX",
" .... ....... XX",
"X ... ....... XX",
"XX            XX",
"XX .  XXX  XXXXX",
"XX   XXXX  XXXXX",
"XXXXXXXXX  XXXXX",
"XXXXXXXXX  XXXXX",
"XXXXXXXXXXXXXXXX",
"XXXXXXXXXXXXXXXX"}
