/* XPM */
static char * bitmap537[]={
"16 16 3 1",
/* colors */
"   c  #000000",
".  c  #ffffff",
"X  c  None",
/* pixels */
"XXX     XXXXXXXX",
"XXX ...  XXXXXXX",
"XXX ... . XXXXXX",
"XXX ...    XXXXX",
"XXX ...... XXXXX",
"XXX .  ... XXXXX",
"XXX .  ... XXXXX",
"XXX .  ... XXXXX",
"XXX .    . XXXXX",
"XXX .    . XXXXX",
"XXX ...... XXXXX",
"XXX        XXXXX",
"XXXXXXXXXXXXXXXX",
"XXXXXXXXXXXXXXXX",
"XXXXXXXXXXXXXXXX",
"XXXXXXXXXXXXXXXX"}
