/* XPM */
static char * icon538[]={
"16 16 6 1",
/* colors */
"   c  #000000",
".  c  #ffcc99",
"X  c  #dd0000",
"o  c  #ffffff",
"O  c  #cc9966",
"+  c  None",
/* pixels */
"++++++++++++++++",
"++++++++++++++++",
"++++X+        ++",
"++X+++ .    O ++",
"+++X++ O oo O ++",
"+++++  O  o O ++",
"++++ . O    O ++",
"XXX+ .OOOOOO. ++",
"++++ .OOOOO   ++",
"++++ . O OOOO ++",
"++X++  O.     ++",
"+X++++ OOO... ++",
"+++X++        ++",
"++++++++++++++++",
"++++++++++++++++",
"++++++++++++++++"}
