/* XPM */
static char * bitmap539[]={
"16 16 3 1",
/* colors */
"   c  #000000",
".  c  #ffffff",
"X  c  None",
/* pixels */
"XXXXXXXXXXXXXXXX",
"XXXXXXXXXXXXXXXX",
"XXXXXXXXXXXXX XX",
"XXXXXXXXXXXX  XX",
"X       XXX  XXX",
" ....... X  XXXX",
" .......   XXXXX",
" . .....  XXXXXX",
" .  ...  XXXXXXX",
" ..  .   XXXXXXX",
" ...   . XXXXXXX",
" .... .. XXXXXXX",
"X       XXXXXXXX",
"XXXXXXXXXXXXXXXX",
"XXXXXXXXXXXXXXXX",
"XXXXXXXXXXXXXXXX"}
