/* XPM */
static char * icon540[]={
"16 16 9 1",
/* colors */
"   c  #ff6633",
".  c  #0000dd",
"X  c  #ffff00",
"o  c  #ff66cc",
"O  c  #dd0000",
"+  c  #ffffff",
"@  c  #00bb00",
"#  c  #330099",
"$  c  None",
/* pixels */
"$$$$$$$$$$$$$$$$",
"$$$$$$@@$$$$$$$$",
"$$$$$$@$$$$$$$$$",
"$$$@@@+@@@$$$$$$",
"$$@@@@@@@@@$$$$$",
"$$XXXXXXX$$$$$$$",
"$$       $$$$$$$",
"$$OOOOOOOOO$$$$$",
"$$ooooooooo$$$$$",
"$$$.......$$$$$$",
"$$$$##$##$$$$$$$",
"$$$$$$$$$$$$$$$$",
"$$$$$$$$$$$$$$$$",
"$$$$$$$$$$$$$$$$",
"$$$$$$$$$$$$$$$$",
"$$$$$$$$$$$$$$$$"}
