/* XPM */
static char * icon543[]={
"16 16 6 1",
/* colors */
"   c  #ff6633",
".  c  #ffff00",
"X  c  #000000",
"o  c  #ffcc33",
"O  c  #ffffff",
"+  c  None",
/* pixels */
"++++++++++++++++",
"++XXX+++++++++++",
"+XoooX++++++++++",
"+XXXXXXXXXXXX+++",
"+X.....oooo X+++",
"+X.oooooooo X+++",
"+X.oooooooo X+++",
"+Xooooooooo X+++",
"+Xooooooooo X+++",
"+X          X+++",
"+XXXXXXXXXXXX+++",
"++++++++++++++++",
"++++++++++++++++",
"++++++++++++++++",
"++++++++++++++++",
"++++++++++++++++"}
