/* XPM */
static char * bitmap543[]={
"16 16 3 1",
/* colors */
"   c  #000000",
".  c  #ffffff",
"X  c  None",
/* pixels */
"XXXXXXXXXXXXXXXX",
"XX   XXXXXXXXXXX",
"X ... XXXXXXXXXX",
"X            XXX",
"X .......... XXX",
"X .......... XXX",
"X .......... XXX",
"X .......... XXX",
"X .......... XXX",
"X .......... XXX",
"X            XXX",
"XXXXXXXXXXXXXXXX",
"XXXXXXXXXXXXXXXX",
"XXXXXXXXXXXXXXXX",
"XXXXXXXXXXXXXXXX",
"XXXXXXXXXXXXXXXX"}
