/* XPM */
static char * bitmap544[]={
"16 16 3 1",
/* colors */
"   c  #000000",
".  c  #ffffff",
"X  c  None",
/* pixels */
"XXXXXXXXXXXXXXXX",
"X      X      XX",
"X .... X .... XX",
"X .. ..  . .. XX",
"X ..... ..... XX",
"X ..... ..... XX",
"X . .     . . XX",
"X . . XXX . . XX",
"X ..  XXX  .. XX",
"X ... XXX ... XX",
"X .. XXXXX .. XX",
"XX  XXXXXXX  XXX",
"XXXXXXXXXXXXXXXX",
"XXXXXXXXXXXXXXXX",
"XXXXXXXXXXXXXXXX",
"XXXXXXXXXXXXXXXX"}
