/* XPM */
static char * bitmap545[]={
"16 16 3 1",
/* colors */
"   c  #000000",
".  c  #ffffff",
"X  c  None",
/* pixels */
"XXXXXXXXXXXXXXXX",
"XXXX      XXXXXX",
"   ........   XX",
"....      ....XX",
"   ........   XX",
"X...      ...XXX",
"X  ........  XXX",
"XX...    ...XXXX",
"X   ......   XXX",
"XX...    ...XXXX",
"XX  ......  XXXX",
"XXXX.    .XXXXXX",
"XXXXXXXXXXXXXXXX",
"XXXXXXXXXXXXXXXX",
"XXXXXXXXXXXXXXXX",
"XXXXXXXXXXXXXXXX"}
