/* XPM */
static char * bitmap548[]={
"16 16 3 1",
/* colors */
"   c  #000000",
".  c  #ffffff",
"X  c  None",
/* pixels */
"XXXXXXXXXXXXXXXX",
"XX   XXX   XXXXX",
"  ...   ...  XXX",
" ..... ..... XXX",
" ..... .....  XX",
" ..... .....  XX",
" ..... .....  XX",
" ..... .....  XX",
" ..   .   ..  XX",
"   ... ...    XX",
" ...     ...  XX",
"    X   X     XX",
"XXXXXXXXXXXXXXXX",
"XXXXXXXXXXXXXXXX",
"XXXXXXXXXXXXXXXX",
"XXXXXXXXXXXXXXXX"}
