/* XPM */
static char * bitmap91[]={
"32 32 3 1",
/* colors */
"   c  #000000",
".  c  #ffffff",
"X  c  None",
/* pixels */
"                                ",
" .............................. ",
" .                            . ",
" . .......................... . ",
" . .                        . . ",
" . . ...................... . . ",
" . . .                    . . . ",
" . . . .................. . . . ",
" . . . .                . . . . ",
" . . . . .............. . . . . ",
" . . . . .            . . . . . ",
" . . . . . .......... . . . . . ",
" . . . . . .        . . . . . . ",
" . . . . . . ...... . . . . . . ",
" . . . . . . .    . . . . . . . ",
" . . . . . . . .. . . . . . . . ",
" . . . . . . . .. . . . . . . . ",
" . . . . . . .    . . . . . . . ",
" . . . . . . ...... . . . . . . ",
" . . . . . .        . . . . . . ",
" . . . . . .......... . . . . . ",
" . . . . .            . . . . . ",
" . . . . .............. . . . . ",
" . . . .                . . . . ",
" . . . .................. . . . ",
" . . .                    . . . ",
" . . ...................... . . ",
" . .                        . . ",
" . .......................... . ",
" .                            . ",
" .............................. ",
"                                "}
