/* XPM */
static char * America_Online[]={
"16 16 3 1",
/* colors */
"   c  #000000",
".  c  #ffffff",
"X  c  None",
/* pixels */
"XXXXXXX XXXXXXXX",
"XXXXXXX  XXXXXXX",
"XXXXXX   XXXXXXX",
"XXXXXX    XXXXXX",
"XXXXX     XXXXXX",
"XXXXX .... XXXXX",
"XXXX .   ..XXXXX",
"XXXX      ..XXXX",
"XXX        .XXXX",
"XXX        . XXX",
"XX  .      . XXX",
"XX  .         XX",
"X   ..        XX",
"X    ..        X",
"      ....     X",
"                "}
