/* XPM */
static char * Partial_Download[]={
"16 16 3 1",
/* colors */
"   c  #000000",
".  c  #ffffff",
"X  c  None",
/* pixels */
"XX . . . . XXXXX",
"XX..........XXXX",
"XX ......... XXX",
"XX............XX",
"XX    ....... XX",
"XX ..     ....XX",
"XX ...        XX",
"XX ...    ... XX",
"XX ..      .. XX",
"XX ..      .. XX",
"XX .        . XX",
"XX .        . XX",
"XX            XX",
"XX .......... XX",
"XX .......... XX",
"XX            XX"}
