/* XPM */
static char * AOL_Mailbox[]={
"16 16 3 1",
/* colors */
"   c  #000000",
".  c  #ffffff",
"X  c  None",
/* pixels */
"X         XXXXXX",
"X .......  XXXXX",
"X ........    XX",
"X ........ .. XX",
"X ....  .. .. XX",
"X ....  ..    XX",
"X ...    . . XXX",
"X ...        XXX",
"X .. .. .. .. XX",
"X . .... . ... X",
"X . .... ..... X",
"X . .... ..... X",
"X   .... ..... X",
"X .            X",
"X ......     XXX",
"X            XXX"}
