/* XPM */
static char * Locality[]={
"16 16 3 1",
/* colors */
"   c  #000000",
".  c  #ffffff",
"X  c  None",
/* pixels */
"         XXXXXXX",
" .......  XXXXXX",
" ......     XXXX",
" ....         XX",
" ...  .     .  X",
" ... ..     .. X",
" .. ....  . ... ",
" .. .... ...... ",
" .. ....  ..... ",
" .. .....  .... ",
" .  ...     ... ",
" .   ..     .. X",
"      ..   ..  X",
" ....  ..  .  XX",
" ......     XXXX",
"            XXXX"}
