/* XPM */
static char * AOL_art_files[]={
"16 16 3 1",
/* colors */
"   c  #000000",
".  c  #ffffff",
"X  c  None",
/* pixels */
"X         XXXXXX",
"X .......  XXXXX",
"X ....... . XXXX",
"X .......    XXX",
"X ....        XX",
"X ....  ..... XX",
"X ...   .. .. XX",
"X ...   .   . XX",
"X ..    .   . XX",
"X ..    .   . XX",
"X .     .. .. XX",
"X .     .   . XX",
"X             XX",
"X .....       XX",
"X .....       XX",
"X            XXX"}
