/* XPM */
static char * CCL_file[]={
"16 16 3 1",
/* colors */
"   c  #000000",
".  c  #ffffff",
"X  c  None",
/* pixels */
"         XXX  XX",
" .......  X    X",
" ....... ..     ",
" .......  .     ",
" ....  .....    ",
" ....  .... XX  ",
" ...    ... XX  ",
" ...    ... XX  ",
" ..      .. XX  ",
" ..      .. XX  ",
" .        ..    ",
" .        .     ",
"                ",
" ..........    X",
" ...........  XX",
"            XXXX"}
