/* XPM */
static char * Send_Now[]={
"16 16 3 1",
/* colors */
"   c  #000000",
".  c  #ffffff",
"X  c  None",
/* pixels */
"X         XXXXXX",
"X .......  XXXXX",
"X ....... . XXXX",
"X .......    XXX",
"X .......... XXX",
"X .......... XXX",
"X .             ",
"    ........... ",
" .. .  .....  . ",
" ..   ......  . ",
" .....  .  .... ",
" .....    ..... ",
"      ......... ",
"X .             ",
"X .......... XXX",
"X            XXX"}
