/* XPM */
static char * icon10784[]={
"32 32 2 1",
/* colors */
"   c  #ffffff",
".  c  None",
/* pixels */
".......................       ..",
"......................         .",
".....................           ",
"................   .            ",
"...............                 ",
"..............                  ",
".............                   ",
"............                    ",
".........                      .",
"........                      ..",
".......                      ...",
"......                      ....",
"......                      ....",
"......                      ....",
"                            ....",
"                            ....",
"                           .....",
"                           .....",
"                            ....",
"                            ....",
"                            ....",
"                           .....",
"                           .....",
"                           .....",
"                           .....",
"                          ......",
"                          ......",
"                          ......",
"                          ......",
"                         .......",
"                         .......",
"                         ......."}
