/* XPM */
static char * icon10792[]={
"32 32 2 1",
/* colors */
"   c  #ffffff",
".  c  None",
/* pixels */
".....      .....................",
"....        ....................",
".                             ..",
"                               .",
"                               .",
"                                ",
"                                ",
"                                ",
"                                ",
"                                ",
"                                ",
"                                ",
"                                ",
"                                ",
"                                ",
"                                ",
"                                ",
"                                ",
"                                ",
"                                ",
"                                ",
"                                ",
"                                ",
".                               ",
"..                              ",
"...                             ",
"...........                 ....",
"............                 ...",
".............                 ..",
"..............                 .",
"................        .       ",
".................     ...     . "}
