/* XPM */
static char * Partial_Download[]={
"32 32 3 1",
/* colors */
"   c  #000000",
".  c  #ffffff",
"X  c  None",
/* pixels */
"XXXXX . . . . . . . . XXXXXXXXXX",
"XXXXX..................XXXXXXXXX",
"XXXXX ................. XXXXXXXX",
"XXXXX....................XXXXXXX",
"XXXXX ................... XXXXXX",
"XXXXX......................XXXXX",
"XXXXX      ................ XXXX",
"XXXXX ....         .........XXXX",
"XXXXX ........         .... XXXX",
"XXXXX ........      ..      XXXX",
"XXXXX .......        ...... XXXX",
"XXXXX .......  ....  ...... XXXX",
"XXXXX ......  ....... ..... XXXX",
"XXXXX ...... .    ......... XXXX",
"XXXXX .....        ... .... XXXX",
"XXXXX .....   .     .. .... XXXX",
"XXXXX ....   .      ..  ... XXXX",
"XXXXX ....  ..      ..  ... XXXX",
"XXXXX ...   ..      ..   .. XXXX",
"XXXXX ...   ..      .    .. XXXX",
"XXXXX ..    ..      .     . XXXX",
"XXXXX ..    ...    .      . XXXX",
"XXXXX .      ....    .      XXXX",
"XXXXX         .......       XXXX",
"XXXXX          .....        XXXX",
"XXXXX                       XXXX",
"XXXXX ..................... XXXX",
"XXXXX ..................... XXXX",
"XXXXX ..................... XXXX",
"XXXXX ..................... XXXX",
"XXXXX ..................... XXXX",
"XXXXX                       XXXX"}
