/* XPM */
static char * AOL_Tools[]={
"32 32 3 1",
/* colors */
"   c  #000000",
".  c  #ffffff",
"X  c  None",
/* pixels */
"XXX                 XXXXXXXXXXXX",
"XXX ...............  XXXXXXXXXXX",
"XXX ............... . XXXXXXXXXX",
"XXX ............... .. XXXXXXXXX",
"XXX ............... ... XXXXXXXX",
"XXX ..........        .  XXXXXXX",
"XXX ......... ........ .  XXXXXX",
"XXX ........ ...........   XXXXX",
"XXX ....... ..   ..... .   XXXXX",
"XXX .......                XXXXX",
"XXX ......        ..  .    XXXXX",
"XXX ........  ..  .. ..... XXXXX",
"XXX .......  ...  .. ..... XXXXX",
"XXX ....... .     .. ..... XXXXX",
"XXX ......        ..  .... XXXXX",
"XXX ......   .    ..  .... XXXXX",
"XXX .....   .    ...   ... XXXXX",
"XXX ...    ..    ...   ... XXXXX",
"XXX .. .... .    ...          XX",
"XXX ..    ..           ....... X",
"XXX ...   .................... X",
"XXX ..    ..           ....... X",
"XXX .. ....      ...          XX",
"XXX .        ... ....      XXXXX",
"XXX           .. ....      XXXXX",
"XXX              ....      XXXXX",
"XXX ...........  ....  ... XXXXX",
"XXX ...........  ....  ... XXXXX",
"XXX ...........  ....  ... XXXXX",
"XXX ............       ... XXXXX",
"XXX .............    ..... XXXXX",
"XXX                        XXXXX"}
