/* XPM */
static char * MacPaint[]={
"32 32 3 1",
/* colors */
"   c  #000000",
".  c  #ffffff",
"X  c  None",
/* pixels */
"XXXX                   XXXXXXXXX",
"XXXX .................  XXXXXXXX",
"XXXX ..   . .......... . XXXXXXX",
"XXXX ..   . .......... .. XXXXXX",
"XXXX ..   . .......... ... XXXXX",
"XXXX ..   . .......... .... XXXX",
"XXXX ..   . ..........       XXX",
"XXXX ..   . ................ XXX",
"XXXX ..   . ................ XXX",
"XXXX ..   . ................ XXX",
"XXXX ..   . ................ XXX",
"XXXX ..   . ................ XXX",
"XXXX ..     ................ XXX",
"XXXX .. ... ................ XXX",
"XXXX .. ... ................ XXX",
"XXXX .. ... ................ XXX",
"XXXX .. ... ................ XXX",
"XXXX .. ... ................ XXX",
"XXXX ...   ................. XXX",
"XXXX ..     ................ XXX",
"XXXX ..     ................ XXX",
"XXXX ..      ............... XXX",
"XXXX ..      ............... XXX",
"XXXX ..    . .... .        . XXX",
"XXXX ..      ....... .     . XXX",
"XXXX ...  . ......         . XXX",
"XXXX ...    ....           . XXX",
"XXXX ....   ......         . XXX",
"XXXX ......  ..            . XXX",
"XXXX ....................... XXX",
"XXXX ....................... XXX",
"XXXX                         XXX"}
