/* XPM */
static char * Modem_Profile[]={
"32 32 3 1",
/* colors */
"   c  #000000",
".  c  #ffffff",
"X  c  None",
/* pixels */
"XXX                 XXXXXXXXXXXX",
"XXX ...............  XXXXXXXXXXX",
"XXX ............... . XXXXXXXXXX",
"XXX ............... .. XXXXXXXXX",
"XXX ............... ... XXXXXXXX",
"XXX ..........  ... .... XXXXXXX",
"XXX .........    ..       XXXXXX",
"XXX .........    ........ XXXXXX",
"XXX ........      ....... XXXXXX",
"XXX ........      ....... XXXXXX",
"XXX .......        ...... XXXXXX",
"XXX .......  ....  ...... XXXXXX",
"XXX ......  ....... ..... XXXXXX",
"XXX ...... .    ......... XXXXXX",
"XXX .....       .... .... XXXXXX",
"XXX .....   .  .                ",
"XXX ....   .  . ..............  ",
"XXX ....  .. . ..............   ",
"XXX ...   ... ..............  . ",
"XXX ...   .. ..............  .  ",
"XXX ..    . ..............  . . ",
"XXX ..   . ..............  . .  ",
"XXX .   .                 . .  X",
"XXX     .  . . . . . . . . .  XX",
"XXX     . ..............  .  XXX",
"XXX     .  .. . . . . .. .  XXXX",
"XXX ..... ... . . . . ..   XXXXX",
"XXX .....  .............  XXXXXX",
"XXX .....                 XXXXXX",
"XXX ..................... XXXXXX",
"XXX ..................... XXXXXX",
"XXX                       XXXXXX"}
