/* XPM */
static char * Send_Now[]={
"32 32 3 1",
/* colors */
"   c  #000000",
".  c  #ffffff",
"X  c  None",
/* pixels */
"XXX                 XXXXXXXXXXXX",
"XXX ...............  XXXXXXXXXXX",
"XXX ............... . XXXXXXXXXX",
"XXX ............... .. XXXXXXXXX",
"XXX ............... ... XXXXXXXX",
"XXX ..........  ... .... XXXXXXX",
"XXX .........    ..       XXXXXX",
"XXX .........    ........ XXXXXX",
"XXX ........      ....... XXXXXX",
"XXX ........      ....... XXXXXX",
"XXX .......        ...... XXXXXX",
"XXX .......  ....  ...... XXXXXX",
"XXX ......  ....... ..... XXXXXX",
"XXX ...... .    ......... XXXXXX",
"XXX ..                          ",
"XXX .. ........................ ",
"XX     .   ...............    . ",
"XX ... ................... .. . ",
"XX ... .   ............... .. . ",
"XX ..  ................... .. . ",
"XX ....    ..        .....    . ",
"XX ........ ................... ",
"XX ..... ...         .......... ",
"XX ..... ... .................. ",
"XX .....  ..    ............... ",
"XX ........ ................... ",
"XX ..      .................... ",
"XX   . ........................ ",
"XXX ..                          ",
"XXX ...                   XXXXXX",
"XXX ..................... XXXXXX",
"XXX                       XXXXXX"}
