/* XPM */
static char * America_Online[]={
"32 32 3 1",
/* colors */
"   c  #000000",
".  c  #ffffff",
"X  c  None",
/* pixels */
"XXXXXXXXXXXXXXXXXXXXXXXXXXXXXXXX",
"XXXXXXXXXXXXXXX XXXXXXXXXXXXXXXX",
"XXXXXXXXXXXXXX   XXXXXXXXXXXXXXX",
"XXXXXXXXXXXXXX   XXXXXXXXXXXXXXX",
"XXXXXXXXXXXXX     XXXXXXXXXXXXXX",
"XXXXXXXXXXXXX     XXXXXXXXXXXXXX",
"XXXXXXXXXXXX       XXXXXXXXXXXXX",
"XXXXXXXXXXXX       XXXXXXXXXXXXX",
"XXXXXXXXXXX         XXXXXXXXXXXX",
"XXXXXXXXXXX   ..... XXXXXXXXXXXX",
"XXXXXXXXXX  ........ XXXXXXXXXXX",
"XXXXXXXXXX ..........XXXXXXXXXXX",
"XXXXXXXXX ............XXXXXXXXXX",
"XXXXXXXXX ..      ....XXXXXXXXXX",
"XXXXXXXX ..        ....XXXXXXXXX",
"XXXXXXXX .  .       ...XXXXXXXXX",
"XXXXXXX .  .         ...XXXXXXXX",
"XXXXXXX   ..         ...XXXXXXXX",
"XXXXXX   ..          ... XXXXXXX",
"XXXXXX  ...          ... XXXXXXX",
"XXXXX   ...          ...  XXXXXX",
"XXXXX   ...          ...  XXXXXX",
"XXXX    ...          ..    XXXXX",
"XXXX    ....         ..    XXXXX",
"XXX     ....        ..  .   XXXX",
"XXX     .....       .  .    XXXX",
"XX       .....     .  ..     XXX",
"XX       ......      ..      XXX",
"X         ............        XX",
"X          ..........         XX",
"             ......            X",
"                               X"}
