/* XPM */
static char * Database[]={
"32 32 3 1",
/* colors */
"   c  #000000",
".  c  #ffffff",
"X  c  None",
/* pixels */
"XXXX                 XXXXXXXXXXX",
"XXXX ...............  XXXXXXXXXX",
"XXXX .......... .... . XXXXXXXXX",
"XXXX .........   ... .. XXXXXXXX",
"XXXX .........   ... ... XXXXXXX",
"XXXX ........     .. .... XXXXXX",
"XXXX ........ ... ..       XXXXX",
"XXXX ....... .   . ....... XXXXX",
"XXXX .......      ........ XXXXX",
"XXXX ......  .    . ...... XXXXX",
"XXXX ...... .     . ...... XXXXX",
"XXXX .....  .     .  ..... XXXXX",
"XXXX .....  .     .  ..... XXXXX",
"XXXX ....   .         .... XXXXX",
"XXXX ....    .   .    .... XXXXX",
"XXXX ...      ...      ... XXXXX",
"XXXX ...               ... XXXXX",
"XXXX ..................... XXXXX",
"XXXX ..................... XXXXX",
"XXXX ..                 .. XXXXX",
"XXXX . ................. . XXXXX",
"XXXX ..                 .. XXXXX",
"XXXX ..................... XXXXX",
"XXXX ..                 .. XXXXX",
"XXXX . ................. . XXXXX",
"XXXX ..                 .. XXXXX",
"XXXX ..................... XXXXX",
"XXXX ..                 .. XXXXX",
"XXXX . ................. . XXXXX",
"XXXX ..                 .. XXXXX",
"XXXX ..................... XXXXX",
"XXXX                       XXXXX"}
