/* XPM */
static char * Game[]={
"32 32 3 1",
/* colors */
"   c  #000000",
".  c  #ffffff",
"X  c  None",
/* pixels */
"XXXX                        XXXX",
"XXX ........................ XXX",
"XX ............ ............. XX",
"X ............   ............. X",
" .............   .............. ",
" ............     ............. ",
" ............ ... ............. ",
" ........... .   . ............ ",
" ...........      ............. ",
" ..........  .    . ........... ",
" .......... .     . ........... ",
" .........  .     .  .......... ",
" .........  .     .  .......... ",
" ........   .         ......... ",
" ........    .   .    ......... ",
" .......      ...      ........ ",
" .......               ........ ",
" .............................. ",
" .............................. ",
" ..      ...................... ",
" .. .... ...................... ",
" .. .... ...................... ",
" .. ........................... ",
" .. ........   ... . . ...  ... ",
" .. ...   . ... ..  . . . .. .. ",
" .. .... .. ... .. .. . .    .. ",
" .. .... .. ... .. .. . . ..... ",
" ..      ...   . . .. . ..   .. ",
"X ............................ X",
"XX .......................... XX",
"XXX ........................ XXX",
"XXXX                        XXXX"}
