/* XPM */
static char * Mailbox[]={
"32 32 3 1",
/* colors */
"   c  #000000",
".  c  #ffffff",
"X  c  None",
/* pixels */
"XXXXXXXXXXXXXXX XXXXXXXXXXXXXXXX",
"XXXXXXXXXXXXXX   XXXXXXXXXXXXXXX",
"XXXXXXXXXXXXXX   XXXXXXXXXXXXXXX",
"XXXXXXXXXXXXX     XXXXXXXXXXXXXX",
"XXXXXXXXXXXXX ... XXXXXXXXXXXXXX",
"XXXXXXXXXXXX .   . XXXXXXXXXXXXX",
"XXXXXXXXXXXX      .XXXXXXXXXXXXX",
"XXXXXXXXXXX  .    . XXXXXXXXXXXX",
"XXXXXXXXXXX .     . XXXXXXXXXXXX",
"XXXXXXXXXX  .     .  XXXXXXXXXXX",
"XXXXXXXXXX  .     .  XXXXXXXXXXX",
"XXXXXXXXX   .         XXXXXXXXXX",
"XXXXXXXXX    .   .    XXXXXXXXXX",
"XXXXXXXX      ...      XXXXXXXXX",
"XXXXXXXX               XXXXXXXXX",
"XXXXXXXXXXXXXXXXXXXXXXXXXXXXXXXX",
"XXXXXXX                 XXXXXXXX",
"XXXXXX ................. XXXXXXX",
"XXXXX .                 . XXXXXX",
"XXXX .. ............... .. XXXXX",
"XXX ... . .  . .....  . ... XXXX",
"XX .... .. .  ......  . .... XXX",
"X ..... ............... ..... XX",
"                               X",
" ............................. X",
" ......  .  .. ..   . ........ X",
" ...... . . . . .. .. ........ X",
" ...... ... .   .. .. ........ X",
" ...... ... . . .   .   ...... X",
" ............................. X",
"                               X",
"XXXXXXXXXXXXXXXXXXXXXXXXXXXXXXXX"}
