/* XPM */
static char * icon128[]={
"16 16 3 1",
/* colors */
"   c  #000000",
".  c  #ffffff",
"X  c  None",
/* pixels */
"XXXXX     XXXXXX",
"XXX     ..  XXXX",
"XX      .... XXX",
"X       ..... XX",
"X       ..... XX",
"        ...... X",
"        ...... X",
"               X",
" ......        X",
" ......        X",
"X .....       XX",
"X .....       XX",
"XX ....      XXX",
"XXX  ..     XXXX",
"XXXXX     XXXXXX",
"XXXXXXXXXXXXXXXX"}
