/* XPM */
static char * prev_arrow[]={
"32 32 3 1",
/* colors */
"   c  #ffffcc",
".  c  #444444",
"X  c  #ffffff",
/* pixels */
"XXXXXXXXXXXXXXXXXXXXXXXXXXXXXXXX",
"XXXXXXXXXXXXXXXXXXXXXXXXXXXXXXXX",
"XXXXXXXXXXXXXXXXXXXXXXXXXXXXXXXX",
"XXXXXXXXXXXXXXXXXXXXXXXXXXXXXXXX",
"XXXXXXXXXXXXXXXXXXXXXXXXXXXXXXXX",
"XXXXXXXXXXXXXXX.XXXXXXXXXXXXXXXX",
"XXXXXXXXXXXXXX..XXXXXXXXXXXXXXXX",
"XXXXXXXXXXXXX. .X.XXXXXXXXXXXXXX",
"XXXXXXXXXXXX.  ...XXXXXXXXXXXXXX",
"XXXXXXXXXXX.   ...XXXXXXXXXXXXXX",
"XXXXXXXXXX.    .............XXXX",
"XXXXXXXXX.                 .XXXX",
"XXXXXXXX.                  ...XX",
"XXXXXXX.                   ...XX",
"XXXXXX.                    ...XX",
"XXXXX.                     ...XX",
"XXXX.                      ...XX",
"XXXXX.                     ...XX",
"XXXXXX.                    ...XX",
"XXXXXXX.                   ...XX",
"XXXXXXXX.                  ...XX",
"XXXXXXXXX.                 ...XX",
"XXXXXXXXXX.    ...............XX",
"XXXXXXXXXXX.   ...............XX",
"XXXXXXXXXXXX.  ...............XX",
"XXXXXXXXXXXXX. ...XXXXXXXXXXXXXX",
"XXXXXXXXXXXXXX....XXXXXXXXXXXXXX",
"XXXXXXXXXXXXXXX...XXXXXXXXXXXXXX",
"XXXXXXXXXXXXXXXX..XXXXXXXXXXXXXX",
"XXXXXXXXXXXXXXXXX.XXXXXXXXXXXXXX",
"XXXXXXXXXXXXXXXXXXXXXXXXXXXXXXXX",
"XXXXXXXXXXXXXXXXXXXXXXXXXXXXXXXX"}
