/* XPM */
static char * Claris[]={
"32 32 10 1",
/* colors */
"   c  #ccccff",
".  c  #9999cc",
"X  c  #ffffff",
"o  c  #eeeeee",
"O  c  #cccccc",
"+  c  #9999ff",
"@  c  #bbbbbb",
"#  c  #330099",
"$  c  #000044",
"%  c  #6666cc",
/* pixels */
"%%%%%%%%%%%%%%%%%%%%%%%%%%%%%%%X",
"%XXXXXXXXXXXXXXXXXXXXXXXXXXXXX%X",
"%o o o o o o o o o o o o o o o%$",
"%ooooooooooooooooooooooooooooo%$",
"%                             %$",
"%O O O O O O O O O O O O O O O%$",
"%                             %$",
"%.@.@.@.@.@.@.@.@.@.@.@.@.@.@.%$",
"%@+@+@+@+@+@+@+@+@+@+@+@+@+@+@%$",
"%.............................%$",
"%.............................%$",
"%.###########################.%$",
"%.##XX##X#####X###XXX##X##XX#.%$",
"%.#X##X#X####X#X##X##X#X#X###.%$",
"%.#X####X####X#X##X##X#X#X###.%$",
"%.#X####X###X###X#XXX##X##X##.%$",
"%.#X####X###X#X#X#X##X#X###X#.%$",
"%.#X##X#X###X###X#X##X#X###X#.%$",
"%.##XX##XXX#X###X#X##X#X#XX##.%$",
"%.###########################.%$",
"%.............................%$",
"%.............................%$",
"%@@+@+@+@+@+@+@+@+@+@+@+@+@++@%$",
"%..@.@.@.@.@.@.@.@.@.@.@.@.@@.%$",
"%                             %$",
"%OO O O O O O O O O O O O O  O%$",
"%                             %$",
"%ooooooooooooooooooooooooooooo%$",
"%oo o o o o o o o o o o o o  o%$",
"%XXXXXXXXXXXXXXXXXXXXXXXXXXXXX%$",
"%%%%%%%%%%%%%%%%%%%%%%%%%%%%%%%$",
"XX$$$$$$$$$$$$$$$$$$$$$$$$$$$$$$"}
