/* XPM */
static char * icon500[]={
"32 32 9 1",
/* colors */
"   c  #ffffcc",
".  c  #444444",
"X  c  #ff0000",
"o  c  #000000",
"O  c  #ffffff",
"+  c  #0033ff",
"@  c  #bbbbbb",
"#  c  #aaaaaa",
"$  c  #888888",
/* pixels */
"OOOOoooooooooooooooooooooOOOOOOO",
"OOOOo@@@@@@@@@@@@@@@@@@@o.OOOOOO",
"OOOOo@    XXXXXXXXXXXX @o.OOOOOO",
"OOooooo   XXXOOOOOXXXX @o.oOOOOO",
"OoOOOO#o  XXOOXXXOOXXX @o.oOOOOO",
"o#Oooo##o XXXXXXOOOXXX @o.oOOOOO",
"o#ooo@o#o XXXOOOXOOXXX @o.oOOOOO",
"ooo$o@ooo XXOOXXXOOXXX @o.oOOOOO",
"OOo$o@    XXOOOXXOOXXX @o.oOOOOO",
"OOo$o@    XXXOOOOXOOXX @o.oOOOOO",
"OOo$o@    XXXXXXXXXXXX @o.oOOOOO",
"OOooooo                @o.oOOOOO",
"OoOOO##o               @o.oOOOOO",
"o#Oooo##o              @o.oOOOOO",
"o#o$o@o#o ++++++++++++ @o.oOOOOO",
"ooo$o@ooo              @o.oOOOOO",
"OOo$o@                 @o.oOOOOO",
"OOo$o@                 @o.oOOOOO",
"OOo$o@    ++++++++++++ @o.oOOOOO",
"OOooooo                @o.oOOOOO",
"OoOOO##o               @o.oOOOOO",
"o#Oooo##o              @o.oOOOOO",
"o#o$o@o#o ++++++++++++ @o.oOOOOO",
"ooo$o@ooo              @o.oOOOOO",
"OOo$o@                 @o.oOOOOO",
"OOo$o@@@@@@@@@@@@@@@@@@@o.oOOOOO",
"OOooooooooooooooooooooooo.oOOOOO",
"OOOOO.....................oOOOOO",
"OOOOOooooooooooooooooooooooOOOOO",
"OOOOOOOOOOOOOOOOOOOOOOOOOOOOOOOO",
"OOOOOOOOOOOOOOOOOOOOOOOOOOOOOOOO",
"OOOOOOOOOOOOOOOOOOOOOOOOOOOOOOOO"}
