/* XPM */
static char * icon502[]={
"32 32 8 1",
/* colors */
"   c  #000000",
".  c  #996600",
"X  c  #550000",
"o  c  #008800",
"O  c  #ffffff",
"+  c  #dddddd",
"@  c  #cc9900",
"#  c  #999999",
/* pixels */
"OO@@@@@@@@@@@@@@@@@@@@XOOOOOOOOO",
"OO@...................XOOOOOOOOO",
"OO@......       ......XOOOOOOOOO",
"OO@..... OOOOOOO .....XOOOOOOOOO",
"OO@.... OOOO OOOO ....XOOOOOOOOO",
"OO@... OOOOO OOOOO ...XOOOOOOOOO",
"OO@.. OO OOOOOOOOOO ..XOOOOOOOOO",
"OO@. OOOO OOOOOOOOOO .XOOOOOOOOO",
"OO@. OOOOO OOOO OOOO .XOOOOOOOOO",
"OO@. OOOOOO OO OOOOO .XOOOOOOOOO",
"OO@. O  OOOO  OOO  O .XOOOOOOOOO",
"OO@. OOOOOOOOOOOOOOO .XOOOOOOOOO",
"OO@. OOOOOOOOOOOOOOO .XOOOOOOOOO",
"  @. OOOOOOOOOOOOOOO .X        O",
" +@.. OOOOOOOOOOOOO ..X##+++++ O",
" +@... OOOOO OOOOO ...X##oooo+  ",
" +@.... OOOO OOOO ....X##oooo+  ",
" +@.....  OOOOO  .....X##oooo+  ",
" +@......       ......X##oooo+  ",
" +@...................X##OOOO+  ",
" +XXXXXXXXXXXXXXXXXXXXX##OOOO+  ",
" +OO#####################OOOO+  ",
" +OO####    #     #######OOOO+  ",
" +OOOOOOOOOOOOOOOOOOOOOOOOOOO+  ",
" +OOOOOO       O    OOOOOOOOO+  ",
" +OOOOOOOOOOOOOOOOOOOOOOOOOOO+  ",
" +OOOOOO    O  OOOOOOOOOOOOOO+  ",
" +OOOOOOOOOOOOOOOOOOOOOOOOOOO+  ",
" +OOOOOOOOOOOOOOOOOOOOOOOOOOO+  ",
" +++++++++++++++++++++++++++++  ",
"                                ",
"OO                              "}
