/* XPM */
static char * icon503[]={
"32 32 6 1",
/* colors */
"   c  #0066ff",
".  c  #777777",
"X  c  #000000",
"o  c  #008800",
"O  c  #ffffff",
"+  c  #bbbbbb",
/* pixels */
"OOOOOOOOOOOOOOOOOOOOXOOOOOOOOOOO",
"OOOOOOOOOOOOOOOOOOOX+XOOOOOOOOOO",
"OOOXXXXXXXXXXOOOOOX+O+XOOOOOOOOO",
"OOOX.........XOOOX+OoO+XOOOOOOOO",
"XXXXXXXXXXX...XOX+OoooO+XOOOOOOO",
"X++++++++++X...X+OoooooO+XOOOOOO",
"OX+OOOOOOOO+X.X+OOOoooOOO+XOOOOO",
"OOXXXXXXOOOO+X+OOOOOoOOOOO+XOOOO",
"OOOOX+++OOOOO+XOOOOOOOOOOOO+XOOO",
"OOOOX+OOOOOOOO+XOOOOOOOOOOOO+XOO",
"OOOOOXXXXXXOOOO+XOOOOOOOOOOOO+XO",
"OOOOOX+++++OOOOO+XOOOOOOOOOOOO+X",
"OOOOOOX+OOOOOOOOOOOOOOOOOOOOO+XO",
"OOOOOOOXXXXXOOOOOO OOOOOOOOO+XXO",
"OOOOOOX+++++OOOOO OOOOOOOOO+XXOO",
"OOOOOX+OOOOOOOOO OO OOOOOO+XXOOO",
"OOOOX+OOOOOOOOO OO OOOOOO+XXOOOO",
"OOOX+O OOOOOOO OO OOOOOO+XXOOOOO",
"OOX+O OOOOOOO OO OO OOO+XXOOOOOO",
"OX+O OOO OOOOOO OO OOO+XXOOOOOOO",
"OOX+OOO OOOOOOOOO OOO+XXOOOOOOOO",
"OOXX+O OOOOOOOOOOOOO+XXOOOOOOOOO",
"OOOXX+OOOOOOOOOOOOO+XXOOOOOOOOOO",
"OOOOXX+OOOOOOOOOOO+XXOOOOOOOOOOO",
"OOOOOXX+OOOOOOOOO+XXOOOOOOOOOOOO",
"OOOOOOXX+OOOOOOO+XXOOOOOOOOOOOOO",
"OOOOOOOXX+OOOOO+XXOOOOOOOOOOOOOO",
"OOOOOOOOXX+OOO+XXOOOOOOOOOOOOOOO",
"OOOOOOOOOXX+O+XXOOOOOOOOOOOOOOOO",
"OOOOOOOOOOXX+XXOOOOOOOOOOOOOOOOO",
"OOOOOOOOOOOXXXOOOOOOOOOOOOOOOOOO",
"OOOOOOOOOOOOXOOOOOOOOOOOOOOOOOOO"}
