/* XPM */
static char * icon504[]={
"32 32 10 1",
/* colors */
"   c  #555555",
".  c  #333333",
"X  c  #000000",
"o  c  #ffff00",
"O  c  #996600",
"+  c  #3399ff",
"@  c  #ff3300",
"#  c  #ff00ff",
"$  c  #ffffff",
"%  c  #dddddd",
/* pixels */
"......................$$$$#$$$$$",
".%%%@%%%%%%%%%%%%%%%%. $$###$$$$",
".%$$@$$$$$$$$$$$$$$$%. $O####$$$",
".%$$@$$$$$$$$$$$$$$$%. O$o##$$$$",
".%$$@$$$$$$$$$$$$$$$%.O$oOO$$$$$",
".++++++++++++++++++++O$oOO$$$$$$",
".%$$@$$$$$$$$$$$$$$$O$oOO$$$$$$$",
".%$$@$$$$$$$$$$$$$$O$oOO$$$$$$$$",
".+++++++++++++++++O$oOO$$$$$$$$$",
".%$$@$$$$$$$$$$$$O$oOO $$$$$$$$$",
".%$$@$$$$$$$$$$$O$oOO. $$$$$$$$$",
".++++++++++++++O$oOO+. $$$$$$$$$",
".%$$@$$$$$$$$$O$oOO$%. $$$$$$$$$",
".%$$@$$$$$$$$O$oOO$$%. $$$$$$$$$",
".+++++++++++O$oOO++++. $$$$$$$$$",
".%$$@$$$$$$O$oOO$$$$%. $$$$$$$$$",
".%$$@$$$$$X$oOO$$$$$%. $$$$$$$$$",
".+++++++++XXOO+++++++. $$$$$$$$$",
".%$$@$$$$XXXX$$$$$$$%. $$$$$$$$$",
".%$$@$$$$XX$$$$$$$$$%. $$$$$$$$$",
".++++++++++++++++++++. $$$$$$$$$",
".%$$@$$$$$$$$$$$$$$$%. $$$$$$$$$",
".%$$@$$$$$$$$$$$$$$$%. $$$$$$$$$",
".%%%@%%%%%%%%%%%%%%%%. $$$$$$$$$",
"...................... $$$$$$$$$",
"$                      $$$$$$$$$",
"$$$$$$$$$$$$$$$$$$$$$$$$$$$$$$$$",
"$$$$$$$$$$$$$$$$$$$$$$$$$$$$$$$$",
"$$$$$$$$$$$$$$$$$$$$$$$$$$$$$$$$",
"$$$$$$$$$$$$$$$$$$$$$$$$$$$$$$$$",
"$$$$$$$$$$$$$$$$$$$$$$$$$$$$$$$$",
"$$$$$$$$$$$$$$$$$$$$$$$$$$$$$$$$"}
