/* XPM */
static char * icon505[]={
"32 32 11 1",
/* colors */
"   c  #666666",
".  c  #333333",
"X  c  #ffff00",
"o  c  #996600",
"O  c  #000000",
"+  c  #3399ff",
"@  c  #ff3300",
"#  c  #ff00ff",
"$  c  #ffffff",
"%  c  #dddddd",
"&  c  #bbbbbb",
/* pixels */
"......................$$$$#$$$$$",
".%%%@%%%%%%%%%%%%%%%%.$$$###$$$$",
".%$$@$$$$$$$$$$$$$$$%..Oo####$$$",
".%$$@$$$$$$$$$$$$$$$%.&o$X##$$$$",
".%$$@$$$$$$$$$$$$$$$%.o$Xoo$$$$$",
".++++++++++++++++++++o$Xoo$$$$$$",
".%$$@$$$$$$$$$$$$$$$o$Xoo $$$$$$",
".%$$@$$$$$$$$$$$$$$o$Xoo  ..$$$$",
".+++++++++++++++++o$Xoo&  ..$$$$",
".%$$@$$$$$$$$$$$$o$Xoo&&  ..$$$$",
".%$$@$$$$$$$$$$$o$Xoo.&&  ..$$$$",
".++++++++++++++o$Xoo+.&&  ..$$$$",
".%$$@$$$$$$$$$o$Xoo$%.&&  ..$$$$",
".%$$@$$$$$$$$o$Xoo$$%.&&  ..$$$$",
".+++++++++++o$Xoo++++.&&  ..$$$$",
".%$$@$$$$$$o$Xoo$$$$%.&&  ..$$$$",
".%$$@$$$$$O$Xoo$$$$$%.&&  ..$$$$",
".+++++++++OOoo+++++++.&&  ..$$$$",
".%$$@$$$$OOOO$$$$$$$%.&&  ..$$$$",
".%$$@$$$$OO$$$$$$$$$%.&&  ..$$$$",
".++++++++++++++++++++.&&  ..$$$$",
".%$$@$$$$$$$$$$$$$$$%.&&  ..$$$$",
".%$$@$$$$$$$$$$$$$$$%.&&  ..$$$$",
".%%%@%%%%%%%%%%%%%%%%.&&  ..$$$$",
"......................&&  ..$$$$",
"$$&&&&&&&&&&&&&&&&&&&&&&  ..$$$$",
"$$&&&&&&&&&&&&&&&&&&&&&&  ..$$$$",
"$$$$                      ..$$$$",
"$$$$                      ..$$$$",
"$$$$$$......................$$$$",
"$$$$$$......................$$$$",
"$$$$$$$$$$$$$$$$$$$$$$$$$$$$$$$$"}
