/* XPM */
static char * icon507[]={
"32 32 6 1",
/* colors */
"   c  #0000bb",
".  c  #000000",
"X  c  #ffffff",
"o  c  #3300ff",
"O  c  #bbbbbb",
"+  c  #ffcccc",
/* pixels */
"XXXXXXXXXXXXXXXX.XXXXXXXXXXXXXXX",
"XXXXXXXXXXXXXXX.X.XXXXXXXXXXXXXX",
"XXXXXXXXXXXXXX.XXX.XXXXXXXXXXXXX",
"XXXXXXXXXXXXX.XXXXX.XXXXXXXXXXXX",
"XXXXXXXXXXXX.XXXXXXX.XXXXXXXXXXX",
"XXXXXXXXXXX.XXXXXXXXX.XXXXXXXXXX",
"XXXXXXXXXX.XXXXXXXXXXX.XXXXXXXXX",
"XXXXXXXXX.XXXXXXXX XXXX.XXXXXXXX",
"XXXXXXXX.XXXXXXXX XXXXXX.XXXXXXX",
"XXXXXXX.XXXXXXXX XX XXXXX.XXXXXX",
"XXXXXX.XXXXXXXX XX XXXXXXX.XXXXX",
"XXXXX.XXXX XXX XX XX XXXXXX.XXXX",
"XXXX.OXXX XXX XX XX XX XXXXX.XXX",
"XXXXX.OX XXX XXXXX XX XXXXXXX.XX",
"XXXXXX.OXXX XX..XXXX XXXXXXXXX.X",
"XXXXXXX.OX XX.++.XX XX XXXXXXXO.",
"XXXXXXXX.OXX.+++.X XX XXX XXXO.X",
"XXXXXXXXX.O.+++.O XX XXX XXXO.XX",
"XXXXXXXXXX.+++.OOXX XXX XXXO.XXX",
"XXXXXXXXX.+++.OOXX XXX XXXO.XXXX",
"XXXXXXXX.++X+.OOX XXXXXXXO.XXXXX",
"XXXXXXX.++X++.OO XXXXXXXO.XXXXXX",
"XXXXXX.++X+++..OXXXXXXXO.XXXXXXX",
"XXX X.X.++++.++.OXXXXXO.XXXXXXXX",
"XX   XXX.+++++++.OXXXO.XXXXXXXXX",
"X     XXX.+++++++.OXO.XXXXXXXXXX",
"    oo XXX.+++++.X.O.XXXXXXXXXXX",
"   oooo XXX.+++.XXX.XXXXXXXXXXXX",
"  oooo   XXX.+.XXXXXXXXXXXXXXXXX",
" oooo     XXX.XXXXXXXXXXXXXXXXXX",
"oooo       X.XXXXXXXXXXXXXXXXXXX",
"ooo         XXXXXXXXXXXXXXXXXXXX"}
