/* XPM */
static char * Stock[]={
"32 32 13 1",
/* colors */
"   c  #0000bb",
".  c  #777777",
"X  c  #770000",
"o  c  #444444",
"O  c  #0099ff",
"+  c  #cc3300",
"@  c  #ffffff",
"#  c  #eeeeee",
"$  c  #dddddd",
"%  c  #cccccc",
"&  c  #bbbbbb",
"*  c  #aaaaaa",
"=  c  #999999",
/* pixels */
"ooooooooooooooooooooooooo@@@@@@@",
"o#####+#####+#####+#####o@@@@@@@",
"o#######################o.@@@@@@",
"o#####+#####+#####+#####o*@@@@@@",
"o#######################o.@@@@@@",
"o#+#+#+#+#+#+#+#+#+#+OOOOOOOOOOO",
"o##$$#########$#$####$OOOOOOOOOO",
"o#####+#####+###$$+O###OOOOOOOOO",
"o$##$$##$#$##$#$#$OOO#$$OOOOOOOO",
"o#$#$#+##$$$+#$##OOOOO#OOOOOOOOO",
"o#+$+$$$+#+#$$+$OOOOOOOOOOOOOOOO",
"o$%$$$+$$#$$+%%OOOOOOOOOOOOOOOOO",
"o$$$$$$%O%$%%$OOOOOOOOOOOOOOOOOO",
"o%$$$$+OOO$%+OOOOOOOOOOOOOO  OOO",
"o%$%%$OOOOO$OOOOOOOOOOOOOO    OO",
"o%+%+OOOOOOOOOOOOOO OOOOO  @@  O",
"o%&%OOOOOOOOOOOOOO   OOO  @@@@  ",
"o%%OOOOOOOOOOOOOO  .. O  *@@@@@ ",
"o&OOOOOOOOOOOOOO  ....  o.@@@@@@",
"oOOOOOOOOOOOOOO  .X.&...o*@@@@@@",
"oOOOOOOO OOOOO  ...&+&+.o.@@@@@@",
"oOOOOOO   OOO  ...+&%&&*o*@@@@@@",
"oOOOOO  .. O  ...&&&&&&&o.@@@@@@",
"oOOOO  ....  ...&&+***&*o*@@@@@@",
"oOOO  ...*.....&***&&*&&o.@@@@@@",
"oOO  .X.+*+.X.+*+*+*+*+*o*@@@@@@",
"oO  ...*****.*=***&*****o.@@@@@@",
"o  ...+===**+**=*=+=*=**o*@@@@@@",
"o ...*=*****=*=*=****==*o.@@@@@@",
"o...==+=*=*=+=*==*+**===o*@@@@@@",
"ooooooooooooooooooooooooo.@@@@@@",
"@@.*.*.*.*.*.*.*.*.*.*.*.*@@@@@@"}
