/* XPM */
static char * icon513[]={
"32 32 15 1",
/* colors */
"   c  #777777",
".  c  #ffcc66",
"X  c  #666666",
"o  c  #ff6699",
"O  c  #555555",
"+  c  #444444",
"@  c  #ffff00",
"#  c  #000000",
"$  c  #ffffff",
"%  c  #dddddd",
"&  c  #cccccc",
"*  c  #bbbbbb",
"=  c  #aaaaaa",
"-  c  #999999",
";  c  #888888",
/* pixels */
"+$$$$$+++++++++++++++++++++++++$",
"++$$$+*************************+",
"+++$$+*$$$$$$$$$$$$$$$$$$$$$$$*+",
"++++$+*$$$$$$$$$$$$$$$$$$$$$$$*+",
"+O++++*$$$$$$$$$$$$$$$$$$$$$$$*+",
"+O++O+*$$*#################*$$*+",
"++OO++*$$########@##########$$*+",
"+OXXO+*$$#######.###########$$*+",
"+XXXX+*$$##@###o############$$*+",
"+ XXO+*$$###.#o#############$$*+",
"+ X  +*$$################@##$$*+",
"+X  X+*$$###.#o#####@###.###$$*+",
"+  ;X+*$$##@###.#####.#o####$$*+",
"+;XX +*$$#######@###########$$*+",
"+  ;;+*$$############o#o####$$*+",
"+-;;;+*$$###########.###.###$$*+",
"+; --+*$$##########@#####@##$$*+",
"+;;-;+*$$###################$$*+",
"+;-;-+*$$*#################*$$*+",
"+-==-+*$$$*****************$$$*+",
"+-=--+*$$$$$$$$$$$$$$$$$$$$$$$*+",
"+=-=-+*$$$$$$$$$$$$#########$$*+",
"+==-*+*$$$$$$$$$$$$$$$$$$$$$$$*+",
"+=***+*$$$$$$$$$$$$$$$$$$$$$$$*+",
"+***&+*$$$$$$$$$$$$#########$$*+",
"+**&&+*$$$$$$$$$$$$$$$$$$$$$$$*+",
"+*&&&+*$$$$$$$$$$$$$$$$$$$$$$$*+",
"+**&&+*************************+",
"+%%&%+++++++++++++++++++++++++++",
"+%%%%%+;;;;;;;;;;;;;;;;;;;;;;;+$",
"+%%%%%+;;;;;;;;;;;;;;;;;;;;;;;+$",
"+++++++++++++++++++++++++++++++$"}
