/* XPM */
static char * icon517[]={
"32 32 15 1",
/* colors */
"   c  #666666",
".  c  #555555",
"X  c  #770000",
"o  c  #444444",
"O  c  #000000",
"+  c  #ffffff",
"@  c  #dddddd",
"#  c  #110000",
"$  c  #cccccc",
"%  c  #ff6600",
"&  c  #bbbbbb",
"*  c  #aaaaaa",
"=  c  #999999",
"-  c  #888888",
";  c  #ff9900",
/* pixels */
"o+++++++++++++++++++++++++++++++",
"oo++++++++++++++++++++++++++++++",
"ooo+++++++++++++++++++++++++++++",
"oooo++++++++++++++++++++++++++++",
"o .oo+++++++++++++++++++++++++++",
"oo.. o++++++++++++++++++++++++++",
"o. ...o+++++++++++++++++++++++++",
"o.. .  o++++++++++++++++++++++++",
"o....................+++++++++++",
"&&&&&&&&&&&&&&&&&&&&&...++++++++",
"+++++++++++++++++++++&&&..++++++",
"++XX+XX+XX+XX+XX+++++OOO&&oo++++",
"++%%+%%+%%+%%+%%++++OOOOOO&&oo++",
"++++++++++++++++++++OOOOOOOO&&o+",
"+++++++++++++++++++++++++++++&&o",
";;;;;;;;;;;;;;;;;;;;;;;;;;;;;;;o",
"+++++++++++++++++++++++++++++&oo",
"+++++++&;;;;;;;;;;;;;;;;;;;;;;o+",
"++++++&%%%%%%%%%%%%%%%%%%%%%oo++",
"+++++&o&&&&&&&&&&&&&&&&&--oo++++",
"++++&o------------------oo++++++",
"+++&oooooooooooooooooooo++++++++",
"++&o&=&&===**&****=&**o+++++++++",
"+&o**&&*&=*=*&**&&*&*=*o++++++++",
"&o&*&&&&&&&&&&**&***&&&*o+++++++",
"o&$&*$*$$&&*&&*&$&*&$*&**o++++++",
"o$&&&&*oooooo$*&&*$&&&&&&$o+++++",
"o$$&&oo######oo&&$&&&&$$oooo++++",
"o$&oo##########oo&$$&$&o####o+++",
"o&o##############oo&@oo######o++",
"oo#################oo#########o+",
"oooooooooooooooooooooooooooooooo"}
