/* XPM */
static char * icon518[]={
"32 32 17 1",
/* colors */
"   c  #00ffff",
".  c  #ffffff",
"X  c  #dddddd",
"o  c  #cccccc",
"O  c  #bbbbbb",
"+  c  #aaaaaa",
"@  c  #999999",
"#  c  #888888",
"$  c  #777777",
"%  c  #ffff00",
"&  c  #666666",
"*  c  #555555",
"=  c  #444444",
"-  c  #ff6633",
";  c  #222222",
":  c  #000000",
">  c  #3399ff",
/* pixels */
"=...........===..==..==..==..===",
"==..........=XX==XX==XX==XX==XX=",
"===.........=XXXXXXXXXXXXXXXXXX=",
"==*=........=XX>>>>>>>>>>>>>>XX=",
"=***=........=X>>>>>>>>>>>>>>X=.",
"=&&**=.......=X>>>>%%>>>%%>>>X=.",
"=&**&*=.....=XX>>>%%%%>%%%%>>XX=",
"=*&*&*$=....=XX>>>%%%%>%%%%>>XX=",
"=*&$*&$$=..:::::::%%%>>>%%%>>X=.",
"=&&$&$&&$=:......::::--->>>>>X=.",
"=&$&$&&&::...   ...::--->%%>>XX=",
"=$$$$$&:..=..  %%%%..:->%%%%>XX=",
"=##$$#:...=..  %%%%%.::>%%%%>X=.",
"=$###::..==..  %%%%%%.:>%%%%>X=.",
"=@#$#:...=...   %%%%..:>>%%>>XX=",
"=#$$#:...=...       ..::>>>>>XX=",
"=#$##:....=..        ..::>>>>X=.",
"=##@#:....=..         .::>>>>X=.",
"=@#+#:....=..         .::>>>>XX=",
"=@++@:...=...         .::XXXXXX=",
"=++@@:...=.............::XX==XX=",
"=@O+O::..=............::===..===",
"=++O++:..=...===..===:::........",
"=O+++:::.====...==...:::........",
"=OOO:=$::...........:::O=.......",
"=oO:=$=;:::........:::ooO=......",
"=O:=$=;::o:::::::::::oOooo=.....",
"=:=$=;::OoOO:::::::XOXOoOOX=....",
"==$=;::OXOXoOXoooooXOoXOXooo=...",
"=$=;::oXXXXoXoooooXXXooXXXoXo=..",
"==;::XoXoXoXoXoXXXooXooXoXXXoX=.",
"================================"}
