/* XPM */
static char * icon520[]={
"32 32 14 1",
/* colors */
"   c  #777777",
".  c  #666666",
"X  c  #555555",
"o  c  #444444",
"O  c  #222222",
"+  c  #ff0000",
"@  c  #ffffff",
"#  c  #dddddd",
"$  c  #cccccc",
"%  c  #bbbbbb",
"&  c  #aaaaaa",
"*  c  #999999",
"=  c  #888888",
"-  c  #ffcccc",
/* pixels */
"OOOOO@@@@@@@@@@@@@@@OOOOOOOOOOOO",
"OOOOOOO@@@@@@@@@@@@OOOOOOOOOOOOO",
"OOOOOOOO@@@@@@@@@@OOOOOOOOOOOOOO",
"OOOOOOOO@@@@@@@@@@@OOOOOOOOOOOOO",
"O--OOOOOO@@@@@@@@@@@OO----OOOOOO",
"O----OOOO@@@@@@@@@@o------OOOOOO",
"O-----OOOO@@@@@@@@@o------OOOOOO",
"O-----OOOO@@@@@@@@o-------OOOOOO",
"O-----OOOOO@@@@@@@o-------OOOOOO",
"O-----OOOOO@@@@@@@o--------OOOOO",
"O-----OOOOO@@@@@@@o--------OOOOO",
"Ooo---OOOOOo@@@@@@o-oo------OOOO",
"O--o---OOOOoo@@@@@o-ooo-------OO",
"O------OO-OXXo@@@@o-ooooo------O",
"O------O--OooXo@@o--o----------O",
"O------O--OX.XXoo--------------O",
"O---------O.X.Xo---------------O",
"O---------O....o---------------O",
"O---------O=.. .o------------OOO",
"O--------o   .= o-----------O++O",
"O--------o ==== o-----------O++O",
"O--------o **==*ooo---------OOOO",
"O------oo&&=***&=**o---------OOO",
"O------o==*&*&=&&oo------------O",
"O------o&&&&&&&&*o-------------O",
"O------o%%&&%*&&&o----------o--O",
"O------o%%%&&&%%%o--------oo---O",
"O------o%$%%$$%$$%oooooooo-----O",
"O-----o%#$$$$#$$$#%%$$$$%%o----O",
"O----o$$$##$%$#$%###$#$$##o----O",
"O---o#$######$############o----O",
"OOOOOOOOOOOOOOOOOOOOOOOOOOOOOOOO"}
