/* XPM */
static char * icon522[]={
"32 32 16 1",
/* colors */
"   c  #ffffff",
".  c  #dddddd",
"X  c  #cccccc",
"o  c  #ff9900",
"O  c  #bbbbbb",
"+  c  #aaaaaa",
"@  c  #663300",
"#  c  #999999",
"$  c  #888888",
"%  c  #777777",
"&  c  #ffff00",
"*  c  #666666",
"=  c  #555555",
"-  c  #444444",
";  c  #ff6600",
":  c  #ffcc00",
/* pixels */
"-        @@@@@@@@@@@            ",
"--     @@&&&&&&&&&&&@@          ",
"---   @&&&&&&&&&&&&&&&@         ",
"---- @&&&&@@@@@&&&&&&&&@        ",
"-=--@:&&@@@@@@@@@&&:&&::@       ",
"--=@&:&@@@@@@@@@@@&&&&&&@@      ",
"--=@:&:@@@@@    @@&&&&&:&@@     ",
"-*=@&:&:@@@      @@::&:::@@     ",
"-*=@::&:&&:@      @&::&&:@@@    ",
"-%=@:&&&::::@     @::::::@@@    ",
"-==@:::::::o@@   @:oo:::@@@@    ",
"-**@@:o:oo::@@@  @::::::@@@@    ",
"-*$@@@:o:oo@@@@ @o::oo:@@@@     ",
"-$*%@@@@@@@@@@@@oo:o:o@@@@@     ",
"-%%%%@@@@@@@@@@o:oo:o@@@@@      ",
"-%$%%$@@@@@@$@ooo;oo@@@@@       ",
"-%%$##$%%$###@;o;;;@@@@@        ",
"-#$$$####$$#@o;ooo@@@@@         ",
"-$$$##+$###+@o;oo@@@@@          ",
"-$$#$++$####@;;o;@@@@           ",
"-++#+##++#++@;;;@@@@@           ",
"-++++#+++++#@@@@@@@@@-          ",
"-++OO+O##OO+@@@@@@@@#O-         ",
"-++O++O++O++@@@@@@@O+O+-        ",
"-OX+OOOOO+O@;;;;;@XO+O+O-       ",
"-OX+OX+XO+@;;ooo;;@OOXXXO-      ",
"-OXOXOXOXX@;o:::o;@@OOXXOX-     ",
"-OXXXXOXX.@;;ooo;;@@@XX.XOX-    ",
"-XXO.XO.XX@@;;;;;@@@@X.OX.OX-   ",
"-.X.......X@@@@@@@@@@X...X.X.-  ",
"-......XX...@@@@@@@@.X..X.....- ",
"--------------------------------"}
