/* XPM */
static char * icon524[]={
"32 32 9 1",
/* colors */
"   c  #777777",
".  c  #444444",
"X  c  #0099ff",
"o  c  #0000dd",
"O  c  #000000",
"+  c  #ffffff",
"@  c  #dddddd",
"#  c  #110000",
"$  c  #888888",
/* pixels */
".+++++++++++++++++++++++++++++++",
"..++++++++++++++++++++++++++++++",
".$.+++++++++++++++++++++++++++++",
".$$.++++++++++++++++++++++++++++",
".$$$.+++++++++++++++++++++++++++",
".$$$$.++++++++++++++++++++++++++",
".$$+.+.+.+.+.+.+.+.+.+.+.+.+.+ .",
".$+.+.+.+.+.+.+.+.+.+.+.+.+.+. .",
".@+++++++++++++++++++++++++++@ .",
".@+##++++###+##+####++++##+++@ .",
".@+#########################+@ .",
".@+++++++++++++++++++++++++++@ .",
".OOOOOOOOOOOOOOOOOOOOOOOOOOOO@ .",
".@+++++++++++++++++++++++++++@ .",
".@+++++++++++++++++++++++++++@ .",
".@+OOOOO+OO++OOOOOOOOOOOOOOO+@ .",
".@+++++++++++O+++++++++++++O+@ .",
".@+OOOOOOO+++O+++++++++XXo+O+@ .",
".@+++++++++++O+++++XXo+XXo+O+@ .",
".@+OOO+OO+O++O+++++XXo+XXo+O+@ .",
".@+++++++++++O+XXo+XXo+XXo+O+@ .",
".@+OOOOO+OO++O+XXo+XXo+XXo+O+@ .",
".@+++++++++++O+XXo+XXo+XXo+O+@ .",
".@+O+OOOOOO++O+XXo+XXo+XXo+O+@ .",
".@+++++++++++O+XXo+XXo+XXo+O+@ .",
".@+OOOO++OO++OOOOOOOOOOOOOOO+@ .",
".@+++++++++++++++++++++++++++@ .",
".@@@@@@@@@@@@@@@@@@@@@@@@@@@@@ +",
"..............................++",
"..............................++",
".$$$$$$$$$$$$$$$$$$$$$$$$$$$$$.+",
"................................"}
