/* XPM */
static char * icon525[]={
"32 32 3 1",
/* colors */
"   c  #00dd00",
".  c  #0000ff",
"X  c  #ffffff",
/* pixels */
"XXXXXXXXXXX  ...    XXXXXXXXXXXX",
"XXXXXXXXX   ....... ..XXXXXXXXXX",
"XXXXXXX..    ...........XXXXXXXX",
"XXXXXX..     ..  ........XXXXXXX",
"XXXXX..    ...  ..........XXXXXX",
"XXXX..      .. ............XXXXX",
"XXX...        ..............XXXX",
"XX....      .................XXX",
"XX....  .....................XXX",
"X..... ...................... XX",
"X..... ...................... XX",
".............................  X",
"........ ...................   X",
"............................   X",
".............................  X",
"............ . ..............  X",
"............    .............  X",
"...........       .............X",
"..........         ............X",
"..........         ............X",
"..........         ............X",
"X..........           .........X",
"X..........           ........XX",
"X............        .........XX",
"XX...........        ........XXX",
"XXX..........       ........XXXX",
"XXX..........     ..........XXXX",
"XXXX........     ..........XXXXX",
"XXXXXX......   ..........XXXXXXX",
"XXXXXXX..... ...........XXXXXXXX",
"XXXXXXXXX.............XXXXXXXXXX",
"XXXXXXXXXXX........XXXXXXXXXXXXX"}
