/* XPM */
static char * icon526[]={
"32 32 10 1",
/* colors */
"   c  #666666",
".  c  #555555",
"X  c  #3366ff",
"o  c  #333333",
"O  c  #000000",
"+  c  #ffffff",
"@  c  #dddddd",
"#  c  #bbbbbb",
"$  c  #aaaaaa",
"%  c  #888888",
/* pixels */
"++++++++++ooooo+++++++++++++++++",
"+++++++++o#####o++++++++++++++++",
"+++++++ooo++++#oooooooo+++++++++",
"++++++o+++++++#########o++++++++",
"++++++o+++++++++++++++#o++++++++",
"++++++o++XXXXXX+++++++#o++++++++",
"++++++o+++++++++++++++#o++++++++",
"++++++o++XXXXXXXXX++++#o++++++++",
"++++++o+++++++++++++++#o++++++++",
"++++++o++XXXXXX+++++++#o++++++++",
"ooo+++o+++++++++++++++#o+++ooo++",
" $ +++o++++oo++++oo+++#o+++ $ ++",
" $ oooO####oO####oO####oooo $ ++",
" # o  oOOOOoOOOOOoOOOOOo  o # ++",
" + o$$ ####oO####oO#### $$o + ++",
" % o   ####oO####oO####   o % ++",
" % ooo ################ ooo % ++",
"   oo+ ################ +oo   ++",
"o o+ + ################ + +   ++",
"ooo+ + ################ + +ooo++",
"++++ + ################ + ++++++",
"++++ + ################ + ++++++",
"++++ + ################ + ++++++",
"++++ +  ##############  + ++++++",
"++++ + .              . + ++++++",
"++++ + o..............o + ++++++",
"++++ + +oooooooooooooo+ + ++++++",
"++++ @ ++++++++++++++++ @ ++++++",
"++++ $ ++++++++++++++++ $ ++++++",
"++++ % ++++++++++++++++ % ++++++",
"++++ooo++++++++++++++++ooo++++++",
"++++++++++++++++++++++++++++++++"}
