/* XPM */
static char * icon528[]={
"32 32 4 1",
/* colors */
"   c  #996600",
".  c  #ffffff",
"X  c  #cc9900",
"o  c  #663300",
/* pixels */
"................X...............",
"...............XXX..............",
"...............XXX..............",
"..............XXXXX.............",
"..............XXXX .............",
".............XXXXXXX............",
".............  X XXX............",
"............ X XXX XX...........",
"............XX ..... ...........",
"........... X........X..........",
"........... ....................",
".......... .....................",
".......... ..  X X .............",
".........X..X  XX   ............",
"......... .XX.       ...........",
"........ .  .XX XoX   ..........",
"........   ..  X o    ..........",
"....... X ..     o oX ... ......",
".......  ...o o     o ... ......",
"......oo ... o    o   ... o.....",
"......oo ...   oo o o ...  .....",
".....  oo...   oo     ..o   ....",
".....o  o....       o ..o   ....",
"....oooo .... oo   oo..o .o o...",
"....oo o .....o o ooo. o.oooo...",
"...oo  o  ..... o oo.oo.. o  o..",
"...oo   oo......oo o  .. oooo ..",
".. o o  ooo............oooo ooo.",
".. o oo o oo.......... oo o oo .",
".o o ooooo   o......ooooo o oo o",
".ooo ooo ooooo oo oo o ooooooooo",
"................................"}
