/* XPM */
static char * icon535[]={
"32 32 3 1",
/* colors */
"   c  #111111",
".  c  #0000ff",
"X  c  #ffffff",
/* pixels */
"XXXX.X.X.X.X.X.X.X.X.X.X.X.XXXXX",
"XXXXXXXXXXXXXXXXXXXXXXXXXXXXXXXX",
"XXXX.XXXXXXXXXXXXXXXXXXXXX.XXXXX",
"XXXXXXXXXXXXXXXXXXXXXXXXXXXXXXXX",
"XXXX.XXXXXXXXXXXXXXXXXXXXX.XXXXX",
"XXXXXXXXXXXXXXXXXXXXXXXXXXXXXXXX",
"XXXX.XXXXXXXXXXXXXXXXXXXXX.XXXXX",
"XXXXXXXXXXXXXXXXXXXXXXXXXXXXXXXX",
"XXXX.XXXXXXXXXXXXXXXXXXXXX. XXXX",
"XXX XXXXXXXXXXXXXXXXXXXXXXXX XXX",
"XX X.XXXXXXXXXXXXXXXXXXXXX. X XX",
"X X XXXXXXXXXXXXXXXXXXXXXXXX X X",
" X X X X XXXXXXXXXXXXXX X X X X ",
"XXXXXXXXX XXXXXXXXXXXX XXXXXXXXX",
" XXXXXXXXX XXXXXXXXXX XXXXXXXXX ",
"XXXXXXXXXXX XXXXXXXX XXXXXXXXXXX",
" XXXXXXXXXXX X X X X XXXXXXXXXX ",
"XXXXXXXXXX XXXXXXXXXX XXXXXXXXXX",
" XXXXXXXX XXXXXXXXXXXX XXXXXXXX ",
"XXXXXXXX XXXXXXXXXXXXXX XXXXXXXX",
" XXXXXX XXXXXXXXXXXXXXXX XXXXXX ",
"XXXXXX XXXXXXXXXXXXXXXXXX XXXXXX",
" XXXX XXXXXXXXXXXXXXXXXXXX XXXX ",
"XXXX XXXXXXXXXXXXXXXXXXXXXX XXXX",
" XX XXXXXXXXXXXXXXXXXXXXXXXX XX ",
"XX XXXXXXXXXXXXXXXXXXXXXXXXXX XX",
" XXXXXXXXXXXXXXXXXXXXXXXXXXXXXX ",
"X X X X X X X X X X X X X X X XX",
"XXXXXXXXXXXXXXXXXXXXXXXXXXXXXXXX",
"XXXXXXXXXXXXXXXXXXXXXXXXXXXXXXXX",
"XXXXXXXXXXXXXXXXXXXXXXXXXXXXXXXX",
"XXXXXXXXXXXXXXXXXXXXXXXXXXXXXXXX"}
