/* XPM */
static char * icon536[]={
"32 32 5 1",
/* colors */
"   c  #000000",
".  c  #0000ff",
"X  c  #ffffff",
"o  c  #dddddd",
"O  c  #aaaaaa",
/* pixels */
"XXXXX                      XXXXX",
"XXXXX oooooooooooooooooooo XXXXX",
"XXXXX oX.....XXXXXXXXXXXXo XXXXX",
"XXXXX oXXXXXXXXXXXXXXXXXXo XXXXX",
"XXXXX oX.....XXXXXXXXXXXXo XXXXX",
"XXXXX oXXXXXXXXXXXXXXXXXXo XXXXX",
"XXXXX oXXXXXXXXXXXXXXXXXXo XXXXX",
"XXXXX oX....XXXXXXXXXXXXXo XXXXX",
"XXXXX oXXXXXXXXXXXXXXXXXXo XXXXX",
"XXXX  oX..X.......X.....Xo  XXXX",
"XX    oXXXXXXXXXXXXXXXXXXo    XX",
"X     oX....X..X.......XXo     X",
"         XXXXXXXXXXXXXX         ",
" Oooooooo XXXXXXXXXXXX oooooooO ",
" Ooooooooo XXXXXXXXXX ooooooooO ",
" Oooooooooo XXXXXXXX oooooooooO ",
" OooooooooO          OooooooooO ",
" OoooooooO OOOOOOOOOO OoooooooO ",
" OooooooO OooooooooooO OooooooO ",
" OoooooO OooooooooooooO OoooooO ",
" OooooO OooooooooooooooO OooooO ",
" OoooO OooooooooooooooooO OoooO ",
" OooO OooooooooooooooooooO OooO ",
" OoO OooooooooooooooooooooO OoO ",
" OO OooooooooooooooooooooooO OO ",
" O OooooooooooooooooooooooooO O ",
"  OOOOOOOOOOOOOOOOOOOOOOOOOOOO  ",
"                                ",
"XXXXXXXXXXXXXXXXXXXXXXXXXXXXXXXX",
"XXXXXXXXXXXXXXXXXXXXXXXXXXXXXXXX",
"XXXXXXXXXXXXXXXXXXXXXXXXXXXXXXXX",
"XXXXXXXXXXXXXXXXXXXXXXXXXXXXXXXX"}
