/* XPM */
static char * icon537[]={
"32 32 10 1",
/* colors */
"   c  #0066ff",
".  c  #0099ff",
"X  c  #000000",
"o  c  #00ccff",
"O  c  #00ffff",
"+  c  #0000ff",
"@  c  #ffffff",
"#  c  #cc9966",
"$  c  #ffff99",
"%  c  #0033ff",
/* pixels */
"@@@++++++++++++++++++++++++++++@",
"@@@+++++%++++++++++++++++++++++@",
"@@@%++%%%+%++++%%%%++++++++++++@",
"@@@+%%%++++++%%%%+%+++++++++%++@",
"@@@%%%++%%++%+%%%+++++++++%%%%%@",
"@@@%%%%%%%%%%%%%+++++++++%%%%%%@",
"@@@%%%%%%%%%%%%%+++++++++%%%%%%@",
"@@@%%%%%%+%%+%%+%+%+%+%++++  %%@",
"@@@%%%%% % ++ %%%%%%%%%%%% %%% @",
"@@@%  % %%          %%%% %%  %%@",
"@@@..  ... %. .          .     @",
"@@@ . .  ...  . .    .... . ...@",
"@#########################.  ..@",
"#$$$$$$$$$$$$$$$$$$$$$$$$$#...o@",
"#$$$$$$$$$$$$$$$$$$$$$$$$$#....@",
"#$$$$#################$$$$#..oo@",
"#$$$#XXXXXXXXXXXXXXXXX#$$$#oooo@",
"#$$#XXXXXXXXXXXXXXXXXXX@$$#oooo@",
"#$$#XXXXXXXXXXXXXXXXXXX@$$#ooOO@",
"#$$#XXXXXXXXXXXXXXXXXXX@$$#Oooo@",
"#$$#XXXXXXXXXXXXXXXXXXX@$$#OOOO@",
"#$$#XXXXXXXXXXXXXXXXXXX@$$#OOOO@",
"#$$#XXXXXXXXXXXXXXXXXXX@$$#OOOO@",
"#$$#XXXXXXXXXXXXXXXXXXX@$$#OOOO@",
"#$$#XXXXXXXXXXXXXXXXXXX@$$#OOOO@",
"#$$#XXXXXXXXXXXXXXXXXXX@$$#OOOO@",
"#$$#XXXXXXXXXXXXXXXXXXX@$$#OOOO@",
"#$$#XXXXXXXXXXXXXXXXXXX@$$#OOOO@",
"#$$$@XXXXXXXXXXXXXXXXX@@$$#OOOO@",
"#$$$$@@@@@@@@@@@@@@@@@$$$$#OOOO@",
"#$$$$$$$$$$$$$$$$$$$$$$$$$#OOOO@",
"###########################OOOO@"}
