/* XPM */
static char * message_board[]={
"32 32 15 1",
/* colors */
"   c  #555555",
".  c  #007700",
"X  c  #444444",
"o  c  #cc3366",
"O  c  #ff9999",
"+  c  #000000",
"@  c  #ffff00",
"#  c  #ffcc99",
"$  c  #008800",
"%  c  #ffffff",
"&  c  #ff6666",
"*  c  #cc9900",
"=  c  #bbbbbb",
"-  c  #0033ff",
";  c  #996633",
/* pixels */
"%%%%%%%%%%%&&%%%%%%%%%X%%%%%%%%%",
"%%%%%%%%%%&&O&%%%%%%% %X%%%%%%%%",
"%%%%%%%%%oo&&$$%%%%% %%%X%%%%%%%",
"%%%%%%%%%ooo.$@;%%% %%%%%X%%%%%%",
"%%%%%%%%%%o..*@@;% %%%-%%%X%%%%%",
"%%%%%%%%%%%.;**@@;%%%%%-%%%X%%%%",
"%%%%%%%%%%%%;;**@@;%%-%%-%%%X%%%",
"%%%%%%%%%%%%%;;**@@;%%-%%-%%%X%%",
"%%%%%%%%%%%%%%;;**@@;%%-%%-%%%X%",
"%%%%%%%%%%%%% =;;**@@;%%-%%-%%%X",
"%%%%%%%%%%%% %%=;;**;% %%%%%%%X%",
"%%%%%%%%%%% %%%%=;;;%% %%%%%%X%%",
"%%%%%%%%%% %%%-%%=;%%++%%%%%X%%%",
"%%%%%%%%%X%%%%%-%%=  ++%%%%X%%%%",
"%;;;;;%%%X%%%-%%-%%%%%%%%%X%%%%%",
";#####;%%%X%%%-%%-%%%%%%%X%%%%%%",
";######;;;;X%%%-%%-%%%%%X#;%%%%%",
";###########X%%%%%%%%%%X###;%%%%",
";;;;;;;;;;;;;;;;;;;;;;;;;;;;%%%%",
";###########################;%%%",
";###########################;%%%",
";###########################;%%%",
";###########################;%%%",
";###########################;%%%",
";###########################;%%%",
";###########################;%%%",
";###########################;%%%",
";###########################;%%%",
";###########################;%%%",
";###########################;%%%",
";###########################;%%%",
";;;;;;;;;;;;;;;;;;;;;;;;;;;;;%%%"}
