/* XPM */
static char * message_board[]={
"32 32 13 1",
/* colors */
"   c  #555555",
".  c  #444444",
"X  c  #000000",
"o  c  #996600",
"O  c  #0033cc",
"+  c  #ffcc99",
"@  c  #ff3300",
"#  c  #ffffff",
"$  c  #eeeeee",
"%  c  #dddddd",
"&  c  #cccccc",
"*  c  #bbbbbb",
"=  c  #aaaaaa",
/* pixels */
"######                   #######",
"###### ################# #######",
"###### ################# #######",
"###### #O#OOOO########## #######",
"###### ################# #######",
"###### #OOO#OOOOOOO#OOO# #######",
"###### ################# #######",
"###### #OOOOOOOO#OOOOOO# #######",
"###### ################# #######",
"###### oooooo##OOOOO#OO# #######",
"######o++++++o########## #######",
"###ooo++++++++oooooooooooooo####",
"##o+++++++++++++++++++++++++o###",
"##o+++++++++++++++++++++++++o###",
"##o+++++++++++++++++++++++++o###",
"...............................#",
".=============================.#",
".======*==*=*=====*=**======*=.*",
".===****==*==***====**==*===**.*",
".**=****************==******==.*",
".******&*******&******&&***&*&.*",
".&&&*&&&&*&***&***&****&***&&*.*",
".&&&&*&&XXXX&&&&&&&XXXX&**&&&&.*",
".&&%&&&&X@@@XXXXXXX@@@X&&&&&&&.*",
".&&&%&%&%XX@@@@@@@@@XX&&&&&&%%.*",
".%%%&%&%%%&XXXXXXXXX&%%%%%%&%%.*",
".%%%%$%%%%%%%%%$%%%$%%%$%%%%$$.*",
".%$%%$$%$$%$%%$%%%%$%$%%%$$%%$.*",
".$$$$%$$$$$%$%$$$$$$$$$$$$$$$$.*",
".$$$$$$$$$$$$$$$$$$$$$$$$$$$$$.*",
"...............................*",
"##******************************"}
