/* XPM */
static char * Help[]={
"32 32 6 1",
/* colors */
"   c  #ffcc00",
".  c  #ffff00",
"X  c  #ffffff",
"o  c  #ff6600",
"O  c  #ff9900",
"+  c  #663300",
/* pixels */
"XXXXXXXXX+++++++++++XXXXXXXXXXXX",
"XXXXXXX++...........++XXXXXXXXXX",
"XXXXXX+...............+XXXXXXXXX",
"XXXXX+....+++++........+XXXXXXXX",
"XXXX+ ..+++++++++.. ..  +XXXXXXX",
"XXX+. .+++++++++++......++XXXXXX",
"XXX+ . +++++XXXX++..... .++XXXXX",
"XXX+. . +++XXXXXX++  .   ++XXXXX",
"XXX+  . .. +XXXXXX+.  .. +++XXXX",
"XXX+ ...    +XXXXX+      +++XXXX",
"XXX+       O++XXX+ OO   ++++XXXX",
"XXX++ O OO  +++XX+      ++++XXXX",
"XXX+++ O OO++++X+O  OO ++++XXXXX",
"XXXX++++++++++++OO O O+++++XXXXX",
"XXXXX++++++++++O OO O+++++XXXXXX",
"XXXXXX++++++X+OOOoOO+++++XXXXXXX",
"XXXXXXXXXXXXX+oOooo+++++XXXXXXXX",
"XXXXXXXXXXXX+OoOOO+++++XXXXXXXXX",
"XXXXXXXXXXXX+OoOO+++++XXXXXXXXXX",
"XXXXXXXXXXXX+ooOo++++XXXXXXXXXXX",
"XXXXXXXXXXXX+ooo+++++XXXXXXXXXXX",
"XXXXXXXXXXXX+++++++++XXXXXXXXXXX",
"XXXXXXXXXXXX++++++++XXXXXXXXXXXX",
"XXXXXXXXXXXX+++++++XXXXXXXXXXXXX",
"XXXXXXXXXXX+ooooo+XXXXXXXXXXXXXX",
"XXXXXXXXXX+ooOOOoo+XXXXXXXXXXXXX",
"XXXXXXXXXX+oO   Oo++XXXXXXXXXXXX",
"XXXXXXXXXX+ooOOOoo+++XXXXXXXXXXX",
"XXXXXXXXXX++ooooo++++XXXXXXXXXXX",
"XXXXXXXXXX+++++++++++XXXXXXXXXXX",
"XXXXXXXXXXX+++++++++XXXXXXXXXXXX",
"XXXXXXXXXXXX+++++++XXXXXXXXXXXXX"}
