/* XPM */
static char * icon657[]={
"32 32 24 1",
/* colors */
"   c  #ffffff",
".  c  #dddddd",
"X  c  #ff6666",
"o  c  #550000",
"O  c  #bbbbbb",
"+  c  #aaaaaa",
"@  c  #770000",
"#  c  #888888",
"$  c  #777777",
"%  c  #990000",
"&  c  #555555",
"*  c  #444444",
"=  c  #996600",
"-  c  #111111",
";  c  #dd0000",
":  c  #000000",
">  c  #ff9999",
",  c  #660000",
"<  c  #ffcc00",
"1  c  #880000",
"2  c  #ffff66",
"3  c  #aa0000",
"4  c  #cc0000",
"5  c  #ee0000",
/* pixels */
"        XX;43434%%33%34X        ",
"      X444;;444333%%1%1%1X      ",
"    X;4;;4433333%3%%3111,,,X    ",
"   X55;;4>>44%33%%3%%11,1,,,X   ",
"  X54;4>>;344%3%%3311,%1,1,o,X  ",
"  ;;;4>;44433%%%313%1%%,1,1,oo  ",
" X;;;>;;434%33%%3111111111o,ooX ",
" 454;>444333%3%11%%111,,,1,,o,o ",
" 54;444444%%4%%%11,%,1,1,oo,o,o ",
"11111111@@@@@ooooooooooooooooooo",
" =====...+&&&&&::*********===== ",
" =<===....+$$$$::$$$$$$&&*=<=== ",
" =< ==.------*$::$-------*=< == ",
" =< <=.-*****+$::$-*****#*=< <= ",
" =< <=.-*2***++::$-**2**#*=< <= ",
" =< <=.-***2*+.::$-*2***#*=< <= ",
" =< <=.-**2**+.::+****2*#*=< <= ",
" =< <=.-*****+.::.*$****#*=< <= ",
" =< <=.*++++++.::.**$####*=< <= ",
" =< <=.........::...+$$$$*=< <= ",
" =< <=.........::....+$$$*=< <= ",
" =< <=......::.::.::..+$$&=< <= ",
" =< <=.......$.::.$....+$&=< <= ",
" =< <=.........::.......+$=< <= ",
" =< <=.........::........+=< <= ",
" =< <=.........::.........=< <= ",
" =< <=.........::.........=< <= ",
" =< <=.........::.........=< <= ",
" =< <=.........::.........=< <= ",
" =< <=::::::::::::::::::::=< <= ",
" =< <=$$$$$$$$$$$$$$$$$$$$=< <= ",
" =< <=OOOOOOOOOOOOOOOOOOOO=< <= "}
