/* XPM */
static char * icon658[]={
"32 32 27 1",
/* colors */
"   c  #0033cc",
".  c  #ffff33",
"X  c  #ffffff",
"o  c  #33ccff",
"O  c  #eeeeee",
"+  c  #dddddd",
"@  c  #000088",
"#  c  #cccccc",
"$  c  #996633",
"%  c  #bbbbbb",
"&  c  #aaaaaa",
"*  c  #999999",
"=  c  #888888",
"-  c  #003399",
";  c  #777777",
":  c  #666666",
">  c  #ffff00",
",  c  #555555",
"<  c  #444444",
"1  c  #333333",
"2  c  #222222",
"3  c  #111111",
"4  c  #000000",
"5  c  #3399ff",
"6  c  #0066cc",
"7  c  #000099",
"8  c  #663333",
/* pixels */
"X==============================X",
";oooo5ooo5oooo5ooo5ooo5oo5oo5oo;",
";.5o5oo5oooooooo5oo5o5o5ooo5o5.;",
";X.66o5o556o5o55o5o5oo5o5o565.X;",
";.X.65o565o565565656o565o656.X.;",
";$.X.6566656566665665656566.X.$;",
";>$.X.66666666 66666666666.X.$X;",
";X>$...6  6 6 66 66 66 66...$X>;",
";>X>$...  6   6  6     6...$X>X;",
";X>X>8...---  ----   6-...8X>X>;",
";>X>X8.$..7--- -7  -- ..$.8>X>X;",
";X>X>8.$$..7--7-77---..$$.8X>X>;",
";>X>X8.$X$..77@@777-..$>$.8>X>X;",
";X>X>8.$>X8..7@@@@7..8>X$.8X>X>;",
";>X>X8.$X>8...@@@@...8X>$.8>X>X;",
";X>X>8.$>X8.$..44..$.8>X$.8X>X>;",
";>X>X8.$X>8.$8.44.8$.8X>$.8>X>X;",
";X>8>8.$>88.$844448$.88X$.8X8X>;",
";>88X8.$X88.$434334$.88>$.8>88X;",
";X>8>8.$>X8.42222224.8>X$.8X8X>;",
";>X>X8.$X>841111111148X>$.8>X>X;",
";X>X>8.$>X4<<<<<<<<<<4>X$.8X>X>;",
";>X>X8.$X4,,,,,,,,,,,,4>$.8>X>X;",
";X>X>8.$<;::::;::::::;:<$.8X>X>;",
";>X>X8.<;;;;;;;;;;;;;;;;<.8>X>X;",
";X>X>8<==================<8X>X>;",
";>X>X,**&*&***************,>X>X;",
";X>X,%%&&&&&&&%%&&&%&&&%&&%,>X>;",
";>X,#####%######%%#####%##%#,>X;",
";X,+++++++++++++++++++++#++++,>;",
";,OOOOOOOOOOOOOOOOOOOOOOOOOOOO,;",
";;;;;;;;;;;;;;;;;;;;;;;;;;;;;;;;"}
