/* XPM */
static char * icon659[]={
"32 32 13 1",
/* colors */
"   c  #777777",
".  c  #ffffcc",
"X  c  #444444",
"o  c  #222222",
"O  c  #000000",
"+  c  #ff0000",
"@  c  #ffcc33",
"#  c  #ffffff",
"$  c  #eeeeee",
"%  c  #ffff99",
"&  c  #bbbbbb",
"*  c  #0000aa",
"=  c  #888888",
/* pixels */
"################################",
"XXXXXXXXXXXXXXXXXXXXXXXXXXXXXXXo",
"X%%%%%%%%%%%%%%%%%%%%%%%%%%%%%%o",
"X%+@%%%%%%%%%%%%%%%%%%%%%%%%+@%o",
"X%@@%%%%%%%%%*%%*%%*%*%%%%%%@@%o",
"X%%%%%%%%%%%%*%*%*%***%%%%%%%%%o",
"X%%%%%%%%%%**%%*%*%*%*%%%%%%%%%o",
"X%%%%%%%%%%%%%%%%%%%%%%%%%%%%%%o",
"X%%%%%%%%%%%%%%%%%%%%%%%%%%%%%%o",
"XXXXXXXXXXXXXXXXXXXXXXXXXXXXXXXo",
"X.. .... .... .... .... .... ..o",
"X.. .... .... .... .... .... ..o",
"X.. .... .... .... .... .... ..o",
"X..                          ..o",
"X.. .... .... .... .... .... ..o",
"X.. .... .... .... .... .... ..o",
"X.. .... .... .... .... .... ..o",
"X..                          ..o",
"X.. .... .... .... .... .... ..o",
"X.. .... .... .... .... .... ..o",
"X.. .... .... .... .... XXXXXXXX",
"X..                     X&&&&$#O",
"X.. .... .... .... .... X&&&$#O=",
"X.. .... .... .... .... X&&$#O=&",
"X.. .... .... .... .... X&$#O=&#",
"X..                     X$#O=&##",
"X.......................X#O=&###",
"ooooooooooooooooooooooooOO=&####",
"#&========================&#####",
"#&&&&&&&&&&&&&&&&&&&&&&&&&######",
"################################",
"################################"}
