/* XPM */
static char * icon660[]={
"32 32 13 1",
/* colors */
"   c  #cccc99",
".  c  #111111",
"X  c  #000000",
"o  c  #3399ff",
"O  c  #3333cc",
"+  c  #ffcc33",
"@  c  #6699ff",
"#  c  #ffffff",
"$  c  #3366cc",
"%  c  #66ccff",
"&  c  #996633",
"*  c  #663300",
"=  c  #ffcccc",
/* pixels */
"#........OOOOOOOOOOOOOOOOOOOOOO#",
".XXXXXXXXX$$$$$$$$$$$$$$$$$$$$$O",
".XXXX===*$$$$$$$$$$$$$$$o$$$$$$O",
".XXX=====*$$$$$$o$$$$$$$$$$$$$$O",
".XXX======*$$$$$o$o$$o$$$$$$$$$O",
".XXX======*o$$$$$$$$o$$$$o$$oo$O",
".XX=======*XXXXXXoo$o$$$$$$$$$$O",
".XX=======*XXXXXXX$@$$$o$oo$$o$O",
".X========*XX+++*o$@@$o$$$@$$$oO",
".=========*X+++++*$$$o$$@@@$$$oO",
".=====**==*X+++++*$@$oo@$o$oo$$O",
".====**&==*++++++*XXXXX$$$$$@@@O",
".===*==*==*++++++*XXXXXX@o@@$ooO",
"===========*+**++*XX  XX$o@$o$@O",
"============**X++*X    Xoo@$$$oO",
"=============**++*      X%%@@%%O",
"==============*++*      Xo%%oo$O",
"============***+++*     Xo%$oooO",
"============*++++++*    Xoo@o@@O",
"============*+++++++*   X@@%oo@$",
"==========***++++++++** Xo%oooo$",
"=========*++++++++++**& X@%%@%%$",
"==========**+++++++*  *  X%%@o%$",
"============*++++++*      X%%%%$",
"===========*+++++***       X%%%$",
"===========*++++*          X%%@$",
"===========*+++++**       X%%%@$",
"===========*+++++++*      X%%%%$",
"=======****+++++++*       X%%%%$",
"======*+++++++++++*     XXX%%%%$",
"======*+++++++++++*    XX%%%%%%$",
"======&&&&&&&&&&&&&************#"}
