/* XPM */
static char * icon661[]={
"32 32 13 1",
/* colors */
"   c  #777777",
".  c  #555555",
"X  c  #ffff00",
"o  c  #000000",
"O  c  #cccc33",
"+  c  #ff3366",
"@  c  #880000",
"#  c  #999900",
"$  c  #ffffff",
"%  c  #ff6666",
"&  c  #ffff99",
"*  c  #aaaaaa",
"=  c  #ee0000",
/* pixels */
"$$$$$$ oooo$$$$$$$$$$$$$$$$$$$$$",
"$$$$$ oo * o$$$$$$$$$$$$$$$$$$$$",
"#####oo *$* o###################",
"#OOOOoo *$$* oOOOOOOOOOOOOOOOOO#",
"#OOOO.oo *$$* oOOOOOOOOOOOOOOOO#",
"#OOOOOooo *$$* oOOOOOOOOOOOOOOO#",
"#OOOOOOooo *$$* oOOOOOOOOOOOOOO#",
"#OOOOOOOooo *$$*ooOOOOOOOOOOOOO#",
"#OOOOOOO.ooo *$$*oOOOOOOOOOOOOO#",
"#OOOOOOO.*ooo *$o&&XOOOOOOOOOOO#",
"#OOOOOOO.*oooo o&&&&&XOOOOOOOOO#",
"#OOOOOOO.$oOooo&&&&&&&XOOOOOOOO#",
"#OOOOOOO.$oOOo&&&&&&&&&&XOOOOOO#",
"#OOOOOOO.$oOOO&&&&&&&&&&&&XOOOO#",
"#OOOOOO..$o.OOX&&&&&&&&&&&&XOOO#",
"#OOOOOOo.$ooOOO&&&&&&&&&&&&&&XO#",
"#OOOOOOO.$oOOOOX&&&&&&&&&&&&&&&#",
"#OOOOOOO.$oOOOOO&&&&&&&&&&&&&&&O",
"#OOOOOOO.$oOOOOOX&&&&&&&&&&&&&&O",
"#OOOOOOO.$oOOOOOO&&&&&&&&&&&&&&O",
"#OOOOOOO.$oOOOOOOX&&&&&&&&&&&&&O",
"#OOOOOOO.$oOOOOOOO&&&&&&&&&&&&&O",
"#OOOOOOO.$oOOOOOOOX&&&&&&&&&&&&O",
"#OOOOOOO.$oOOOOOOOO&&&&&&&&&&&&O",
"#OOOOOOo$$$oOOOOOOOX&&&&&&&&&&&O",
"#OOOOOo$*.*$oOOOOOOO&&&&&&&&&&&O",
"@====o$*.=.*$o======+%%%%%%%%%%%",
"@===o$*.===.*$o======+%%%%%%%%%%",
"@==o$*.=====.*$o======+%%%%%%%%%",
"@=o$*.=======.*$o======+%%%%%%%%",
"@=======================+%%%%%%%",
"@@@@@@@@@@@@@@@@@@@@@@@@=+%%%%%%"}
