/* XPM */
static char * Chat_rows[]={
"32 32 16 1",
/* colors */
"   c  #ffffff",
".  c  #eeeeee",
"X  c  #dddddd",
"o  c  #ff6666",
"O  c  #cccccc",
"+  c  #bbbbbb",
"@  c  #770000",
"#  c  #888888",
"$  c  #777777",
"%  c  #555555",
"&  c  #444444",
"*  c  #222222",
"=  c  #000000",
"-  c  #0000ee",
";  c  #aa0000",
":  c  #ee0000",
/* pixels */
" ;:o:;@;:o:;@;:oo:;@;:o:;@;:o:; ",
"@;:o:;@;:o:;@;:oo:;@;:o:;@;:o:;@",
"@;:o:;@;:o:;@;:oo:;@;:o:;@;:o:;@",
"@;:o:;@;:o:;@;:oo:;@;:o:;@;:o:;@",
"@;:o:;@;:o:;@;:oo:;@;:o:;@;:o:;@",
"&@;:;@$@;:;@$@;::;@$@;:;@$@;:;@&",
"&$@@@$$$@@@$$$@@@@$$$@@@$$$@@@$&",
"&$$$$$$#$$$$$$$$$$##$$$#$$$$$$$&",
"%#####=======#####$=======#####%",
"%###==+     +==##==+     +==###%",
"%#==+         +==+         +==#%",
"%=+           =+             +=%",
"%= ------ - --= ------ - ---  =%",
"*+           =+               +=",
"=  ------- --=  - ----- --     =",
"=+           =+               +=",
"%= ----- -----= --- - -----   =%",
"%=+           =+             +=%",
"%+==+         +==+         +==+%",
"%+++==+     +==++==+     +==+++%",
"%O+O+O==  ===O+++O+==  ===OOO++%",
"%OOOOOO=  =OOOOOOOOO=  =OOOOOOO%",
"%OOOOOO= +=OOOOOOOOO= +=OOOOOOO%",
"$XOOOO=++=OXOOXOOOO=++=XOOOOXOO$",
"$XXXX====XXXXXXXXX====XXXXXXXXX$",
"$XXXXXXXXXXXXXXXXXXXXXXXXXXXXXX$",
"$XXXXX===...X.===..X.X===XXXX.X$",
"$..X.=====...=====...=====...X.$",
"$....=====...=====...=====.....$",
"$.  ======= =======.======= .  $",
"$$$$=======$=======$=======$$$$$",
"                                "}
