/* XPM */
static char * icon663[]={
"32 32 15 1",
/* colors */
"   c  #777777",
".  c  #555555",
"X  c  #444444",
"o  c  #770000",
"O  c  #000000",
"+  c  #aa0000",
"@  c  #ffffff",
"#  c  #ff6666",
"$  c  #bbbbbb",
"%  c  #996633",
"&  c  #aaaaaa",
"*  c  #888888",
"=  c  #663300",
"-  c  #ffcccc",
";  c  #ee0000",
/* pixels */
"@+;##;+o+;##;+o+;##;XXXXXXXXXXX@",
"o+;##;+o+;##;+o+;##;+XOOOOOOOOOX",
"o+;##;+o+;##;+o+;##;+o%--XOOOOOX",
"o+;##;+o+;##;+o+;##;+%----XOOOOX",
"o+;##;+o+;##;+o+;##;%-----XOOOOX",
"o+;##;+o+;##;+o+;##;%-----XOOOOX",
"o+;##;+o+;##;+o+;##;%------OOOOX",
"o+;##;+o+;##;+o+;##;%------XOOOX",
"o+;##;+o+;##;+o+;##;%-==----XOOX",
"o+;##;+o+;##;+o+;##;%-%==----XOX",
"o+;##;+o+;##;+o+;##;%-%--=---XOX",
"o+;##;+o+;##;+o+;##%---------XOX",
"o+;##;+o+;##;+o+;#%----------XXX",
"o+;##;+o+;##;+o+;%--------------",
"o+;##;+o+;##;+o+%---------------",
"o+;##;+o+;##;+o+%%%-------------",
"o+;##;+o+;##;+o+;#%-------------",
"o+;##;+o+;##;+o+;#%-------------",
"o+;##;+oOOO#;+o+;#%%%-----------",
"o+;##;+X* XO;+o+;##;+%----------",
"o+;##;X$@$*XO+o+;##%%-----------",
"o+;##O$@@@$XXOo+;#%-------------",
"o+;##O*$@$& XOo+;##%------------",
"o+;##OX*$* XXOo+;##%------------",
"o+;##OOX XXXO+o+;##%------------",
"o+;#O*OOXXXO;+o+;##%------------",
"o+;O*@*OOOO#;+o+;##;%%%%--------",
"o+O*@*OO+;##;+o+;##;+o++%----..*",
"oO*@*O+o+;##;+o+;##;+o+;%-...@@*",
"O*@*O;+o+;##;+o+;##;+o+...@@@@@*",
"*@*O#;+o+;##;+o+;##;+o.@@@@@@@@*",
"@*O##;+o+;##;+o+;##;+o.********@"}
