/* XPM */
static char * Center_Stage[]={
"32 32 17 1",
/* colors */
"   c  #ffffff",
".  c  #ff6666",
"X  c  #996633",
"o  c  #cc0099",
"O  c  #bbbbbb",
"+  c  #aaaaaa",
"@  c  #770000",
"#  c  #888888",
"$  c  #777777",
"%  c  #ffff00",
"&  c  #ffffcc",
"*  c  #555555",
"=  c  #444444",
"-  c  #222222",
";  c  #000000",
":  c  #ee0000",
">  c  #ff99ff",
/* pixels */
" o.:o>o.:o>o.:o>o.:o>o.:o>o.:o  ",
">o.:o>o.:o>o.:o>o.:o>o.:o>o.:o> ",
">o.:o>o.:o>o.:o>o.:o>o.:o>o.:o> ",
">o.:o>o.:o>o.:o>o.:o>o.:o>o.:o> ",
">o.:o>o.:o>o.:o>o.:o>o.:o>o.:o> ",
">o.:o>o.:o>o.:o>o.:o>o.:o>o.:o> ",
">o.:o>o.:o>o.:o>;;;o>o.:o>o.:o> ",
">o.:o>o.:o>o.:o;# #;>o.:o>o.:o> ",
">o.:o>o.:o>o.:;=   =;o.:o>o.:o> ",
">o.:o>o.:o>o.:;=# #=;o.:o>o.:o> ",
">o.:o>o.:o>o.:;;===;;o.:o>o.:o> ",
">o.:o>o.:o>o.; ;;;;;>o.:o>o.:o> ",
">o.:o>o.:o>o; O;;;;o>o.:o>o.:o> ",
">o.:o>o.:o>; O;>o.:o>o.:o>o.:o> ",
">o.:o>o.:o; O;;>o.:o>o.:o>o.:o> ",
">o.:o>o.:; O; ;>o.:o>o.:o>o.:o> ",
">o.:o>o.; O;; ;>o.:o>o.:o>o.:o> ",
"=oooo=o; O;=; ;=oooo=ooo@=oooo= ",
"========;;==; ;================ ",
"============; ;================ ",
"************; ;**************** ",
"************; ;**************** ",
"%&&&&&&&&&&&; ;&&&&&&&&&&&&&&&% ",
"%&&&&&&&&&&;; ;;&&&&&&&&&&&&&&% ",
"X&&&&&&&&;-*$+$*-;&&&&&&&&&&&&X ",
"X%X&&&&&;-*******-;&&&&&&&&&X%X ",
"X%X&X%X&&&&&&&&&&&&&&&&&X%X&X%X ",
"XXX;X%X&&X%X&&&&&&&X%X&&X%X;XXX ",
"    X%X;;X%X&&X%X&&X%X;;X%X     ",
"    XXX  X%X;;X%X;;X%X  XXX     ",
"         XXX  X%X  XXX          ",
"              XXX               "}
