/* XPM */
static char * GeoWorks[]={
"32 32 6 1",
/* colors */
"   c  #66ffff",
".  c  #555555",
"X  c  #009999",
"o  c  #000000",
"O  c  #aa0000",
"+  c  #ffffff",
/* pixels */
"++++++++++++++++++++++++++++++++",
"+++++++++++++++O++++++++++++++++",
"++++++++++++++OOO+++++++++++++++",
"+++++++++++++OOOOO++++++++++++++",
"++++++++++++OOOOOOO+++++++++++++",
"+++++++++++OOOOOOOOO++++++++++++",
"++++++++++OOoooooooOO+++++++++++",
"+++++++++Ooo       ooO++++++++++",
"++++++++Oo           oO+++++++++",
"+++++++Oo o           oO++++++++",
"++++++Oo o X           oO+++++++",
"+++++OOo. o            oOO++++++",
"++++OOoX oX X           oOO+++++",
"+++OOOo .X o            oOOO++++",
"++OOOOo o oX o          oOOOO+++",
"+OOOOOoX oo o  X        oOOOOO++",
"++OOOOo .o oX o  X      oOOOO+++",
"+++OOOo o oo oX o  X    oOOO++++",
"++++OOoX .o oo oX o  X XoOO+++++",
"+++++OOo o oo oo oX o  oOO++++++",
"++++++OoX o. oo oo oX XoO+++++++",
"+++++++OoX  o. oo oX XoO++++++++",
"++++++++OoXX  o. oX XoO+++++++++",
"+++++++++OooXX  X XooO++++++++++",
"++++++++++OOoooooooOO+++++++++++",
"+++++++++++OOOOOOOOO++++++++++++",
"++++++++++++OOOOOOO+++++++++++++",
"+++++++++++++OOOOO++++++++++++++",
"++++++++++++++OOO+++++++++++++++",
"+++++++++++++++O++++++++++++++++",
"++++++++++++++++++++++++++++++++",
"++++++++++++++++++++++++++++++++"}
