/* XPM */
static char * Apple_Logo[]={
"32 32 8 1",
/* colors */
"   c  #ffcc00",
".  c  #ff6633",
"X  c  #000000",
"o  c  #ff0000",
"O  c  #cc0099",
"+  c  #0066cc",
"@  c  #ffffff",
"#  c  #00bb00",
/* pixels */
"@@@@@@@@@@@@@@@@@@@@@@@@@@@@@@@@",
"@@@@@@@@@@@@@@@@@@##@@@@@@@@@@@@",
"@@@@@@@@@@@@@@@@####@@@@@@@@@@@@",
"@@@@@@@@@@@@@@@####@@@@@@@@@@@@@",
"@@@@@@@@@@@@@@#####@@@@@@@@@@@@@",
"@@@@@@@@@@@@@#####@@@@@@@@@@@@@@",
"@@@@@@@@@@@@@#####@@@@@@@@@@@@@@",
"@@@@@@@@@@@@#####@@@@@@@@@@@@@@@",
"@@@@@@@@@@@@###@@@@@@@@@@@@@@@@@",
"@@@@@@####@@#@@####@@@@@@@@@@@@@",
"@@@@#################@@@@@@@@@@@",
"@@@###################@@@@@@@@@@",
"@@###################@@@@@@@@@@@",
"@@                  @@@@@@@@@@@@",
"@                  @@@@@@@@@@@@@",
"@                  @@@@@@@@@@@@@",
"@..................@@@@@@@@@@@@@",
"@..................@@@@@@@@@@@@@",
"@..................@@@@@@@@@@@@@",
"@ooooooooooooooooooo@@@@@@@@@@@@",
"@@ooooooooooooooooooo@@@@@@@@@@@",
"@@ooooooooooooooooooooo@@@@@@@@@",
"@@@OOOOOOOOOOOOOOOOOOO@@@@@@@@@@",
"@@@OOOOOOOOOOOOOOOOOOO@@@XXX@@@@",
"@@@@OOOOOOOOOOOOOOOOO@@@X@@@X@@@",
"@@@@+++++++++++++++++@@X@XX@@X@@",
"@@@@@+++++++++++++++@@@X@X@X@X@@",
"@@@@@@+++++++++++++@@@@X@XX@@X@@",
"@@@@@@@++++@@@++++@@@@@X@X@X@X@@",
"@@@@@@@@@@@@@@@@@@@@@@@@X@@@X@@@",
"@@@@@@@@@@@@@@@@@@@@@@@@@XXX@@@@",
"@@@@@@@@@@@@@@@@@@@@@@@@@@@@@@@@"}
