/* XPM */
static char * Intuit[]={
"32 32 2 1",
/* colors */
"   c  #ffffff",
".  c  #0000aa",
/* pixels */
"                                ",
"                                ",
"         ...         ...........",
"         ...          ..........",
"         ...           .........",
"                        ........",
"   ...                   .......",
"   ...                   .......",
"   ...                    ......",
"      ...   ...           ......",
"      ...   ...           ......",
"      ...   ...           ......",
"...      ...   ...    ... ......",
"...      ...   ...    ...  .....",
"...      ...   ...    ...  .....",
"   ...                      ....",
"   ...                      ....",
"   ...                       ...",
"                             ...",
"                          ......",
"                          ......",
"                          ......",
"                          ......",
"                          ......",
"                         .......",
"                      ..........",
"                     ...........",
"                     ...........",
"                     ...........",
"                     ...........",
"                                ",
"                                "}
