/* XPM */
static char * Color_Skyline[]={
"32 32 22 1",
/* colors */
"   c  #ffff33",
".  c  #0000dd",
"X  c  #ffffff",
"o  c  #000088",
"O  c  #6699ff",
"+  c  #bbbbbb",
"@  c  #aaaaaa",
"#  c  #0000ff",
"$  c  #ffcc66",
"%  c  #ffff00",
"&  c  #0000aa",
"*  c  #ffffcc",
"=  c  #3333ff",
"-  c  #000000",
";  c  #0000cc",
":  c  #ffff99",
">  c  #33ffff",
",  c  #0000ee",
"<  c  #000099",
"1  c  #ffcccc",
"2  c  #ffff66",
"3  c  #0000bb",
/* pixels */
"XXXXXXXXXXXO#=======OXXXXXXXXXXX",
"XXXXXXXXXO##$###1#####OXXXXXXXXX",
"XXXXXXXXO##############OXXXXXXXX",
"XXXXXXXXX#X,#,+,##$,##OXXXXXXXXX",
"XXXXXXX*X,,,,,,#,,#,#,**XXXXXXXX",
"XXXXXX**XX,,X,,,>,,,,*X*XXXXXXXX",
"XXXXXX*X**.,,,,.,.,,.******XXXXX",
"XXXX*******.,.$..,X,*****XX*XXXX",
"XXO********.........*:::*:***OXX",
"XO.***:****:....1..:******:*..OX",
"X..;:::***::....;.;**:*::::;.;;X",
"O;X.;*:::::::.>.;;::**:::*;.;.;O",
";;.;;;2::2*:2;;;;;:*2:*22;;;;;;;",
";;;3+;;22:2:22;3;2:2::2*;;;;+;;3",
";;33;;3;2:22:2;33::::22;;33;3;;3",
"3;$;33@33222:::32:2:2:;;;3@333$;",
"33333333&322222O2222:333&3333333",
"33&&13&&X&3:22O2:2223333$3&&>33&",
"&&&&&3&&&3332 2 O2 &333&&33&3&&3",
"&&>&&&@&&&$&&2O   &&&&@&3&1&&&&&",
"&&<&&&&&&&&&&<22 &&<&&&&&&&<+++<",
"<@&<$<+++&&<&<  2<&<><&<<<&&+-+<",
"<<&&&<+-+<<<&% <  <<<<+++&<<+-+<",
"<<<<<<+-+<&<  <<<  <o<+-+<><+-+<",
"+++<<<+-+++< <<<<o%o+++-+ooo+-+<",
"--+o<<+----Xooo+++++----+++++-++",
"---+++----X-ooo+----X-----------",
"---------X--++++-----X----------",
"--------------------------------",
"--------------------------------",
"--------------------------------",
"--------------------------------"}
