/* XPM */
static char * Professional_Organization[]={
"32 32 12 1",
/* colors */
"   c  #ffcc66",
".  c  #996600",
"X  c  #ffcc33",
"o  c  #ffffff",
"O  c  #eeeeee",
"+  c  #dddddd",
"@  c  #ffff99",
"#  c  #cccccc",
"$  c  #bbbbbb",
"%  c  #996633",
"&  c  #aaaaaa",
"*  c  #663300",
/* pixels */
"ooooooooooooooo*oooooooooooooooo",
"oooooooooooooo*@*ooooooooooooooo",
"ooooooooooooo*@@@*oooooooooooooo",
"oooooooooooo*@@*@@*ooooooooooooo",
"ooooooooooo*@@*%*@@*oooooooooooo",
"oooooooooo*@@*%%%*@@*ooooooooooo",
"ooooooooo*@@*%%  %*@@*oooooooooo",
"oooooooo*@@*%%    %*@@*ooooooooo",
"ooooooo*@@*%%      %*@@*oooooooo",
"oooooo*@@*%%        %*@@*ooooooo",
"ooooo*@@*%%          %*@@*oooooo",
"oooo*@@*%%            %*@@*ooooo",
"ooo*@@*%%              %*@@*oooo",
"oo*@@*%%                %*@@*ooo",
"o*@@*%%                  %*@@*oo",
"*******************************o",
"*@@@@@@@@@@@@@@@@@@@@@@@@@@@@@*o",
"*@@@@@@@@@@@@@@@@@@@@@@@@@@@@@*o",
"*******************************o",
"o*  @@@  *o*  @@@  *o*  @@@  *oo",
"oo*******OOO*******OOO*******ooo",
"oo. .@. *OOO. .@. *OOO. .@. *ooo",
"oo. .@. *+O+. .@. *+O+. .@. *ooo",
"oo. .@. *+++. .@. *+++. .@. *ooo",
"oo. .@. *+##. .@. *+##. .@. *ooo",
"oo. .@. *$&$. .@. *$&$. .@. *ooo",
"oo. .@. *&$&. .@. *&$&. .@. *ooo",
"oo. .@. *+##. .@. *+##. .@. *ooo",
"oo. .@. *+++. .@. *+++. .@. *ooo",
"oo. .@. *+O+. .@. *+O+. .@. *ooo",
"o.X @@@  *O.X @@@  *O.X @@@  *oo",
"o*********O*********O*********oo"}
