/* XPM */
static char * Outdoor_Sports[]={
"32 32 19 1",
/* colors */
"   c  #ffffff",
".  c  #eeeeee",
"X  c  #dddddd",
"o  c  #cccccc",
"O  c  #bbbbbb",
"+  c  #aaaaaa",
"@  c  #663300",
"#  c  #999999",
"$  c  #888888",
"%  c  #ffcc66",
"&  c  #777777",
"*  c  #ffff00",
"=  c  #555555",
"-  c  #996600",
";  c  #222222",
":  c  #000000",
">  c  #cc9900",
",  c  #ffcc00",
"<  c  #ee0000",
/* pixels */
"               @@@@@@@@@        ",
"             @@---------@       ",
"           @@--->>------@       ",
"         @@--->,>>>,->--@       ",
"        @-->>>*,,,,->>>-=====   ",
"       @->>,**,***-,>>-=XXXXX=  ",
"      @->>*,*****-,,,>= <   <X= ",
"     @-,>******@-*,,>=X       X=",
"    @->,****@*@%@*,--=X  < <  X=",
"   @->>******@%@*,>>-=X       X=",
"   @-,,***@*@%@**;;;;=X  < <  X=",
"  @->,*****@%@*;;#:::=X       X=",
"  @->***@*@%@;;#+#=:::=X<   <X= ",
" @->,****@%@;##+oOO=:=o=XXXXX=  ",
" @>>**@*@%@;+#oXoXo.:..X=====;  ",
" @-,***@%@*;++OX   =:=  O&&&&;+ ",
"@--,**@%@*;++o.   =:::=  ooO#$: ",
"@--,,,-@**;=Oo   =:::::=  o+O=:+",
"@->,,-,**;+#==. =:::::::= oo=#$:",
"@->,-,,,*;#oo.=:::::::::::==O++:",
"@---,>>>,;$+Xo.:::::::::::ooOO#:",
"@--->,>>,;#+o..=:::::::::= oO+$:",
"@-->>>->>;++Oo..:::::::::.ooO+#:",
"@--->----;#OXX .=:::::::=oooo##:",
" @@@@@@@@+:OOo..X=:::::=.XXO+#: ",
"          =$+oOX.X:::::.ooOO++= ",
"           :+OOoo=....o=XOOO::  ",
"           =:::::OX...Xo:::::=  ",
"            =::::OooooO+::::=   ",
"             =:::++O+++O:::=    ",
"               =:$O++#+O:=      ",
"                +;;;;;;;+       "}
