/* XPM */
static char * Small_Business_II[]={
"32 32 23 1",
/* colors */
"   c  #ffffff",
".  c  #eeeeee",
"X  c  #dddddd",
"o  c  #6699ff",
"O  c  #996633",
"+  c  #bbbbbb",
"@  c  #aaaaaa",
"#  c  #ff99cc",
"$  c  #663300",
"%  c  #0000ff",
"&  c  #888888",
"*  c  #777777",
"=  c  #555555",
"-  c  #cc99ff",
";  c  #444444",
":  c  #000000",
">  c  #3399ff",
",  c  #9999ff",
"<  c  #ffcccc",
"1  c  #ff6699",
"2  c  #0099ff",
"3  c  #ff99ff",
"4  c  #ee0000",
/* pixels */
"         $$$$$$    ************;",
"        O$$$$$$$   *           ;",
"       O$$$$$$$$$  *           ;",
"  22222O$$<$$$$$$22*         % ;",
"  22222O$$<<$$$$$2>*    %   %  ;",
"  2222>O$<<<<<<$$>>*   % % %   ;",
"  >>>>2O$<<<<<<$$2>*  %   %    ;",
"  2>>>>$<<$<$$<<$>>* %       : ;",
"  >>>>>O<< <$<<<$>>*% . . . .:.;",
"  >>>>>>O< <$<<O>>>*........:..;",
"  >>>>>>O<<<<<<O>>>*.X.X.X.X:X.;",
"  >>>>>>O<<$$<<O>>>*XXXXXXX:XXX;",
"  >o>>oo>O<<<<Oo>>>;;;;;;;:;;;;;",
"  >>>ooo>O<OO<O>oo>oooooo>:>ooo ",
"  o>oooo>O####O>oo>oo>oo$$$>>oo ",
"  ,ooooo========ooo,ooo$<<<$ooo ",
"  o,o====  11  ====o,oo$< <<$,o ",
"  o,=X  X= 11 =XXX =o,o$<< <$,o ",
"  ,=X    X=44=X    X=,,,$<<<$,, ",
"  ,=      X44X      =,,=====,,- ",
"  =X       44       X=-=   =-,- ",
"  =        44        X=X  X=--- ",
" =X    X   44         =   =---- ",
" =    =X   44    =X   =   =---- ",
"=X   =+X   44    @=      X=---- ",
"=   ====== 44   X@=X     =----- ",
"=        =$$4   X&==X    =-33-- ",
"=XXXXXXXX=<<$   +&= =X  X=-3--- ",
" =+++++++=<<<$ X@&=  =XX=333-3- ",
"$$$$$$$$$$$$$$$$$$$$$$$$$$$$$$$$",
"$OOOOOOOOOOOOOOOOOOOOOOOOOOOOOO$",
"$$$$$$$$$$$$$$$$$$$$$$$$$$$$$$$$"}
