/* XPM */
static char * Educational_Institution[]={
"32 32 16 1",
/* colors */
"   c  #ffffff",
".  c  #eeeeee",
"X  c  #dddddd",
"o  c  #aaaaaa",
"O  c  #663300",
"+  c  #0000ff",
"@  c  #888888",
"#  c  #ff0033",
"$  c  #777777",
"%  c  #555555",
"&  c  #996600",
"*  c  #222222",
"=  c  #ffff99",
"-  c  #aa0000",
";  c  #ff6699",
":  c  #ee0000",
/* pixels */
"                       %        ",
"               &&     % %       ",
"              &==&    % %++:    ",
"             &====&   % %++ :   ",
"            &==OO==&  %.%++  :::",
"           &==O-#O==& %.%:::   :",
"          &==O----O==&%.%    :::",
"         &==O-#####O==&.%:::   :",
"        &==O--------O==&%   :  :",
"       &==O-#########O==&    :::",
"      &==O------------O==&      ",
"     &==O-#############O==&     ",
"    &==O----------------O==&    ",
"   &==O-#################O==&   ",
"  &==O--------------------O==&  ",
" &==O######################O==& ",
"&OOO;######################OOOO&",
"    ;##----##------##----##-    ",
"    ;##-  ;##-****&##-  ;##-    ",
"    ;##-  ;##-****&##-  ;##-    ",
"    ;##-  ;##-%***&##-  ;##-    ",
"    ;##-@@;##-$%**&##-@@;##-    ",
"    ;##-@@;##-$$%*&##-@@;##-    ",
"    ;##-@@;##-$$$%&##-@@;##-    ",
"    ;##-;;;##-$$$$&##-;;;##-    ",
"    ;########-$$$$&########-    ",
"    ;########-$$$$&########-    ",
"    ;#######oooooooo#######-    ",
"    ;#######o      %#######-    ",
"   .;######oooooooooo######-.   ",
"  ..-------o        %-------..  ",
" ..XXXXXXXXo%%%%%%%%%XXXXXXXX.. "}
