/* XPM */
static char * icon692[]={
"32 32 4 1",
/* colors */
"   c  #ccccff",
".  c  #000000",
"X  c  #ffffff",
"o  c  #9999ff",
/* pixels */
"XXXXXXXXXXXXXXXXXXXXXXXXXXXXXXXX",
"XXXXXXXXXXXXXXXXXXXXXXXXXXXXXXXX",
"XXXXXXXXXXXXXXXXXXXX...XXXXXXXXX",
"XXXXXXXXXXXXXXXXXXXX...XXXXXXXXX",
"XXXXXXXXXXXXXXXXXXXX...XXXXXXXXX",
"XXXXXXXXXXXXXXXXXXXX...XXXXXXXXX",
"XXXXXXXXXXXXXXXXXX.......XXXXXXX",
"XXXXX.......XXXXXXX.....XXXXXXXX",
"XXXX.       .XXXXXXX...XXXXXXXXX",
"XXX.         .XXXXXXX.XXXXXXXXXX",
"XX.           .XXXXXXXXXXXXXXXXX",
"X.             ...............XX",
".                             .X",
".XXXXXXXXXXXXXXXXXXXXXXXXXXXXX.X",
".X X X X X X X X X X X X X X o.X",
". X X X X X X X X X X X X X Xo.X",
".X X X X X X X X X X X X X X o.X",
". X X X X X X X X X X X X X Xo.X",
".X X X X X X X X X X X X X X o.X",
". X X X X X X X X X X X X X Xo.X",
".X X X X X X X X X X X X X X o.X",
". X X X X X X X X X X X X X Xo.X",
".X X X X X X X X X X X X X X o.X",
". X X X X X X X X X X X X X Xo.X",
".X X X X X X X X X X X X X X o.X",
". X X X X X X X X X X X X X Xo.X",
".X X X X X X X X X X X X X X o.X",
". X X X X X X X X X X X X X Xo.X",
".X X X X X X X X X X X X X X o.X",
". X X X X X X X X X X X X X Xo.X",
".X X X X X X X X X X X X X X o.X",
"...............................X"}
