/* XPM */
static char * Stored_passwords[]={
"32 32 11 1",
/* colors */
"   c  #777777",
".  c  #444444",
"X  c  #cc9933",
"o  c  #000000",
"O  c  #ffcc33",
"+  c  #ffffff",
"@  c  #eeeeee",
"#  c  #dddddd",
"$  c  #ffff99",
"%  c  #bbbbbb",
"&  c  #996633",
/* pixels */
"++++++++++++++++++++++++++++++++",
"+++++++++++++++++++++++&&&&&++++",
"++++++++++++++++++++++&OOOOX&+++",
"+++++++++++++++++++++&OOoooOX&++",
"++++++++++++++++++++&OO$OoOOOX&+",
"++++++++++++++++++++&O$OOOOOOX&+",
"+++++++%ooooo%++++++&O$OOOOOOX&+",
"+++++%oo#+++#oo%++++&OO$OOOOOX&+",
"++++%o#+++++++#o%++++&OOOOOOX&++",
"++++o#++%ooo%++#o+++++&OOOOO&+++",
"+++%o++%o%%%o%++o%+++++&OXO&++++",
"+++o#+%o%++++o%+%o+++++&OXO&++++",
"+++o+%o%++++++o+%o%++++&OXO&++++",
"+++o+%o%++++++o+%o%++++&OXO&++++",
"+++o+%o%++++++o+%o%++++&OXO&++++",
"+ooooooooooooooooooo+++&OX&+++++",
".+++++++++++++++++++ ++&OX&+++++",
".+@@@@@@@@@@@@@@@@@@ .+&OX&+++++",
".+@################@ .+&OX&+++++",
".+@################@ .+&OX&+++++",
".+@################@ .+&OX&+++++",
".+@################@ .+&O&++++++",
".+@################@ .++&+++++++",
".+@################@ .++++++++++",
".+@################@ .++++++++++",
".+@################@ .++++++++++",
".+@################@ .++++++++++",
".+@################@ .++++++++++",
".+@@@@@@@@@@@@@@@@@@ .++++++++++",
"+                   ..++++++++++",
"++...................+++++++++++",
"++++++++++++++++++++++++++++++++"}
