/* XPM */
static char * icon707[]={
"32 32 3 1",
/* colors */
"   c  #ccccff",
".  c  #000000",
"X  c  #ffffff",
/* pixels */
"XXX...................XXXXXXXXXX",
"XXX.X X X X X X X X X..XXXXXXXXX",
"XXX. X X X X X X X X . .XXXXXXXX",
"XXX.X X X X X X X X X.  .XXXXXXX",
"XXX. X X X X X X X X .   .XXXXXX",
"XXX.X X X X X X X X X.    .XXXXX",
"XXX. X X X X X X X X .......XXXX",
"XXX.X X X X X X X X X X X X.XXXX",
"XXX. X X X X X X X X X X X .XXXX",
"XXX.X X X X X X X X X X X X.XXXX",
"XXX. X X X X X X X X X X X .XXXX",
"XXX.X X X X X X X X X X X X.XXXX",
"XXX. X X X X X X X X X X X .XXXX",
"XXX.X X X X X X X X X X X X.XXXX",
"XXX. X X X X X X X X X X X .XXXX",
"XXX.X X X X X X X X X X X X.XXXX",
"XXX. X X X X X X X X X X X .XXXX",
"XXX.X X X X X X X X X X X X.XXXX",
"XXX. X X X X X X X X X X X .XXXX",
"XXX.X X X X X X X X X X X X.XXXX",
"XXX. X X X X X X X X X X X .XXXX",
"XXX.X X X X X X X X X X X X.XXXX",
"XXX. X X X X X X X X X X X .XXXX",
"XXX.X X X X X X X X X X X X.XXXX",
"XXX. X X X X X X X X X X X .XXXX",
"XXX.X X X X X X X X X X X X.XXXX",
"XXX. X X X X X X X X X X X .XXXX",
"XXX.X X X X X X X X X X X X.XXXX",
"XXX. X X X X X X X X X X X .XXXX",
"XXX.X X X X X X X X X X X X.XXXX",
"XXX. X X X X X X X X X X X .XXXX",
"XXX.........................XXXX"}
