/* XPM */
static char * icon750[]={
"32 32 31 1",
/* colors */
"   c  #ffffff",
".  c  #cccccc",
"X  c  #00ee00",
"o  c  #999999",
"O  c  #666666",
"+  c  #ffff00",
"@  c  #007700",
"#  c  #333333",
"$  c  #000000",
"%  c  #00bb00",
"&  c  #dddddd",
"*  c  #ffcc00",
"=  c  #aaaaaa",
"-  c  #004400",
";  c  #777777",
":  c  #444444",
">  c  #33ffff",
",  c  #111111",
"<  c  #00dd00",
"1  c  #996633",
"2  c  #3399cc",
"3  c  #008800",
"4  c  #ff9900",
"5  c  #eeeeee",
"6  c  #bbbbbb",
"7  c  #888888",
"8  c  #33ccff",
"9  c  #555555",
"0  c  #222222",
"q  c  #00aa00",
"w  c  #005500",
/* pixels */
"               ::               ",
"              :;;:              ",
" >>>>>>>>>>>>=;$$::>>>>>>>>>>>> ",
">8>8>8>8>8>8>=$&;$:>8>8>8>8>8>8>",
"8>8>8>8>8>8>866&;::8>8>8>8>8>8>8",
"888888888888856&;::8888888888888",
"888888888888856&;::8888888888888",
"888888888888856&;::8888888888888",
"88888888888557&&;::::88888888888",
"888888885555&7&&;::::::888888888",
"888855555==7;7&&;::::::::::88888",
"85::::::::::::7&;:::::::::::::88",
"8888888888888:;&;::8888888888888",
"2828282828282:;;;::2828282828282",
"22828282828282:;::28282828282822",
"222222222222222::222222222222222",
"22222222222222222222222222222222",
"---------------$$---------------",
"--------------$11$--------------",
"-------------,,,,,,-------------",
"wwwwwwwwwwww00044000wwwwwwwwwwww",
"wwwwwwwwwww##########wwwwwwwwwww",
"@@@@@@@@@@9::9:44:9:::@@@@@@@@@@",
"333333333OO9OO4444O9OO9333333333",
"33333333;;;;;;;;;;;;;;;;33333333",
"qqqqqqq7777777****;77;;7;qqqqqqq",
"qqqqqqooooooo******oooooooqqqqqq",
"%%%%%======================%%%%%",
"<<<<66666.666++++++66.66666.<<<<",
"<<<&&&..&..&.++++++&.&....&.&<<<",
"XX5555555555++++++++5555555555XX",
"X555555555555555555555555555555X"}
