/* XPM */
static char * Rental_Cars_Color[]={
"32 32 18 1",
/* colors */
"   c  #000011",
".  c  #ffffff",
"X  c  #eeeeee",
"o  c  #dddddd",
"O  c  #000088",
"+  c  #bbbbbb",
"@  c  #aaaaaa",
"#  c  #663300",
"$  c  #0000ff",
"%  c  #777777",
"&  c  #555555",
"*  c  #444444",
"=  c  #000055",
"-  c  #996600",
";  c  #000022",
":  c  #ffcc00",
">  c  #ffff66",
",  c  #3366ff",
/* pixels */
"................................",
".....................,,,,,,,,...",
"....................,$$$$$$$$O..",
"............%%%%%%%%,$$$$$$$$Oo.",
"..%%.%%%...%.....oo+,$$$$OO$$O+o",
".%..%...%%%.oooooo.+,$$$O..,$O+o",
"%.oooooooooooooooo.+,$$$O-#,$O+o",
"%..................+,$$$->:,$O+o",
"%@ooooooooooooooooo+,$$-.>#,$O+o",
".&++&+++***+++++++++$$$-.-.$OO+o",
"..&&+***+++*++++++++OOO-.-OOOO+o",
"...o++o+++oo*********OO-.-OOO#+o",
"....oo.ooo...o+++===; O-.-O#:#+o",
"..............oo%@@==; ->-X#:#+o",
"...............%o@+@==;->-X#:-+o",
"..............%o++.@@==->-X->-+o",
".............%o++.+@@@=->-X->-+o",
"............%.oo.+++@&+->-X->-+o",
"...........%.oo.oo+&&++->-X->-+o",
"..........%.oo.ooo&++++->-X->-+o",
".........%.oo.oooo&++oo->>->>-+o",
"........%.oo.oooo&++oXX.->>>-++o",
".......%.oo.oo&&&+++o....---+++o",
".......%oo.oo&+++++oX....Xo+++oX",
"......%.o.oo&+++oooX......XoooX.",
".....%.o.ooo&++oXXX........XXX..",
".....%o.+&&&++oX................",
".....%oo%+++++o.................",
"......%%%++oooX.................",
".......o++oXXX..................",
"........oooX....................",
"........XXX....................."}
