/* XPM */
static char * icon752[]={
"32 32 11 1",
/* colors */
"   c  #555555",
".  c  #ff0000",
"X  c  #ffff00",
"o  c  #996600",
"O  c  #ff9933",
"+  c  #ffffff",
"@  c  #dddddd",
"#  c  #bbbbbb",
"$  c  #aaaaaa",
"%  c  #663300",
"&  c  #888888",
/* pixels */
"++++++++++++++++++++++++++++++++",
"++#          #+#             #++",
"oo $&&$&$&$&& o $&$&&&$&$&$&& oo",
"oX &@+@@@@@@& X &@@@@@@@+@@@& Xo",
"oO &@@@@@@@@$ O &@@+@@@@@@@+$ Oo",
"%% &@@+....@& % $@@@@@+@@@@@& %%",
"++ $@@.@@..@& + &+@@@@@@@+@@$ ++",
"++ &+@@@.+.@& + &@@@@+@@@@@@& ++",
"++ $@@@+...@$ + $@+@@@@@@@+@& ++",
"++ &@@+.@@.@& + &@@@@@@+@@@@& ++",
"++ &@..@@+.@$ + &@@@+@@@@@@@$ ++",
"++ &+@@@@@@@& + $@@@@@@@+@@@& ++",
"++ $@@@+@@+@& + &@@+@@@@@@@+& ++",
"++ &&&&&&&&&$ + $@@@@@+@@@@@$ ++",
"++ $@@@@+@@+& + &+@@@@@@@+@@& ++",
"++ $&&&&&&&&& + &@@@@+@@@@@@$ ++",
"++ &@@@@@@@@$ + $@+@@@....+@& ++",
"++ &@@+@@@@@& + &@@@@.@+..@@& ++",
"++ $&&&$&$&&$ + &@@@+@@.+.@@& ++",
"++$          $+ $@@@@@@...@@$ ++",
"+++++++++++++++ &@@+@@.@@.@+& ++",
"+++++++++++++++ &@@@..+@@.@@& ++",
"+++++++++++++++ $+@@@@@@@+@@$ ++",
"+++++++++++++++ &@@@@+@@@@@@& ++",
"+++++++++++++++ $@+@@@@@@@+@$ ++",
"+++++++++++++++ &&&&&&&&&&&&& ++",
"+++++++++++++++ &@@@+@@@@@@@& ++",
"+++++++++++++++ &&&&&&&&&&&&$ ++",
"+++++++++++++++ &@@+@@@@@@@+& ++",
"+++++++++++++++ &@@@@@+@@@@@& ++",
"+++++++++++++++ $&$&&$&&$&&$& ++",
"+++++++++++++++$             $++"}
