/* XPM */
static char * icon753[]={
"32 32 8 1",
/* colors */
"   c  #777777",
".  c  #ffffcc",
"X  c  #0000dd",
"o  c  #000000",
"O  c  #ffffff",
"+  c  #dddddd",
"@  c  #bbbbbb",
"#  c  #aaaaaa",
/* pixels */
"OOOOOOOOOOOOOOOOOOOOOOOOOOOOOOOO",
"OOOOOOOOOOOOOOOOOOOOOOOOOOOOOOOO",
"OOOOOOOOOooooooooooo##OOOOOOOOOO",
"OOOOOOOoo           oo##OOOOOOOO",
"OOOOOoo ############# oo##OOOOOO",
"OOOOo #+++++++++++++++# o##OOOOO",
"OOOo #+XXXXX...XXXXXXXX# o##OOOO",
"OOo #+XX...XX..X..XX..X+# o##OOO",
"OOo#+XX.....XX....XX....+#o##OOO",
"Oo #+XX.....XX....XX....+# o##OO",
"Oo #+XX.....XX....XX....+# o##OO",
"Oo #+XX.....XX....XX....+# o##+O",
"Oo #+XX.....XX....XX....+# o##+O",
"Oo #+XX.....XX....XX....+# o##+O",
"Oo #+.XX.X.XX.....XX....+# o##+O",
"OOo#+..XX.XX......XX....+#o##@+O",
"OOo #+..XXXX.....XXXX..+# o##++O",
"OOOo #+....X..X.......+# o##@+OO",
"OOOOo #+++..XX....++++# o##@++OO",
"OOOOOoo ##++....++### oo##@++OOO",
"OOOOOOOooo #+..+#   oo##@@++OOOO",
"OOOOOOOOOOoo ++ oooo##@@+++OOOOO",
"OOOOOOOOOOOo +## o##@@+++OOOOOOO",
"OOOOOOOOOOOo ## o##@+++OOOOOOOOO",
"OOOOOOOOOOo ## o##@++OOOOOOOOOOO",
"OOOOOOOOOo # oo##@++OOOOOOOOOOOO",
"OOOOOOOOo  oo##@@++OOOOOOOOOOOOO",
"OOOOOOOOooo##@@+++OOOOOOOOOOOOOO",
"OOOOOOOOO@@@@+++OOOOOOOOOOOOOOOO",
"OOOOOOOOOOO+++OOOOOOOOOOOOOOOOOO",
"OOOOOOOOOOOOOOOOOOOOOOOOOOOOOOOO",
"OOOOOOOOOOOOOOOOOOOOOOOOOOOOOOOO"}
