/* XPM */
static char * icon755[]={
"32 32 21 1",
/* colors */
"   c  #ffffff",
".  c  #aaaaaa",
"X  c  #663300",
"o  c  #008800",
"O  c  #777777",
"+  c  #ffff00",
"@  c  #ffffcc",
"#  c  #444444",
"$  c  #0066ff",
"%  c  #996600",
"&  c  #007700",
"*  c  #00ccff",
"=  c  #ffff99",
"-  c  #cc9900",
";  c  #33ffff",
":  c  #0000ee",
">  c  #005500",
",  c  #ffff66",
"<  c  #99ffff",
"1  c  #0099ff",
"2  c  #ee0000",
/* pixels */
"                                ",
"                                ",
"      #...                      ",
"       #...                     ",
"        #...                    ",
"   ;*1$  #..................O   ",
"          #... . . . . . .  .O  ",
"  <;;*11$  #222222222222222222O ",
"            #OOOOOOOOOOOOOOOOO# ",
"<<<;;**11$$  #################  ",
"                                ",
"                       ...#     ",
"                      ...#      ",
"                     ...#       ",
"  O....................#  $1*;  ",
" O.  . . . . . . .....#         ",
"O::::::::::::::::::::#  $11*;;< ",
"#OOOOOOOOOOOOOOOOOOO#           ",
" ###################  $$11**;;<<",
"                                ",
"                                ",
"         %           %          ",
"      %%%@%%%     %%%@%%%       ",
"     %@@@@@@@%   %@@@@@@@%      ",
"    %@@@@o@@@@% %@@@@o@@@@%     ",
" ---%@@@ooo@@@%X%@@@ooo@@@%X--- ",
"--++%@@o@o@o@@%X%@@o o@o@@%X-+-%",
"-+--%@@o@o@@@@%X%@@o@o@@@@%X--+%",
"-+--%@@@ooo@@@%X%@@@ooo@@@%X--+%",
"----%====&=&==%X%====&=&==%X---%",
"----%,,,,>,>,,%X%,,,,>,>,,%X---%",
"%%%%%%%%%%%%%%%X%%%%%%%%%%%%%%%%"}
