/* XPM */
static char * icon756[]={
"32 32 24 1",
/* colors */
"   c  #ffffff",
".  c  #dddddd",
"X  c  #000088",
"o  c  #cccccc",
"O  c  #996633",
"+  c  #bbbbbb",
"@  c  #ff9900",
"#  c  #aaaaaa",
"$  c  #999999",
"%  c  #888888",
"&  c  #66ffff",
"*  c  #777777",
"=  c  #ffff00",
"-  c  #666666",
";  c  #555555",
":  c  #444444",
">  c  #333333",
",  c  #222222",
"<  c  #111111",
"1  c  #000000",
"2  c  #ccffff",
"3  c  #33ffff",
"4  c  #ffcc00",
"5  c  #99ffff",
/* pixels */
"                                ",
"           #XXXXXXX#            ",
"         #XXX.   #XXX#          ",
"         XXX.     #XXX          ",
"        #XX.       #XX#         ",
" 3333333XXX333333333XXX33333333 ",
"33333333XXX333333333XXX333333333",
"33333333XXX333333333XXX333333333",
"&3333333XXX3&&333333XXX333333333",
"3333&33&XXX3&&3&&&&&XXX3&&&33&33",
"&&&&&3&&XXX#3&&&3&&3XXX&&&&&&33&",
"&&&&&&&&#XXX&&&&&33&XX#&&&&&3&&&",
"55&5&&&55XXXX&&&&5&XXX&&5&&&&5&&",
"&55&&5&55#XXXX&5&&XXX555&&5555&&",
"5555555&&555XXXXXXX&555555&&55&5",
"555255525552XXXX5555555555555552",
"25252552552XXXXXXXX55XX522522525",
"2225222552XX252XXXXXXX5222222255",
"522222222225222222XXX22522522222",
"22222222222222222222222222222222",
"***************11***************",
"**************1OO1**************",
"*************<<<<<<*************",
"************,,,@@,,,************",
"***********>>>>>>>>>>***********",
"**********;::;:@@:;:::**********",
"*********--;--@@@@-;--;*********",
"********************************",
"*******%%%%%%%4444*%%**%********",
"******$$$$$$$444444$$$$$$$******",
"*****######################*****",
"****+++++o+++======++o+++++o****"}
