/* XPM */
static char * CommToolbox_Icon[]={
"32 32 4 1",
/* colors */
"   c  #cccc99",
".  c  #000000",
"X  c  #999966",
"o  c  #ffffff",
/* pixels */
"................................",
".oooooooooooooooooooooooooooooo.",
".ooooooooooooo....ooooooooooooo.",
".oooooooooooo.oooX.oooooooooooo.",
".oooooooooooo.oo X.oooooooooooo.",
".oooooooooooo.o oX.oooooooooooo.",
".ooooooooooooo.o .ooooooooooooo.",
".o.............oo.............o.",
"..oooooooooooo o ooooooooooooX..",
"..o o o o o o o o o o o o o oX..",
".. o o o o o o o o . o o o o X..",
"..o o o o o o o o ..o o o o oX..",
".. o o o o . . o .o. o o o o X..",
"..o...o o o . o .o. o o o ...X..",
"...ooo.o o . . .o..o o o .ooo...",
".ooooo. o o o .o.o. o o o.ooooo.",
".ooooo.o o o .o.o..o o o .ooooo.",
"...ooo. o o .o.o....o o o.ooo...",
"..o... o o .o.....o. o o o...X..",
"..o o o o ... o o...o o o o oX..",
".. o o o o o o o .o. o o o o X..",
"..o o o o o o o o.o.o o o o oX..",
".. o o o o o o ....... o o o X..",
"..o o o o o o o.......o o o oX..",
"..XXXXXX o XXXXXXXXX o  XXXXXX..",
".o....... X.......... X.......o.",
".ooooooo.o .oooooooo.o .ooooooo.",
".oooooo.o oX.oooooo.o oX.oooooo.",
".oooooo. o X.oooooo. o X.oooooo.",
".oooooo.o oX.oooooo.o oX.oooooo.",
".ooooooo....oooooooo....ooooooo.",
"................................"}
