/* XPM */
static char * Japan_Color[]={
"32 32 10 1",
/* colors */
"   c  #ffff66",
".  c  #00aa00",
"X  c  #aa0000",
"o  c  #996600",
"O  c  #663333",
"+  c  #ffffff",
"@  c  #dddddd",
"#  c  #ffff99",
"$  c  #bbbbbb",
"%  c  #ff9900",
/* pixels */
"++++++++++++++++++++++++++++++++",
"+OO++++++++++++++++++++++++++OO+",
"OooO++++++++++OOOOO+++++++++OooO",
"O##oOOOOOOOOOOO%%%OOOOOOOOOOo##O",
"Oo############O% %O###########oO",
"+OooooooooooooO% %OoooooooooooO+",
"++OOOOOOOOOOOOO% %OOOOOOOOOOOO++",
"+++@$$OooO$$$$O%%%O$$$OooO$$@+++",
"++++@@O#oO@@@@OOOOO@@@O#oO@@++++",
"++++++O#oO++++@$$$@+++O#oO++++++",
"+OOOOOO#oOOOOOOOOOOOOOO#oOOOOOO+",
"O#####O#oO############O#oO#####O",
"OoooooO#oOooooooooooooO#oOoooooO",
"+OOOOOO#oOOOOOOOOOOOOOO#oOOOOOO+",
"++@$$$O#oO$$$$$$$$$$$$O#oO$$$@++",
"+++@@@O#oO$@@@@@@@@@@$O#oO@@@+++",
"++++++O#oO$@++++++++@$O#oO++++++",
"++++++O#oO$@++++++++@$O#oO++++++",
"++++++O#oO$@++++++++@$O#oO++++++",
"++++++O#oO$@++++++++@$O#oO++++++",
"++++++O#oO$@++++++++@$O#oO++++++",
"++++++O#oO$@++++++++@$O#oO++++++",
"++++++O#oO$@++++++++@$O#oO++++++",
"++++++O#oO$@++++++++@$O#oO++++++",
"++++++O#oO$@++++++++@$O#oO++++++",
"++++++O#oO$@++++++++@$O#oO++++++",
"++++++O#oO$@++++++++@$O#oO++++++",
"++++++O#oO$@++++++++@$O#oO++++++",
"++++XXXXXXXXXXXXXXXXXXXXXXXX++++",
"++XXXXXXXXXXXXXXXXXXXXXXXXXXXX++",
"................................",
"++++++++++++++++++++++++++++++++"}
