/* XPM */
static char * Top_News_Color[]={
"32 32 27 1",
/* colors */
"   c  #0033cc",
".  c  #ffffff",
"X  c  #eeeeee",
"o  c  #dddddd",
"O  c  #000088",
"+  c  #0099cc",
"@  c  #bbbbbb",
"#  c  #aaaaaa",
"$  c  #008800",
"%  c  #003399",
"&  c  #555555",
"*  c  #0066ff",
"=  c  #444444",
"-  c  #000055",
";  c  #007700",
":  c  #000000",
">  c  #0000cc",
",  c  #000077",
"<  c  #0066cc",
"1  c  #000099",
"2  c  #005500",
"3  c  #0033ff",
"4  c  #006699",
"5  c  #00bb00",
"6  c  #0099ff",
"7  c  #ee0000",
"8  c  #00aa00",
/* pixels */
".:.:.:.:.:.:.:.:.:.:.:.:.:.:....",
":o:X:X:X:X:X:X:X:X:X:X:X:X:#=...",
":oXXXXXXXXXXXXXXXXXXXXXXXXo&=o..",
":o>>>>>>>>>>>>>>>>>>>>>>>>o&=@X.",
":oXXXXXXXXXXXXXXXXXXXXXXXXo&=@oX",
":o7777X7XX777777777XXXX7XXo&=@oX",
":oX7X7X7XX7XX7..7..7XX7.7Xo&=@oX",
":oX7XXXX77XXX7..7..7XX7.7Xo&=@oX",
":oX777XX77XXX7..777XX7...7o&=@oX",
":oX7XXXX77XXX7..7..7X77777o&=@oX",
":oX7X7X7XX7XX7..7..7X7...7o&=@oX",
":o7777X7XX7X77777.--------o&=@oX",
":oXXXXXXXXXXXXXX--OOOOOOO--&=@oX",
":o3333333333333-OO % % % %O-=@oX",
":o>>>>>>>>>>>>-2222*<<<*< %1-@oX",
":oXXXXXXXXXXX-;$$$8;;666;<  ,-oX",
":o::::::::XX-;$$88888$6$8;6%OO-X",
":oXXXXXXXXXX-;$888855$6$88;< ,-X",
":o::::::::X-122;885555$88;6<%;$;",
":oXXXXXXXXX-O <6;5555558$66%;;$;",
":o::::::::X-1%6;5555555$6< ;88$;",
":oXXXXXXXXX-O ;5555555$666<;88$;",
":oooooooooo-O<;5555;;$666< ;88$;",
".::::::::::-1%;855;66$6666<1;8$;",
"..o@@@@@@@@-O<<;;5;66666666<1;2-",
"...Xooooooo#-  66;666666666< O-#",
"....XXXXXXX@-,<<<;66*< +6*< %O-@",
"............@- O <;*4O, <<<%1-@.",
".............@-OO<% $88$O<%1-@..",
"..............@-1O1$8888221-@...",
"...............@---$$$$$$--@....",
".................@#;;;;;;#@....."}
