/* XPM */
static char * Time_Icon_Color[]={
"32 32 7 1",
/* colors */
"   c  #ff9999",
".  c  #dd0000",
"X  c  #ffffff",
"o  c  #eeeeee",
"O  c  #dddddd",
"+  c  #bbbbbb",
"@  c  #ffcccc",
/* pixels */
"...............................X",
"...............................X",
"...............................O",
"...............................O",
"...............................O",
"...............................O",
"...............................O",
"...............................O",
"...............................O",
"...............................O",
"++OXXXXXXXXXXXXXXXXXXXXXXXXXX++O",
".......@...@X..XXXX@.@X@.......O",
".@+.+@.+@.@+X..XXXX@.@X+@.@XX@.X",
"@+O.O+@O+.+OO...XXX..@OX+.XXX@@O",
"+OO.OX+OX.OOX...XXX.. OXX.XX@.+O",
"XOX.OXXOX.OX@.@.oX. . OXX.....OO",
"XXX.OXXXX.OX .+..@.+..OXX.XX@.OX",
"XXX.OXXXX.OX. O...@O .oXX.XXX@@X",
"XX@.@XXX@.@X.@O+..+O@.@X@.XXX@.X",
"X@...@X@...@..OX..OO...@.......O",
"X+++++X+++++++OX++OX+++++++++++O",
"...............................O",
"...............................X",
"...............................O",
"...............................O",
"...............................O",
"...............................O",
"...............................O",
"...............................O",
"...............................O",
"...............................O",
"+++++++++++++++++++++++++++++++O"}
