/* XPM */
static char * Purchase_Icon_Color[]={
"32 32 15 1",
/* colors */
"   c  #777777",
".  c  #ff3333",
"X  c  #99ffff",
"o  c  #996600",
"O  c  #ffcc99",
"+  c  #ffffff",
"@  c  #eeeeee",
"#  c  #cc9966",
"$  c  #ffff99",
"%  c  #dddddd",
"&  c  #bbbbbb",
"*  c  #aaaaaa",
"=  c  #0000aa",
"-  c  #999999",
";  c  #888888",
/* pixels */
"++++++++++++++++++++++;;++++++++",
"+++++++++++++++++++++;XX;+++++++",
"++++++++++++++++++++;XXXX;++++++",
"+&&&&&&&&&&&&&&&&&&;XX==XX;+++++",
"&&&&&&&&&&&&&&&&&&;XX====XX;++++",
"&&&&&&&&&&&&&&&&&;XX=====XXX;+++",
"&&&&&&&&&&&&&&&&;XX=====XX.XX;++",
"&&&&&&&&&&&&&&&;XX=====XX...XX;+",
"&&&&&&&&&&&&&&;XX=====XX.....XX;",
"&&&&&&&&&&&&&;XX=====XX......XX;",
"&&&&&-oooooo;XX=====XX......XX;*",
"&&&-oo#####;XX=====XX......XX;*&",
"&&-o#OOOOO;XX=====XX......XX;*&%",
"&-o#OOOOO;Xooo===XX......XX; &%@",
"-o#OOOOO#;oO+$o=XX......XX; ;%@+",
"o#OOOOO##oO+$OoXX......XX; ;*@++",
"#OOOOO##o#o$O#oX......XX; ;*&+++",
"OOO#O##o#OOo#oX......XX; ;*&&+++",
"OOOO##o#OOOOo#oX....XX; ;*&&*+++",
"OOO#oo#OOOO#o#oXX..XX; ;*&**&+++",
"OO###OOO#O#o#Oo;XXXX; ;****&*+++",
"OOOOOOOOO#oOO#o ;XX; ;*******+++",
"OOOOOOOO#o###o ; ;; ;********+++",
"OOOOOOO#ooooo ;*;  ;****-***-+++",
"OOOOOO#o##Oo ;*-*;;**--**-*-*+++",
"OOOOO#o#OO#o --*-**--*-------+++",
"OOOO#oooooo ;--------------*-+++",
"####o#OO#o ;-----------------+++",
"ooooooooo ;------------------+++",
"        ;;-;-;-;-;-;-;-;-;-;;+++",
";;;;;;;-;-;-;;;-;;;-;;;-;;;-;+++",
"+;;;;;;;;;;;;;-;;;-;;;-;;;-;++++"}
