/* XPM */
static char * Inet_Mailing_Lists_Color_[]={
"32 32 32 1",
/* colors */
"   c  #003399",
".  c  #ffffff",
"X  c  #3399ff",
"o  c  #0000aa",
"O  c  #000055",
"+  c  #0099ff",
"@  c  #6666ff",
"#  c  #3333cc",
"$  c  #3366ff",
"%  c  #dddddd",
"&  c  #aaaaaa",
"*  c  #004400",
"=  c  #444444",
"-  c  #0066ff",
";  c  #000088",
":  c  #6699cc",
">  c  #336699",
",  c  #003366",
"<  c  #009933",
"1  c  #008800",
"2  c  #eeeeee",
"3  c  #00cc66",
"4  c  #bbbbbb",
"5  c  #ccffcc",
"6  c  #888888",
"7  c  #0099cc",
"8  c  #00ff99",
"9  c  #6666cc",
"0  c  #00ccff",
"q  c  #333399",
"w  c  #6699ff",
"e  c  #3366cc",
/* pixels */
"....%####################%......",
"...%#------------------#o#%.....",
"..%#--              --#ooo#%....",
"..#--  44444444444 --#ooooo#....",
".&#-   444=444=44 ---#ooooo#&...",
"%#--   44=====44 ---#ooooooo6...",
"6#-    444444444 ---#ooooooo#...",
"#--              --#oooooooo#...",
"#--  +0+0+0+0+0+0--#oooooooo#...",
"#--0+0+0+0+0+0+0+--#oooooooo#...",
"#------------------#oooooooo#...",
"#-;;;;;;;;;;;;;;7--#oooooooo#...",
"#-;%%%%%%%%%%%%%7--#oooooooo#...",
"#-;%%%46,,,64%%%7--#oooooooo#...",
"#-;%%4*1eeee*4%%7--#oooooooo#...",
"#-;%4*858@9e<*4%7--#oooooooo#...",
"#-;%685558w33<6%7--#oooooooo#...",
"#-;%*8858X:33<*%7--#oooooooo#...",
"#-;%*@888Xwe3<*%7--#oooooooo#...",
"#-;%*@88w:@9e<*%7--#oooooooo#...",
"#-;%6@388$9e>q6%7--#oooooooo#...",
"#-;%4*@333e>q*4%7--#oooooooo#...",
"#-;%%4*<<<<q*4%%7--#oooooooo#...",
"#-;%%%46***64%%%7--#oooooOOo#...",
"#-;%%%%%%%%%%%%%7--#ooooOOOo#...",
"#-;77777777777777--#oooO2OOo#...",
"#------------------#ooO%%OOo4222",
"#------------------#oO444OO44%%%",
"#-;;;;;;;;;;;;;;;--#oO44444444%2",
"#-;OO44444444444#--#oO4444444%2.",
"#-;O444444444444#--#oO444444%2..",
"#;;%%%%%%%%%%%%%#;;;O%%%%%%%2..."}
