/* XPM */
static char * Inet_Read_My_Newsgroups_Color[]={
"32 32 21 1",
/* colors */
"   c  #99cc66",
".  c  #cc9966",
"X  c  #ffffff",
"o  c  #dddddd",
"O  c  #000088",
"+  c  #996633",
"@  c  #bbbbbb",
"#  c  #660066",
"$  c  #66ffff",
"%  c  #666666",
"&  c  #555555",
"*  c  #993366",
"=  c  #0066ff",
"-  c  #ccffff",
";  c  #440000",
":  c  #3333cc",
">  c  #66ccff",
",  c  #ffff66",
"<  c  #99ffff",
"1  c  #339999",
"2  c  #ffcc99",
/* pixels */
"XXXXXXXXXXXXXXOOOOOXXXXXXXXXXXXX",
"XXXXXXXXXXXXXO=====OXXXXXXXXXXXX",
"XXXXXXXXXXXOO=======OOOOOOOOXXXX",
"XXXXXXXXXXO================:OXXX",
"XXXXXXXXXXO=OOOOOOOOOOOOOOO:OoXX",
"XXXXXXXXXXOO===============OO@oX",
"XXXXXXXXX;;;;;=============:O@oX",
"XXXXXXXX;*****;============:O@oX",
"XXXXXX;;*******;;;;;;;;====:O@oX",
"XXXXX;****************#;===:O@oX",
"XXXXX;*;;;;;;;;;;;;;;;#;===:O@oX",
"XXXXX;;***************;;===:O@oX",
"XXXXX;****************#;::::O@oX",
"XXXXX;****************#;OOOOO@oX",
"XXXXX+++++************#;@@@@@ooX",
"XXXX+,,,,,+***********#;@oooooXX",
"XX++,,,,,,,++++++++***#;@oXXXXXX",
"X+,,,,,,,,,,,,,,,,2+**#;@oXXXXXX",
"X+,...............2+###;@oXXXXXX",
"X+.,,,,,,,,,,,,,,,.+;;;;@oXXXXXX",
"X+,,,,,,,,,,,,,,,,2+@@@@ooXX&&XX",
"X+,,,,,,,,,,,,,,,,2+@ooooXX&&@&X",
"X+,,,,%%%%%%,,,,,%%%%%%XXX&&@o&X",
"X+,,,%>-<<<<%,,,%>- <<<%&&&@oX&X",
"X+,,%>--X-<<<%,%>--X-<<<%&@oXXoX",
"X+,,%-X--<<<<%%%-X--<<<<%@oXXXXX",
"X+22%<X-<<<$<%%%<X- <<$<%oXXXXXX",
"X+++%      > %+% -  <<><%XXXXXXX",
"XXo@%<<<<<<1<%@%<<<<<<1<%XXXXXXX",
"XXXo@%<<$>1>%@o@%<<$>1>%@XXXXXXX",
"XXXXo@%<<<<%@oXo@%<<<<%@oXXXXXXX",
"XXXXXo@%%%%@oXXXo@%%%%@oXXXXXXXX"}
