/* XPM */
static char * Inet_Latest_Newsgroups_Color[]={
"32 32 18 1",
/* colors */
"   c  #cc9966",
".  c  #ffffff",
"X  c  #eeeeee",
"o  c  #dddddd",
"O  c  #000088",
"+  c  #996633",
"@  c  #bbbbbb",
"#  c  #660066",
"$  c  #aaaaaa",
"%  c  #bb0000",
"&  c  #444444",
"*  c  #993366",
"=  c  #0066ff",
"-  c  #ffccff",
";  c  #440000",
":  c  #3333cc",
">  c  #ffff66",
",  c  #ffcc99",
/* pixels */
"..............OOOOO.............",
".............O=====O............",
"...........OO=======OOOOOOOO....",
"..........O================:O...",
"..........O=OOOOOOOOOOOOOOO:Oo..",
"..........OO===============OOo..",
".........;;;;;=============:O@..",
"........;*****;============:O&&.",
"......;;*******;;;;;;;;===:&&o.&",
".....;****************#;:&&o..o&",
".....;*;;;;;;;;;;;;;;;#&&o....&$",
".....;;*************#&&o......&o",
"....+++++*********#&&o...%.....&",
"...+>>>>>+******#&&o...%-%....o&",
".++>>>>>>>+++++&&o...%-%-%....&$",
"+>>>>>>>>>>>,&&o..-%-%-%-%....&o",
"+>         &&o...%%.-%-%-%....o&",
"+ >>>>>>,&&o....%...-%%-%%.....&",
"+>>>>>,&&o....%-%.-%-%%.-%...o&&",
"+>>>>&&o......%-%%%.-%-.....o&&$",
"+>>>&.....-%-.%-%...-%....o&&&$o",
"+>>>&o....-%%-%-%.-%-...o&&&$o..",
"+>>>>&....-%-%%-%%%...o&&&$o....",
"+>>>>&....-%.-%-%-..o&&&$o......",
"+,,,&.....-%..%-..o&&&$o........",
"++++&o....-%....o&&&$o..........",
".o$$$&....-%..o&&&$o............",
"..Xoo&......o&&&$o..............",
"...X&.....o&&&$o................",
"....&o..o&&&$o..................",
"....o&.&&&$o....................",
".....o&&$o......................"}
