/* XPM */
static char * Inet_Search_Newsgroups_Color[]={
"32 32 25 1",
/* colors */
"   c  #cc9966",
".  c  #ffffff",
"X  c  #eeeeee",
"o  c  #dddddd",
"O  c  #000088",
"+  c  #996633",
"@  c  #bbbbbb",
"#  c  #660066",
"$  c  #aaaaaa",
"%  c  #888888",
"&  c  #ffffcc",
"*  c  #555555",
"=  c  #444444",
"-  c  #993366",
";  c  #0066ff",
":  c  #000000",
">  c  #ccffff",
",  c  #666633",
"<  c  #440000",
"1  c  #cccc66",
"2  c  #3333cc",
"3  c  #66ccff",
"4  c  #ffff66",
"5  c  #339999",
"6  c  #ffcc99",
/* pixels */
".............OOOOO..............",
"............O;;;;;O.............",
"..........OO;;;;;;;OOOOOOOO.....",
".........O;;;;;;;;;;;;;;;;2O....",
".........O;OOOOOOOOOOOOOOO2Oo...",
".........OO;;;;;;;;;;;;;;;OO@X..",
"........<<<<<;;;;;;;;;;;;;2O@oX.",
".......<-----<;;;;;;;;;;;;2O@oX.",
".....<<-------<<<<<<<:;;;;2O@oX.",
"....<----------------#:;;;2O@oX.",
"....<-<<<<<<<<<<<<<<<#:;;;2O@oX.",
"....<<-----------*:::::;;;2O@oX.",
"....<----------*:::::::*222O@oX.",
"....<---------::::3>.>3:*OOO@oX.",
"....+++++----*::++  ++>>$*$@@oX.",
"...+44444+---::$6&&666+>>:*ooX..",
".++4444444++*:: 66   66+>$:$oX..",
"+44444444444::$&.4444 6+>>:*oX..",
"+4         4::4&.4444 6+3>::oX..",
"+ 4444444444::4&.4444 6+5>::oX..",
"+44444444444*:4&.4444 6+53::oX..",
"+44444444444$:$444444 6,3::*oX..",
"+444444444444*:444444  +3::$o...",
"+444444444444$:=44411+6+:::oX...",
"+4444444444444$::$444 ::::*o....",
"+44444444444444$*:::::::*:.:o...",
"+66666666666666666*:::*$$:=.:o..",
"+++++++++++++++++++@@@@oo$:=.:o.",
".o@@@@@@@@@@@@@@@@@@oooXXo$:=.=o",
"..XoooooooooooooooooXXX..Xo$:%.*",
"...XXXXXXXXXXXXXXXXX......Xo$=%.",
"...........................Xo$*@"}
