/* XPM */
static char * Inet_Update_All_As_Read_Color[]={
"32 32 19 1",
/* colors */
"   c  #ffffff",
".  c  #eeeeee",
"X  c  #ff6666",
"o  c  #dddddd",
"O  c  #000088",
"+  c  #996633",
"@  c  #bbbbbb",
"#  c  #660066",
"$  c  #aaaaaa",
"%  c  #bb0000",
"&  c  #993366",
"*  c  #0066ff",
"=  c  #dd0000",
"-  c  #ff0000",
";  c  #440000",
":  c  #3333cc",
">  c  #aa0000",
",  c  #ffff66",
"<  c  #ffcc99",
/* pixels */
"      OOOOO                     ",
"     O*****O                    ",
"   OO*******OOOOOO              ",
"  O***************O             ",
"  O*OOOOOOOO;;;;;OO             ",
"  OO*******;&&&&&;O             ",
"  O******;;&&&&&&&;;;;;;        ",
"  O*****;&&&&&&&&&&&&&&#;       ",
"  O*****;&;;;;;;;;;;;;;#;       ",
"  O*****;;&&&&&&&&&&&&&;;       ",
"  O*****;&&&&&&&+++++&&#;       ",
"  O:::::;&&&&&&+,,,,,+&#;       ",
"  OOOOOO;&&&&++,,,,,,,++++++    ",
"   o@@@@;&&&+,,,,,,,,,,,,,,<+   ",
"   .oooo;&&&+,+++++++++++++<+   ",
"   .....;###++,,,,,>%%,,,,,++   ",
"        ;;;;+,,,,>%-%>,,,,,<+   ",
"         o@@+,,,>%-%><,,,,,<+   ",
"         .oo+,,>%-%><,,,,,,<+   ",
"         ...+,>%X%><,,,,,,,<+   ",
"            +>%X%><,,,,,,,,<+   ",
"   %%$     o>%X%><<<<<<<<<<<+   ",
"   %X%>o  o>%X=>+++++++++++++   ",
"   $%X%>o >%-=%>$@@@@@@@@@@@o   ",
"   o>=-%>$>-==>$@ooooooooooo    ",
"   .$%=-%>%-=%>@o...........    ",
"    o>===%==%>$oo.              ",
"    .$======>$@o.               ",
"     o%====%>@o.                ",
"     .>===%>@o.                 ",
"      $%=%>@o.                  ",
"      o>>>o.                    "}
