/* XPM */
static char * Inet_Send_Message_Color[]={
"32 32 26 1",
/* colors */
"   c  #00ffff",
".  c  #ffffff",
"X  c  #eeeeee",
"o  c  #dddddd",
"O  c  #cccccc",
"+  c  #bbbbbb",
"@  c  #aaaaaa",
"#  c  #ffcc66",
"$  c  #777777",
"%  c  #ffff00",
"&  c  #ffffcc",
"*  c  #555555",
"=  c  #cc99ff",
"-  c  #444444",
";  c  #6699cc",
":  c  #222222",
">  c  #000000",
",  c  #ccffff",
"<  c  #ffff99",
"1  c  #66ccff",
"2  c  #336666",
"3  c  #ffcc00",
"4  c  #ffff66",
"5  c  #99ffff",
"6  c  #ccccff",
"7  c  #ffcc99",
/* pixels */
"...........................--...",
"...........................-o-..",
"..........................-@.o-.",
".........................-@,-@o:",
"$$$$$$$$$$$$............-@,@$->:",
"$@333333333@*.....$...--@,@$-:+o",
"+****$@+33%#@*...$&*..-o,@$-:+oX",
"o+$@33333%#%76*.$&&&*..-o--:+oX.",
"Xo+***$@+#%7%76$&&&&&*.>-@:+oX..",
".Xo+$@33#%7%74@&&&&&&&>++-:oX...",
"..Xo+***$@67<<&&2&&&&>=*+o.X....",
"....Xo+$6%44@&&&&&&&>===*XX.....",
".....Xo+***$&&2&&&2&&OOO=*......",
".......Xoo$&&&&2&&&2&&&&&&*.....",
"........X$&&2&&&2&&&2&&&&&6*....",
".......X$&&&&2&&&2&&&2&&&6*o....",
"5 1;;;X$&&2&&&&&&&&&&&2&6*+o....",
"......$&&&&2&&&2&&&2&&&6*+oX....",
".....X+*&&&&2&&&2&&&2&476*X.....",
".5 1;;;+*&&&&2&&&2&&&<7%7@*.....",
"......Xo+*&&&&2&&&2$47%7%#@*....",
".......Xo+*&&&&&&&&6467%#%3*....",
",5 11;;;;;+*&&&&2&6@%@%#%33*....",
".........Xo+*&&&&6$$6$#+333*....",
"..........Xo+*&&6*++$*3@3+3*....",
".,55  111;;;;+*6*+oo+$3$3@3*....",
"............Xo+*+oXXo$@*3$3*....",
".............Xo+oX..X+**3*3*....",
"..............XoX....o+$@*3*....",
"...............X.....Xo+**3*....",
".......................Xo$@*....",
"........................Xo**...."}
