/* XPM */
static char * Inet_Internet_Names_Color[]={
"32 32 17 1",
/* colors */
"   c  #ffffff",
".  c  #eeeeee",
"X  c  #dddddd",
"o  c  #bbbbbb",
"O  c  #ff99cc",
"+  c  #0000aa",
"@  c  #bb0000",
"#  c  #dd0000",
"$  c  #ccffff",
"%  c  #99cccc",
"&  c  #9999ff",
"*  c  #ff0099",
"=  c  #aa0000",
"-  c  #004400",
";  c  #99ffff",
":  c  #ff6699",
">  c  #ee0000",
/* pixels */
"   o--                    o-o   ",
"   -                      - -   ",
"    -o o--            o-- ---   ",
"     - -   - o-o -o-o -   -     ",
"   --o -   - - - -- - -   o--   ",
"       -   - - - -  - -         ",
"       o-- - --- -  - o--       ",
"           - -   -  -           ",
"    =>>>>>::::::::::**>##@=X.   ",
"    =>:O**:OOOOOOOOO**>##@=oX   ",
"     ===@@>>**::**>>@@====oX.   ",
"      =>:O**:OOOOO:*>##@=oX.    ",
"       =>:O**:OOO:*>##@=oX.     ",
"        =>:O**:O:*>##@=oX.      ",
"         =>:O**O*>##@=oX.       ",
"          =>:O:O>##@=oX.        ",
"           =>:OO##@=oX.         ",
"            =>:O#@=oX.          ",
"             =:O@=oX.           ",
"             =:O@=oX.           ",
"             =:O@=oX.           ",
"            &&%&%&&X.           ",
"           % % % % %.           ",
"          ; ;  ;  ; ;.          ",
"         $ $  $ $  $ $.         ",
"        .++++X.  ++++X++X..     ",
"        ++X.    ++X.. ++X..     ",
"        ++X.   ++X.   ++X..     ",
"        .++++X.++X.   ++X..     ",
"           .++X++X.   ++X..     ",
"           .++X.++X.  ++X..     ",
"        +++++X.  ++++X++X..     "}
