/* XPM */
static char * Inet_Databases_Color[]={
"32 32 26 1",
/* colors */
"   c  #99cc66",
".  c  #cc9966",
"X  c  #ffffff",
"o  c  #33ccff",
"O  c  #dddddd",
"+  c  #996633",
"@  c  #bbbbbb",
"#  c  #aaaaaa",
"$  c  #66ffff",
"%  c  #888888",
"&  c  #ffcc66",
"*  c  #777777",
"=  c  #555555",
"-  c  #444444",
";  c  #222222",
":  c  #007700",
">  c  #000000",
",  c  #336699",
"<  c  #ccffff",
"1  c  #330066",
"2  c  #3399cc",
"3  c  #99ff33",
"4  c  #99ffff",
"5  c  #66ff66",
"6  c  #663333",
"7  c  #ffcc99",
/* pixels */
"XXXXXXXXX666666#XXXXXXXXXXXXXXXX",
"XXXXXXXXX6+..+66#XXXXXXXXXXXXXXX",
"XXXXXXXXX6+.++666#,1111XXXXXXXXX",
"XXXXXXXXX6+..+6666,222,1XXXXXXXX",
"XXXXXXXXX6+.++6666,222,11XXXXXXX",
"XXXXXXXXX6+..+6666,222,111XXXXXX",
"XXXXO=>>>>+.++6666,222,1111XXXXX",
"XXO=>>>>>>>>.+6666,222,1111XXXXX",
"XO>>>>6++++>>+::::,222,1111XXXXX",
"X>>=o477X&7.%>:35 ,222,1111XXXXX",
"O>>o<X++.X&7.>>35 ,222,1111XXXXX",
">>=<Xo6+..7.7%>#5 ,222,1111XXXXX",
">>oXo46+.7.7..>-5 ,222,1111XXXXX",
">>4X$46+..7.7.>;5 ,222,1111XXXXX",
">>44446+.7.7..>;5 ,222,1111XXXXX",
">>44446+..7.7%>-5 ,222,1111XXXXX",
"O>@X446+.7.7.>>-5 ,222,1111XXXXX",
"X>>$$$6+..7.%>>#5 ,222,1111XXXXX",
"XO>%$$6+.7.%>>=35 ,222,1111XXXXX",
"XXO>>@6+..=>>>:35 ,222,1111XXXXX",
"XXXO>>>>>>>>>>:35 ,222,1111XXXXX",
"XXXXXO>>>>>>*X>35 ,222,1111XXXXX",
"XXXXXXXXX>XX>*X>5 ,222,1111XXXXX",
"%%%%%%%%%%%%%>*X>%%%%%%%%%%%%%%%",
"%XXXXXXXXXXXXX>*X>XXXXXXXXXXXXX*",
"%%%%%%%%%%%%%%%>*X>*************",
"XX-@@----XXXXXXX>*X>XXX-@@----XX",
"XX-XX----XXXXXXXX>*X=XX-XX----XX",
"XX====---XXXXXXXXX=#X%X====---XX",
"XXX-XX===XXXXXXXXXX%@XXX-XX===XX",
"XXXX*XX**XXXXXXXXXXXXXXXX*XX**XX",
"XXXX#XX##XXXXXXXXXXXXXXXX#XX##XX"}
