/* XPM */
static char * Court_TV_Icon_Color[]={
"32 32 13 1",
/* colors */
"   c  #cc6633",
".  c  #ffcc00",
"X  c  #007700",
"o  c  #ffff66",
"O  c  #996600",
"+  c  #005500",
"@  c  #ffffff",
"#  c  #eeeeee",
"$  c  #dddddd",
"%  c  #cc9900",
"&  c  #bbbbbb",
"*  c  #669933",
"=  c  #ff9900",
/* pixels */
"@@@@@@@@@@@@@@$+$@@@@@@@@@@@@@@@",
"@@@@@@@@@@@@@@+*+@@@@@@@@@@@@@@@",
"@@@@@@@@@@@@@@+*+@@@@@@@@@@@@@@@",
"@@@@@@@@@@@@@@+*+@@@@@@@@@@@@@@@",
"@@@@@@@@@@@@@@+*+@@@@@@@@@@@@@@@",
"@@@@@@@@@@@@@@+*+@@@@@@@@@@@@@@@",
"@$+++++++++++++++++++++++++++$@@",
"@+***************************+@@",
"@$+++++++++++++++++++++++++++$@@",
"@@@@@%@@@@@@@@+X+@@@@@@@@%@@@@@@",
"@@@@@%@@@@@@@@+X+@@@@@@@@%@@@@@@",
"@@@@%@%@@@@@@@+*+@@@@@@@%@%@@@@@",
"@@@@%@%@@@@@@@+*+@@@@@@@%@%@@@@@",
"@@@%@@@%@@@@@@+*+@@@@@@%@@@%@@@@",
"@@@%@@@%@@@@@@+*+@@@@@@%@@@%@@@@",
"@@%@@@@@%@@@@@+*+@@@@@%@@@@@%@@@",
"@@%@@@@@%@@@@@+*+@@@@@%@@@@@%@@@",
"@%@@@@@@@%@@@@+*+@@@@%@@@@@@@%@@",
"@%@@@@@@@%@@@@+*+@@@@%@@@@@@@%@@",
"O=======% O@@@+*+@@@O=======% O@",
"O=.o===% OO@@@+*+@@@O=.o===% OO@",
"@O=.o=% OO@@@@+*+@@@@O=.o=% OO@@",
"@@OOOOOOO@@@@@+*+@@@@@OOOOOOO@@@",
"@@@@@@@@@@@@@@+*+@@@@@@@@@@@@@@@",
"@@@@@@@@@@@@@@+*+@@@@@@@@@@@@@@@",
"@@@@@@@@@@@@@@+*+@@@@@@@@@@@@@@@",
"@@@@@@@@@@@@@@+*+@@@@@@@@@@@@@@@",
"@@@@@@######+++*+++#######@@@@@@",
"@@##$$$$$$$+*******+$$$$$$$$##@@",
"@@$&&&&&&&&+++++++++&&&&&&&&&$@@",
"@@##$$$$$$$$$$$$$$$$$$$$$$$$##@@",
"@@@@@@@@@@@@@@@@@@@@@@@@@@@@@@@@"}
