/* XPM */
static char * Inet_Newsgroups_Icon_Color[]={
"32 32 33 1",
/* colors */
"   c  #ffffff",
".  c  #cccccc",
"X  c  #3399ff",
"o  c  #666666",
"O  c  #007700",
"+  c  #000055",
"@  c  #000000",
"#  c  #002200",
"$  c  #3333cc",
"%  c  #000099",
"&  c  #000044",
"*  c  #dddddd",
"=  c  #aaaaaa",
"-  c  #004400",
";  c  #777777",
":  c  #444444",
">  c  #9999cc",
",  c  #99ff99",
"<  c  #003366",
"1  c  #009933",
"2  c  #ffffcc",
"3  c  #3399cc",
"4  c  #006699",
"5  c  #eeeeee",
"6  c  #00cc66",
"7  c  #bbbbbb",
"8  c  #0099cc",
"9  c  #00ff99",
"0  c  #222222",
"q  c  #6666cc",
"w  c  #333399",
"e  c  #005500",
"r  c  #3366cc",
/* pixels */
"         *:::::*                ",
"        *:=***=0*               ",
"        0=     =0               ",
"        *0=   =0*               ",
"         0@@@@@0                ",
"         0; =;:0                ",
"         0; =;:0 ;              ",
"         0; =;:0:2;             ",
"        *0; =;:0>.2;            ",
"        0*; =;;=0>.2;           ",
"         0    *0o>>22;          ",
"         *00000o>>>222;         ",
"      *7<<@2:2.>>>.2+22;        ",
"     7<<%%@2:.>.22222222;       ",
"    7-$w$@22:o.222+222+22;      ",
"   7-1e$:222:.222+222+2222;     ",
"  7-161r4:222222+222+222+22;    ",
"  -O169984:2222+222+222+2222;   ",
" 7-169, ,84:22+22222222222+22;  ",
" -O169   984:2222+222+222+2222; ",
" -O169, ,9XX4:22+222+222+2222:  ",
" -O16999996384:2222+222+2222:7  ",
" -O16999r333334:22+222+2222:7*  ",
" -O169996r333r44:222222222:7*5  ",
" -O-499998rqr3r4-:22+2222:7*5   ",
" 7&<%$9999963rrr1-:22222:7*5    ",
"  &<%e999999rrr$61-:222:7*5     ",
"  7&<-6699996$$w1OO#:2:7*5      ",
"   7-OO166666w%%<O#77:7*5       ",
"    7-OO1111%%%<<#7**7*5        ",
"     7--OOOOOOO&&75 5*5         ",
"      *7-------7*5   5          "}
