/* XPM */
static char * Tribune_Icon_Color[]={
"32 32 10 1",
/* colors */
"   c  #006699",
".  c  #009999",
"X  c  #0000ff",
"o  c  #ffffff",
"O  c  #eeeeee",
"+  c  #dddddd",
"@  c  #cccccc",
"#  c  #aaaaaa",
"$  c  #999999",
"%  c  #888888",
/* pixels */
"oooooooooo@.XXXXXXXX.@oooooooooo",
"oooooooo@XXXXXXXXXXXXXX@oooooooo",
"oooooo@XXXXXXXXXXXXXXXXXX@oooooo",
"ooooo@XXXXXXXXXXXXXXXXXXXX@ooooo",
"oooo@XXXXXXXXXXXXXXXXXXXXXX@oooo",
"ooo@XXXXXX+oO+#.XXXXXXXXXXXX@ooo",
"oo@XXXXXX+oooooooO+#.XXXX@XXX@oo",
"oOXXXXXX+oooooooooooooooo.XXXXOo",
"o@XXXXXXooO++ooooooooooo+XXXXX@o",
"OXXXXXXXo+   +Xoooooooo.XXXXXXXO",
"@XXXXXXX+  +oXXooooXXXXXXXXXXXX@",
".XXXXXXXX#ooXXXooooXXXXXXXXXXXX.",
"XXXXXXXXXoo@XXXooooXXXXXXXXXXXXX",
"XXXXXXXX.ooXXXXooooXXXXXXXXXXXXX",
"XXXXXXXX#ooXXXXooooXXXXXXXXXXXXX",
"XXXXXXXXoo@XXXXooooXXXXXXXXXXXXX",
"XXXXXXX#oo#XXXXooooXXXXXXXXXXXXX",
"XXXXXXX+oo#XXXXooooXXXXXXXXXXXXX",
"XXXXXXXoooOXXXXooooXXXXXXXXXXXXX",
"XXXXXXXooooXXXXooooXXXXXXXXXXXXX",
".XXXXXX+oooXXXXooooXXXXXXXXXXXX.",
"@XXXXXX#ooo@XXXooooXXXXXXXXXXXX@",
"OXXXXXXXooooXXXooooXXXXXXXXXXXXO",
"o@XXXXXX@ooo@XXoo@XXXXXXXXXXXX@o",
"oOXXXXXXX+ooooOo.XXXX@%XXXXXXXOo",
"oo@XXXXXX$oooooo#..@o#XXXXXXX@oo",
"ooo@XXXXXX#+oooooooo.XXXXXXX@ooo",
"oooo@XXXXXXX#+oooo.XXXXXXXX@oooo",
"ooooo@XXXXXXXXXXXXXXXXXXXX@ooooo",
"oooooo@XXXXXXXXXXXXXXXXXX@oooooo",
"oooooooo@XXXXXXXXXXXXXX@oooooooo",
"oooooooooo@.XXXXXXXX.@oooooooooo"}
