/* XPM */
static char * Telecom_Icon_Color[]={
"32 32 16 1",
/* colors */
"   c  #666699",
".  c  #ffffff",
"X  c  #663300",
"o  c  #555555",
"O  c  #444444",
"+  c  #333333",
"@  c  #996600",
"#  c  #cccc99",
"$  c  #222222",
"%  c  #111111",
"&  c  #000000",
"*  c  #ccffff",
"=  c  #cc9900",
"-  c  #ffff99",
";  c  #66ccff",
":  c  #99ffff",
/* pixels */
"::::::::*******:::::::::::::::::",
"::***:*........*****:;:;:;****::",
"::*::*............**;:;=;******:",
":::***............*::;=@X*****::",
"::*..............*::::=@X:*:**::",
"::*.**..**..**...*::::=@X:::::::",
"::;*::**::**::*..*===========:::",
";;;;;;;;;;;;;;***=@@@@@@@@@@@X::",
"--------------;:::XXXXXXXXXXX:::",
"############## :::::O:@@X::O::::",
"############## ::::O::=@X:O;:;::",
"ooooooooooo### ::::O:;=@X:O:;:;:",
"ooOoOOOOOO+$## :::O:;:=@XO:;:;::",
"oooOOOOO+++$## ::O:;:;=@XO;:;:::",
"oOOO+O++++$%## OO:;:;:=@O:::::::",
"ooOO++++$$$%## ::::;:;OOX*****::",
"ooO+O+$$$$%%## :::::OO=@X.....*:",
"ooOO$+$$$$%%## :::OO*.=@X......:",
"oOO++$$$$%%%## OOO:*..=@X......:",
"oo++$$$$%%%&## *......=@X.....*:",
"oo+$$$%%%%%&## *......=@X.....*:",
"oo+%%%%%&%&### *......=@X....*::",
"############## :****..=@X...*:::",
"############## :::::**=@X..*::::",
"OOOOOOOOOOOOOO;;::::::=@X**:::::",
"                ;:;:::=@X::::;::",
"############### :;:;:;=@X:;:;:;:",
"########OOOOOO# ;:;:;:=@X;:;:;:;",
"############### :;;;:;=@X;;;;;;;",
"                ;;;;;;=@X;;;;;;;",
"# # # # # # # # ;;;;;;=@X;;;;;;;",
"                ;;;;;;=@X;;;;;;;"}
