/* XPM */
static char * Steve_Letter[]={
"32 32 25 1",
/* colors */
"   c  #cc9966",
".  c  #ffffff",
"X  c  #eeeeee",
"o  c  #dddddd",
"O  c  #000088",
"+  c  #cccccc",
"@  c  #996633",
"#  c  #0099cc",
"$  c  #bbbbbb",
"%  c  #ff9900",
"&  c  #aaaaaa",
"*  c  #663300",
"=  c  #999999",
"-  c  #888888",
";  c  #ffcc66",
":  c  #ffff00",
">  c  #555555",
",  c  #444444",
"<  c  #996600",
"1  c  #000000",
"2  c  #999966",
"3  c  #00ccff",
"4  c  #ffff99",
"5  c  #440000",
"6  c  #0066cc",
/* pixels */
".......<<<<<<<<<<<<<<<<<<<......",
"......<%%%%;%%%%;:%%%%%%%:*.....",
"....<<<%;1;111;11;1;1;11.%*<*...",
"....<%%;1.;;1;.1;;1;1;1.:;%%*...",
"....<%:;.1:;1.:11;1.1;11;;;OOOO.",
"....<%;.;1;:1:;1;:1;1:1:;;O3##OO",
"----<%.;1;:;1;;1:.;1;;11;O3#66OO",
"----<%;;;;;;;;::.;;;;:;;O3#666OO",
"=-==%%%%%%%%%%%%%%%%%%%O3#666OO.",
"-==<<<<<<<<<<<<<<<<<<<O3#666OO<.",
"==*******************O##666OO***",
"==*******************OO666OO****",
"=&555555555555555555O3O66OO55555",
"&&&=&&&=&&&=&&&=&&&O36#OOO&=&&&=",
"&&&&&&&&&&&&&&&&&&O366O#O&&&&&&&",
"&&---------------O366OOO---&&&&&",
"$&2-4.4.4.4.4.4.4OO6OOO.4.4-$&&&",
"&$$2-4.4.4.4.4.@%@OOOO.4.4.4-$&$",
"$$&$2-4>>>>>>.@%%%@OO.>>>>4.4-$$",
"$$$$$2-4.4.4.4@%% ,4.4.4.4.4.4-$",
"$$$$$+2-4.>>4@%1 @,.>>>>>>>>>.4-",
"+$++$$+2-4.4.@1 ,,$$$$$$$$$$$4.4",
"$++$+++$2-4.%1%,$$>>>>>>>>>>>>>.",
"+++++++++2-4.%,$$$$$$$$$$$$$$$.4",
"++++++++++2-4.>>>>4>4.>.4>4.4>4.",
"+o+oo+o+o+o2-4.4.4.4.4.4.4.4.4.4",
"o+oo+ooo+ooo2-4.4.4.4.4.4.4.4.4.",
"ooooooooooooo2-4.4.4.4.4.4.4.4.4",
"oooooooooooooo2-4.4.4.4.4.4.4.4.",
"oXoXoXooXoXoXoX2-4.4.4.4.4.4.4.4",
"XoXoXoXXoXoXoXoX2-4.4.4.4.4.4.4.",
"oXXXXXXoXXXXXXXXo2-4.4.4.4.4.4.4"}
